<svg xmlns="http://www.w3.org/2000/svg" xmlns:xlink="http://www.w3.org/1999/xlink" version="1.1" width="16" height="16" viewBox="0 0 16 16"><defs><clipPath id="master_svg0_210_18257"><rect x="0" y="0" width="16" height="16" rx="0"/></clipPath></defs><g clip-path="url(#master_svg0_210_18257)"><g><path d="M15.428577,1.7109375C15.428577,1.7109375,0.57142669,1.7109375,0.57142669,1.7109375C0.25535735,1.7109375,0,1.96629485,0,2.28236419C0,2.28236419,0,13.7109375,0,13.7109375C0,14.0270275,0.25535735,14.2823605,0.57142669,14.2823605C0.57142669,14.2823605,15.428577,14.2823605,15.428577,14.2823605C15.744622,14.2823605,16,14.0270275,16,13.7109375C16,13.7109375,16,2.28236419,16,2.28236419C16,1.96629485,15.744622,1.7109375,15.428577,1.7109375C15.428577,1.7109375,15.428577,1.7109375,15.428577,1.7109375ZM14.714268,12.9966705C14.714268,12.9966705,1.2857156,12.9966705,1.2857156,12.9966705C1.2857156,12.9966705,1.2857156,2.9966531,1.2857156,2.9966531C1.2857156,2.9966531,14.714268,2.9966531,14.714268,2.9966531C14.714268,2.9966531,14.714268,12.9966705,14.714268,12.9966705C14.714268,12.9966705,14.714268,12.9966705,14.714268,12.9966705ZM9.7553778,7.3537817C9.7553778,7.3537817,11.958934,7.3537817,11.958934,7.3537817C11.982134,7.3537817,12,7.289515,12,7.2109375C12,7.2109375,12,6.3537817,12,6.3537817C12,6.2752042,11.982134,6.2109375,11.958934,6.2109375C11.958934,6.2109375,9.7553778,6.2109375,9.7553778,6.2109375C9.7321339,6.2109375,9.7142668,6.2752042,9.7142668,6.3537817C9.7142668,6.3537817,9.7142668,7.2109375,9.7142668,7.2109375C9.7142668,7.289515,9.7321339,7.3537817,9.7553778,7.3537817C9.7553778,7.3537817,9.7553778,7.3537817,9.7553778,7.3537817ZM9.8410673,9.9252043C9.8410673,9.9252043,13.157155,9.9252043,13.157155,9.9252043C13.2268,9.9252043,13.283911,9.8609371,13.283911,9.7823601C13.283911,9.7823601,13.283911,8.9252038,13.283911,8.9252038C13.283911,8.8466711,13.2268,8.7823596,13.157155,8.7823596C13.157155,8.7823596,9.8410673,8.7823596,9.8410673,8.7823596C9.7714224,8.7823596,9.7142668,8.8466711,9.7142668,8.9252038C9.7142668,8.9252038,9.7142668,9.7823601,9.7142668,9.7823601C9.7142668,9.8609371,9.7714224,9.9252043,9.8410673,9.9252043C9.8410673,9.9252043,9.8410673,9.9252043,9.8410673,9.9252043ZM2.8571422,10.8716488C2.8571422,10.8716488,3.6410713,10.8716488,3.6410713,10.8716488C3.7160714,10.8716488,3.7767868,10.8127155,3.7821422,10.7377377C3.8500001,9.8359594,4.6035557,9.1216493,5.5178666,9.1216493C6.4321332,9.1216493,7.1857333,9.8359594,7.2535553,10.7377377C7.2589331,10.8127155,7.3196445,10.8716488,7.3946218,10.8716488C7.3946218,10.8716488,8.1785784,10.8716488,8.1785784,10.8716488C8.1979561,10.8716936,8.2171116,10.8677378,8.2349339,10.860137C8.2527561,10.8525372,8.2688446,10.8413372,8.2821779,10.8273373C8.2955561,10.8132935,8.3059111,10.7966709,8.3126669,10.7785378C8.3194227,10.7603598,8.3224001,10.7410259,8.3214226,10.7216482C8.2714224,9.7698717,7.75,8.9412928,6.9892888,8.4698706C7.3247552,8.101115199999999,7.5101337,7.620182,7.5089331,7.1216488C7.5089331,6.016293,6.6178665,5.1216531,5.5196443,5.1216531C4.4214268,5.1216531,3.5303555,6.016293,3.5303555,7.1216488C3.5303555,7.641293,3.7267869,8.1127152,4.0500002,8.4698706C3.662729,8.709870800000001,3.3392978,9.0400043,3.1073201,9.4321375C2.8753467,9.8242264,2.74172,10.2666712,2.7178578,10.7216482C2.7107155,10.8037825,2.7750001,10.8716488,2.8571422,10.8716488C2.8571422,10.8716488,2.8571422,10.8716488,2.8571422,10.8716488ZM5.5178666,6.1930709C6.0268002,6.1930709,6.4410667,6.6091599,6.4410667,7.1216488C6.4410667,7.6341376,6.0268002,8.0502267,5.5178666,8.0502267C5.0089331,8.0502267,4.5946221,7.6341376,4.5946221,7.1216488C4.5946221,6.6091599,5.0089331,6.1930709,5.5178666,6.1930709C5.5178666,6.1930709,5.5178666,6.1930709,5.5178666,6.1930709Z"/></g></g></svg>