<svg xmlns="http://www.w3.org/2000/svg" xmlns:xlink="http://www.w3.org/1999/xlink" version="1.1" width="16" height="16" viewBox="0 0 16 16"><defs><clipPath id="master_svg0_124_01283"><rect x="0" y="0" width="16" height="16" rx="0"/></clipPath></defs><g clip-path="url(#master_svg0_124_01283)"><g><path d="M2.6156505e-7,1.74141747C2.6156505e-7,1.3332286500000001,0.33259866,1.00000034875342,0.74015784,1.00000034875342L6.1524415,1.00000034875342C6.5599999,1.00000034875342,6.8925986,1.3332286500000001,6.8925986,1.74141771L6.8925986,2.12L9.1074018,2.12L9.1074018,1.7414173499999999C9.1074018,1.33322832,9.4399996,1,9.847558,1L15.259842,1C15.666772,1,16,1.33322832,16,1.7414173499999999L16,3.6337006C16,4.0418897000000005,15.667403,4.3751178,15.259842,4.3751178L9.8463001,4.3751178C9.4393702,4.3751178,9.106142,4.0418897000000005,9.106142,3.6337006L9.106142,3.2551181L6.8925991,3.2551181L6.8925991,3.6337006C6.8925991,4.0418897000000005,6.5600004,4.3751178,6.152442,4.3751178L0.7401576,4.3751178C0.33322847,4.3751178,1.7437671e-7,4.0418897000000005,1.7437671e-7,3.6337006L2.6156505e-7,1.74141747ZM2.6156505e-7,7.0541725C2.6156505e-7,6.6459837,0.33259866,6.3127561,0.74015784,6.3127561L6.1524415,6.3127561C6.5599999,6.3127561,6.8925986,6.6459837,6.8925986,7.0541725L6.8925986,7.432755L9.1074018,7.432755L9.1074018,7.0541725C9.1074018,6.6459837,9.4399996,6.3127561,9.847558,6.3127561L15.259842,6.3127561C15.666772,6.3127561,16,6.6459837,16,7.0541725L16,8.9451957C16,9.353385,15.667403,9.6866131,15.259842,9.6866131L9.8463001,9.6866131C9.4393702,9.6866131,9.106142,9.353385,9.106142,8.9451957L9.106142,8.5666127L6.8925991,8.5666127L6.8925991,8.9451957C6.8925991,9.353385,6.5600004,9.6866131,6.152442,9.6866131L0.7401576,9.6866131C0.33322847,9.6866131,1.7437671e-7,9.353385,1.7437671e-7,8.9451957L2.6156505e-7,7.0541725ZM15.997479,14.25732C15.997479,14.66551,15.664882,14.998739,15.257321,14.998739L9.8450375,14.998739C9.4381084,14.998739,9.1048813,14.66551,9.1048813,14.25732L9.1048813,13.878738L6.8913383,13.878738L6.8913383,14.25732C6.8913383,14.66551,6.5587397,14.998739,6.1511807,14.998739L0.74015749,14.998739C0.33322832,14.998739,0,14.66551,0,14.25732L0,12.365038C0,11.956848,0.33259848,11.623621,0.74015749,11.623621L6.152441,11.623621C6.5599995,11.623621,6.8925982,11.956848,6.8925982,12.365038L6.8925982,12.743621L9.1074009,12.743621L9.1074009,12.365038C9.1074009,11.956848,9.4399996,11.623621,9.847558,11.623621L15.259841,11.623621C15.666771,11.623621,15.999999,11.956848,15.999999,12.365038L15.999999,14.25732L15.997479,14.25732Z" /></g></g></svg>