<svg xmlns="http://www.w3.org/2000/svg" xmlns:xlink="http://www.w3.org/1999/xlink" version="1.1" width="16" height="16" viewBox="0 0 16 16"><defs><clipPath id="master_svg0_124_01300"><rect x="0" y="0" width="16" height="16" rx="0"/></clipPath></defs><g clip-path="url(#master_svg0_124_01300)"><g><path d="M13.548857,8.077352053125L7.0488572,1.577352283125C6.8929105,1.420565486125,6.6807218,1.332681884755,6.4595861,1.33328994751L0.83333647,1.33328994751C0.37331337,1.333806610085,0.00051978737,1.706600043125,0.0000031314385,2.166623233125L0.0000031314385,7.792872953125C-0.00060463534,8.014008553124999,0.087279059,8.226197253125001,0.24406563,8.382143453125L6.7440653,14.882142953125C7.0695062,15.207602953125,7.597167,15.207602953125,7.9226074,14.882142953125L13.548857,9.255894153125C13.87374,8.930216353125001,13.87374,8.403030353125,13.548857,8.077352053125ZM5.3333359,5.333289653125C5.3333359,6.069669253125,4.7363825,6.666622653125,4.0000029,6.666622653125C3.2636232,6.666622653125,2.6666696,6.069669253125,2.6666696,5.333289653125C2.6666696,4.5969099531249995,3.2636232,3.999956653125,4.0000029,3.999956653125C4.7360492,4.000760553125,5.3325324,4.597243553125001,5.3333359,5.333289653125ZM15.548857,9.255894153125L9.5690651,15.235684953125C9.4388752,15.365875953125,9.2277966,15.365875953125,9.0976076,15.235684953125C8.9674177,15.105494953125,8.9674177,14.894415953125,9.0976076,14.764227953125L15.077399,8.784435753124999C15.142436,8.719357053125,15.142436,8.613889653125,15.077399,8.548810953124999L8.4309406,1.902352453125C8.3007507,1.7721627631249999,8.3007507,1.561083523125,8.4309406,1.430894010125C8.5611305,1.300704498125,8.7722092,1.300704498125,8.9023981,1.430894166125L15.548857,8.077352053125C15.87374,8.403030353125,15.87374,8.930216353125001,15.548857,9.255894153125Z" /></g></g></svg>