<svg xmlns="http://www.w3.org/2000/svg" xmlns:xlink="http://www.w3.org/1999/xlink" version="1.1" width="24" height="24" viewBox="0 0 24 24"><defs><clipPath id="master_svg0_56_33159"><rect x="0" y="0" width="24" height="24" rx="0"/></clipPath></defs><g clip-path="url(#master_svg0_56_33159)"><g><path d="M22.071012870010374,19.500842498397827C22.071012870010374,19.500842498397827,3.6424522700103763,19.500842498397827,3.6424522700103763,19.500842498397827C3.6424522700103763,19.500842498397827,3.6424522700103763,2.786528508397827,3.6424522700103763,2.786528508397827C3.6424522700103763,2.6686711613978273,3.546018870010376,2.572242498397827,3.4281655700103757,2.572242498397827C3.4281655700103757,2.572242498397827,1.928164880010376,2.572242498397827,1.928164880010376,2.572242498397827C1.810307533010376,2.572242498397827,1.713878870010376,2.6686711613978273,1.713878870010376,2.786528508397827C1.713878870010376,2.786528508397827,1.713878870010376,21.215110498397827,1.713878870010376,21.215110498397827C1.713878870010376,21.332977498397828,1.810307533010376,21.429376498397826,1.928164880010376,21.429376498397826C1.928164880010376,21.429376498397826,22.071012870010374,21.429376498397826,22.071012870010374,21.429376498397826C22.188878870010377,21.429376498397826,22.285278870010377,21.332977498397828,22.285278870010377,21.215110498397827C22.285278870010377,21.215110498397827,22.285278870010377,19.715110498397827,22.285278870010377,19.715110498397827C22.285278870010377,19.597244498397828,22.188878870010377,19.500842498397827,22.071012870010374,19.500842498397827C22.071012870010374,19.500842498397827,22.071012870010374,19.500842498397827,22.071012870010374,19.500842498397827ZM5.999592070010376,17.357976498397825C5.999592070010376,17.357976498397825,7.499592070010376,17.357976498397825,7.499592070010376,17.357976498397825C7.617452370010376,17.357976498397825,7.713878870010376,17.261508498397827,7.713878870010376,17.143642498397828C7.713878870010376,17.143642498397828,7.713878870010376,13.286509498397827,7.713878870010376,13.286509498397827C7.713878870010376,13.168642498397826,7.617452370010376,13.072242498397827,7.499592070010376,13.072242498397827C7.499592070010376,13.072242498397827,5.999592070010376,13.072242498397827,5.999592070010376,13.072242498397827C5.881738870010376,13.072242498397827,5.785305770010376,13.168642498397826,5.785305770010376,13.286509498397827C5.785305770010376,13.286509498397827,5.785305770010376,17.143642498397828,5.785305770010376,17.143642498397828C5.785305770010376,17.261508498397827,5.881738870010376,17.357976498397825,5.999592070010376,17.357976498397825C5.999592070010376,17.357976498397825,5.999592070010376,17.357976498397825,5.999592070010376,17.357976498397825ZM10.071012770010375,17.357976498397825C10.071012770010375,17.357976498397825,11.571012770010375,17.357976498397825,11.571012770010375,17.357976498397825C11.688879270010377,17.357976498397825,11.785278870010377,17.261508498397827,11.785278870010377,17.143642498397828C11.785278870010377,17.143642498397828,11.785278870010377,8.572242498397827,11.785278870010377,8.572242498397827C11.785278870010377,8.454382698397827,11.688879270010377,8.357955698397827,11.571012770010375,8.357955698397827C11.571012770010375,8.357955698397827,10.071012770010375,8.357955698397827,10.071012770010375,8.357955698397827C9.953146170010376,8.357955698397827,9.856745970010376,8.454382698397827,9.856745970010376,8.572242498397827C9.856745970010376,8.572242498397827,9.856745970010376,17.143642498397828,9.856745970010376,17.143642498397828C9.856745970010376,17.261508498397827,9.953146170010376,17.357976498397825,10.071012770010375,17.357976498397825C10.071012770010375,17.357976498397825,10.071012770010375,17.357976498397825,10.071012770010375,17.357976498397825ZM14.142478870010375,17.357976498397825C14.142478870010375,17.357976498397825,15.642478870010375,17.357976498397825,15.642478870010375,17.357976498397825C15.760278870010376,17.357976498397825,15.856745870010377,17.261508498397827,15.856745870010377,17.143642498397828C15.856745870010377,17.143642498397828,15.856745870010377,10.661509298397828,15.856745870010377,10.661509298397828C15.856745870010377,10.543642798397826,15.760278870010376,10.447242498397827,15.642478870010375,10.447242498397827C15.642478870010375,10.447242498397827,14.142478870010375,10.447242498397827,14.142478870010375,10.447242498397827C14.024612870010376,10.447242498397827,13.928145870010376,10.543642798397826,13.928145870010376,10.661509298397828C13.928145870010376,10.661509298397828,13.928145870010376,17.143642498397828,13.928145870010376,17.143642498397828C13.928145870010376,17.261508498397827,14.024612870010376,17.357976498397825,14.142478870010375,17.357976498397825C14.142478870010375,17.357976498397825,14.142478870010375,17.357976498397825,14.142478870010375,17.357976498397825ZM18.213878870010376,17.357976498397825C18.213878870010376,17.357976498397825,19.713878870010376,17.357976498397825,19.713878870010376,17.357976498397825C19.831745870010376,17.357976498397825,19.928146870010377,17.261508498397827,19.928146870010377,17.143642498397828C19.928146870010377,17.143642498397828,19.928146870010377,6.429382598397828,19.928146870010377,6.429382598397828C19.928146870010377,6.311529398397827,19.831745870010376,6.215102698397827,19.713878870010376,6.215102698397827C19.713878870010376,6.215102698397827,18.213878870010376,6.215102698397827,18.213878870010376,6.215102698397827C18.096011870010376,6.215102698397827,17.999612870010377,6.311529398397827,17.999612870010377,6.429382598397828C17.999612870010377,6.429382598397828,17.999612870010377,17.143642498397828,17.999612870010377,17.143642498397828C17.999612870010377,17.261508498397827,18.096011870010376,17.357976498397825,18.213878870010376,17.357976498397825C18.213878870010376,17.357976498397825,18.213878870010376,17.357976498397825,18.213878870010376,17.357976498397825Z" /></g></g></svg>