<?xml version="1.0" standalone="no"?><!DOCTYPE svg PUBLIC "-//W3C//DTD SVG 1.1//EN" "http://www.w3.org/Graphics/SVG/1.1/DTD/svg11.dtd"><svg class="icon" width="200px" height="192.84px" viewBox="0 0 1062 1024" version="1.1" xmlns="http://www.w3.org/2000/svg"><path d="M953.6 448V281.6c0-64-51.2-115.2-115.2-115.2h-44.8C774.4 108.8 665.6 64 524.8 64s-249.6 44.8-268.8 102.4h-44.8c-64 0-115.2 51.2-115.2 115.2V448c-57.6 12.8-96 57.6-96 115.2v352c0 25.6 19.2 44.8 44.8 44.8h70.4c25.6 0 44.8-19.2 44.8-44.8 0-6.4 6.4-19.2 19.2-19.2h704c6.4 0 19.2 6.4 19.2 19.2 0 25.6 19.2 44.8 44.8 44.8h70.4c25.6 0 44.8-19.2 44.8-44.8V563.2c-12.8-57.6-51.2-102.4-108.8-115.2z m-832-166.4c0-44.8 38.4-89.6 89.6-89.6h70.4v-12.8c6.4-38.4 102.4-83.2 243.2-83.2s243.2 44.8 243.2 89.6v12.8h64c51.2 0 89.6 38.4 89.6 89.6V448h-153.6c-6.4-38.4-64-70.4-128-70.4-51.2 0-102.4 25.6-115.2 64-12.8-38.4-64-64-121.6-64-64 0-115.2 32-128 70.4H121.6V281.6zM748.8 448H550.4c12.8-25.6 51.2-44.8 96-44.8 51.2 0 89.6 19.2 102.4 44.8zM499.2 448H300.8c12.8-25.6 51.2-44.8 96-44.8 51.2 0 89.6 19.2 102.4 44.8z m524.8 467.2c0 6.4-6.4 19.2-19.2 19.2h-70.4c-6.4 0-19.2-6.4-19.2-19.2 0-25.6-19.2-44.8-44.8-44.8h-704c-25.6 0-44.8 19.2-44.8 44.8 0 6.4-6.4 19.2-19.2 19.2H44.8c-6.4 0-19.2-6.4-19.2-19.2V563.2c0-51.2 38.4-89.6 89.6-89.6H928c44.8 0 89.6 38.4 89.6 89.6l6.4 352z" fill="#FF9300" /></svg>