<svg xmlns="http://www.w3.org/2000/svg" xmlns:xlink="http://www.w3.org/1999/xlink" fill="none" version="1.1" width="16" height="16" viewBox="0 0 16 16"><defs><clipPath id="master_svg0_52_05720"><rect x="0" y="0" width="16" height="16" rx="0"/></clipPath></defs><g clip-path="url(#master_svg0_52_05720)"><g><path d="M14.045974,12.237108L12.551998,9.2530127C12.536576,9.2202406,12.526938,9.1855421,12.526938,9.1489153L12.523083,5.8448191C12.521155,3.9807229,11.258505,2.4115663,9.5447693,1.9431325L9.5447693,1.9412048C9.5447693,0.86939758,8.6753721,0,7.6035647,0C6.5336852,0,5.6662149,0.86554211,5.6623597,1.9354217C3.9293475,2.3961446,2.6512751999999997,3.9768672,2.653203,5.8544574L2.6570584,9.1585541C2.6570584,9.1951809,2.6493474,9.2298794,2.6319980999999997,9.2626505L1.13994992,12.242891C0.7042872600000001,13.114217,1.33850414,14.141686,2.3139259,14.139759L12.875854,14.132048C13.849348,14.133976,14.483564,13.108434,14.045974,12.237108ZM5.8435645,14.698795C5.6488657,14.698795,5.5428414,14.924338,5.6642871,15.076627C6.1153717,15.639518,6.8093476,16,7.5862155,16C8.3650103,16,9.0589867,15.639518,9.5119982,15.074699C9.6334448,14.922409,9.52742,14.696867,9.3327217,14.698795L5.8435645,14.698795Z" fill="#4E5969" fill-opacity="1"/></g></g></svg>