<svg xmlns="http://www.w3.org/2000/svg" xmlns:xlink="http://www.w3.org/1999/xlink" fill="none" version="1.1" width="16" height="16" viewBox="0 0 16 16"><defs><clipPath id="master_svg0_52_18267"><rect x="0" y="0" width="16" height="16" rx="0"/></clipPath></defs><g clip-path="url(#master_svg0_52_18267)"><g><path d="M13.655303,0L2.344624,0C1.0517683,0,0,1.1462336,0,2.555151L0,9.8059683C0,11.214849,1.0517871,12.361083,2.344624,12.361083L2.7176526,12.361083L2.7176526,14.267206C2.7176526,14.839051,3.1432064,15.304385,3.6661956,15.304385C3.8522117,15.304385,4.0371399,15.241236,4.1967273,15.124768L8.1033087,12.3611L13.655378,12.3611C14.948196,12.3611,16.000002,11.214866,16.000002,9.8059864L16,2.5551696C15.999909,1.1462336,14.94814,0,13.655303,0ZM4.8142366,5.4206982C5.199327,5.4206982,5.5115113,5.7609353,5.5115113,6.1806054C5.5115113,6.6002398,5.1993265,6.940495,4.8142366,6.940495C4.4292197,6.940495,4.1169434,6.6002584,4.1169434,6.1806054C4.1169243,5.7609353,4.4292197,5.4206982,4.8142366,5.4206982ZM7.9999909,6.940495C7.6149006,6.940495,7.3026972,6.6002584,7.3026972,6.1806054C7.3026972,5.7609348,7.6149006,5.4206982,7.9999905,5.4206982C8.3850622,5.4206982,8.6971731,5.7609353,8.6971731,6.1806054C8.6971741,6.6002588,8.3850632,6.940495,7.9999909,6.940495ZM11.18569,6.940495C10.8006,6.940495,10.488396,6.6002584,10.488396,6.1806054C10.488396,5.7609348,10.8006,5.4206982,11.18569,5.4206982C11.570762,5.4206982,11.882964,5.7609353,11.882964,6.1806054C11.882967,6.6002588,11.570762,6.940495,11.18569,6.940495Z" fill="#FFC300" fill-opacity="1"/></g></g></svg>