<svg xmlns="http://www.w3.org/2000/svg" xmlns:xlink="http://www.w3.org/1999/xlink" version="1.1" width="16" height="16" viewBox="0 0 16 16"><defs><clipPath id="master_svg0_241_05411"><rect x="0" y="0" width="16" height="16" rx="0"/></clipPath></defs><g clip-path="url(#master_svg0_241_05411)"><g><path d="M13.7137451171875,0C13.7137451171875,0,4.142315117187501,0,4.142315117187501,0C4.0637451171875,0,3.9994651171875,0.0642858,3.9994651171875,0.142857C3.9994651171875,0.142857,3.9994651171875,1.14286,3.9994651171875,1.14286C3.9994651171875,1.22143,4.0637451171875,1.28572,4.142315117187501,1.28572C4.142315117187501,1.28572,12.9994451171875,1.28572,12.9994451171875,1.28572C12.9994451171875,1.28572,12.9994451171875,13.5714,12.9994451171875,13.5714C12.9994451171875,13.65,13.0637451171875,13.7143,13.1423451171875,13.7143C13.1423451171875,13.7143,14.1423451171875,13.7143,14.1423451171875,13.7143C14.2209451171875,13.7143,14.2851451171875,13.65,14.2851451171875,13.5714C14.2851451171875,13.5714,14.2851451171875,0.571427,14.2851451171875,0.571427C14.2851451171875,0.255357,14.0298451171875,0,13.7137451171875,0C13.7137451171875,0,13.7137451171875,0,13.7137451171875,0ZM11.4280151171875,2.28572C11.4280151171875,2.28572,2.2851721171875,2.28572,2.2851721171875,2.28572C1.9691021171875,2.28572,1.7137451171875,2.54107,1.7137451171875,2.85714C1.7137451171875,2.85714,1.7137451171875,12.3339,1.7137451171875,12.3339C1.7137451171875,12.4857,1.7744593171875,12.6304,1.8816021171875,12.7375C1.8816021171875,12.7375,4.9762451171875,15.8321,4.9762451171875,15.8321C5.0155351171875004,15.8714,5.0601751171875,15.9036,5.1083851171875,15.9304C5.1083851171875,15.9304,5.1083851171875,15.9643,5.1083851171875,15.9643C5.1083851171875,15.9643,5.1833851171875,15.9643,5.1833851171875,15.9643C5.2458851171875,15.9875,5.3119551171875,16,5.3798151171874995,16C5.3798151171874995,16,11.4280151171875,16,11.4280151171875,16C11.7441451171875,16,11.9994451171875,15.7446,11.9994451171875,15.4286C11.9994451171875,15.4286,11.9994451171875,2.85714,11.9994451171875,2.85714C11.9994451171875,2.54107,11.7441451171875,2.28572,11.4280151171875,2.28572C11.4280151171875,2.28572,11.4280151171875,2.28572,11.4280151171875,2.28572ZM5.106605117187501,14.1464C5.106605117187501,14.1464,3.5691051171875,12.6072,3.5691051171875,12.6072C3.5691051171875,12.6072,5.106605117187501,12.6072,5.106605117187501,12.6072C5.106605117187501,12.6072,5.106605117187501,14.1464,5.106605117187501,14.1464C5.106605117187501,14.1464,5.106605117187501,14.1464,5.106605117187501,14.1464ZM10.7137451171875,14.7143C10.7137451171875,14.7143,6.2494751171875,14.7143,6.2494751171875,14.7143C6.2494751171875,14.7143,6.2494751171875,12.1786,6.2494751171875,12.1786C6.2494751171875,11.7839,5.9298151171875,11.4643,5.535175117187499,11.4643C5.535175117187499,11.4643,2.9994651171875,11.4643,2.9994651171875,11.4643C2.9994651171875,11.4643,2.9994651171875,3.57143,2.9994651171875,3.57143C2.9994651171875,3.57143,10.7137451171875,3.57143,10.7137451171875,3.57143C10.7137451171875,3.57143,10.7137451171875,14.7143,10.7137451171875,14.7143C10.7137451171875,14.7143,10.7137451171875,14.7143,10.7137451171875,14.7143Z"/></g></g></svg>