<svg xmlns="http://www.w3.org/2000/svg" xmlns:xlink="http://www.w3.org/1999/xlink"  version="1.1" width="16" height="16" viewBox="0 0 16 16"><defs><clipPath id="master_svg0_253_06136"><rect x="0" y="0" width="16" height="16" rx="0"/></clipPath></defs><g clip-path="url(#master_svg0_253_06136)"><g><path d="M8.606535,13.06123C8.2716427,13.397499,7.7272129,13.397499,7.3923206,13.06123C7.3149304,12.981803,7.2531481,12.888547,7.2101879,12.786313C7.1644111,12.681572,7.1410022,12.568429,7.141459,12.454122C7.1421542,12.339934,7.1655154,12.22702,7.2101879,12.12193C7.4428248,11.556617,8.1769676,11.412078,8.606535,11.847014C8.766654,12.008766,8.8574591,12.226533,8.8596878,12.454122C8.8596897,12.682163,8.7685452,12.900745,8.606535,13.06123ZM8.8596878,9.8767786C8.8596878,10.3512545,8.475049,10.7358942,8.0005732,10.7358942C7.5260973,10.7358942,7.141459,10.3512545,7.141459,9.8767786L7.141459,6.4403214C7.141459,5.9658465,7.5260973,5.5812082,8.0005732,5.5812082C8.475049,5.5812082,8.8596878,5.9658465,8.8596878,6.4403214L8.8596878,9.8767786ZM7.5011415,1.28563595L0.07495743,14.475904C-0.14098856,14.858019,0.13547672,15.331053,0.57438916,15.330437L15.425611,15.330437C15.864523,15.331053,16.140987,14.858019,15.925043,14.475904L8.4988594,1.29136336C8.3973217,1.11134857,8.2066765,1,8,1C7.7933245,1.00000017478725,7.6026788,1.11134857,7.5011415,1.29136336" /></g></g></svg>