<svg xmlns="http://www.w3.org/2000/svg" xmlns:xlink="http://www.w3.org/1999/xlink" version="1.1" width="24" height="24" viewBox="0 0 24 24"><defs><clipPath id="master_svg0_56_33157"><rect x="0" y="0" width="24" height="24" rx="0"/></clipPath></defs><g clip-path="url(#master_svg0_56_33157)"><g><path d="M23.057137,8.6176634C22.454803,7.1918564,21.581467,5.8964896,20.485733,4.80335C19.392601,3.7075694,18.097202,2.8342896,16.6714,2.23192269C15.190199,1.60513389,13.620533,1.2890625,12,1.2890625C10.379467,1.2890625,8.8098011,1.60513389,7.3286004,2.23192269C5.9027934,2.8342896,4.6074266,3.7075694,3.514287,4.80335C2.4185066,5.8964896,1.5452268,7.1918564,0.94286013,8.6176634C0.31607136,10.0988636,0,11.6685305,0,13.2890635C0,16.843529500000002,1.5616068,20.1917325,4.2830334,22.4792635C4.2830334,22.4792635,4.3285737,22.5167315,4.3285737,22.5167315C4.4839268,22.6453325,4.6794672,22.7176645,4.8803606,22.7176645C4.8803606,22.7176645,19.122335,22.7176645,19.122335,22.7176645C19.323202,22.7176645,19.518732,22.6453325,19.674135,22.5167315C19.674135,22.5167315,19.719667,22.4792635,19.719667,22.4792635C22.4384,20.1917325,24,16.843529500000002,24,13.2890635C24,11.6685305,23.681269,10.0988636,23.057137,8.6176634C23.057137,8.6176634,23.057137,8.6176634,23.057137,8.6176634ZM18.680336,20.6819325C18.680336,20.6819325,5.3196402,20.6819325,5.3196402,20.6819325C4.2846336,19.7486665,3.4574137,18.6082645,2.8916669,17.3346635C2.3259268,16.0609975,2.0343001,14.6826635,2.0357134,13.2890635C2.0357134,10.6265974,3.0723202,8.1247973,4.9553604,6.2444234C6.8384008,4.361383,9.3402004,3.3247762,12,3.3247762C14.662468,3.3247762,17.164267,4.361383,19.044666,6.2444234C20.927668,8.127463800000001,21.96427,10.6292629,21.96427,13.2890635C21.96427,16.1176645,20.772335,18.7935315,18.680336,20.6819325C18.680336,20.6819325,18.680336,20.6819325,18.680336,20.6819325ZM14.986601,9.5792637C14.946336,9.5393963,14.891933,9.5169964,14.835266,9.5169964C14.778601,9.5169964,14.7242,9.5393963,14.683934,9.5792637C14.683934,9.5792637,12.420534,11.8426625,12.420534,11.8426625C11.919667,11.7087305,11.365201,11.8372645,10.9714,12.2309985C10.831934,12.3701975,10.721334,12.5355975,10.645802,12.7175975C10.570333,12.8995975,10.531467,13.0947315,10.531467,13.2917315C10.531467,13.4887995,10.570333,13.6839305,10.645802,13.8659305C10.721334,14.0479295,10.831934,14.2132645,10.9714,14.3524645C11.1106,14.4919305,11.275934,14.6025995,11.458,14.6780645C11.639999,14.7535315,11.835067,14.7923985,12.032133,14.7923985C12.2292,14.7923985,12.424269,14.7535315,12.606334,14.6780645C12.788334,14.6025995,12.953667,14.4919305,13.092868,14.3524645C13.279401,14.1664635,13.413534,13.9345325,13.481735,13.6800645C13.549933,13.4256645,13.549801,13.1577305,13.481268,12.9033295C13.481268,12.9033295,15.744667,10.6399307,15.744667,10.6399307C15.827668,10.5569305,15.827668,10.420331,15.744667,10.3372641C15.744667,10.3372641,14.986601,9.5792637,14.986601,9.5792637C14.986601,9.5792637,14.986601,9.5792637,14.986601,9.5792637ZM11.410734,6.8604894C11.410734,6.8604894,12.589268,6.8604894,12.589268,6.8604894C12.707133,6.8604894,12.803601,6.7640629,12.803601,6.6462102C12.803601,6.6462102,12.803601,4.5033498000000005,12.803601,4.5033498000000005C12.803601,4.3854897,12.707133,4.289062700000001,12.589268,4.289062700000001C12.589268,4.289062700000001,11.410734,4.289062700000001,11.410734,4.289062700000001C11.292868,4.289062700000001,11.1964,4.3854897,11.1964,4.5033498000000005C11.1964,4.5033498000000005,11.1964,6.6462102,11.1964,6.6462102C11.1964,6.7640629,11.292868,6.8604894,11.410734,6.8604894C11.410734,6.8604894,11.410734,6.8604894,11.410734,6.8604894ZM18.375002,12.6997975C18.375002,12.6997975,18.375002,13.8783315,18.375002,13.8783315C18.375002,13.9961965,18.471401,14.0926645,18.589268,14.0926645C18.589268,14.0926645,20.732136,14.0926645,20.732136,14.0926645C20.850002,14.0926645,20.9464,13.9961965,20.9464,13.8783315C20.9464,13.8783315,20.9464,12.6997975,20.9464,12.6997975C20.9464,12.5819315,20.850002,12.4854635,20.732136,12.4854635C20.732136,12.4854635,18.589268,12.4854635,18.589268,12.4854635C18.471401,12.4854635,18.375002,12.5819315,18.375002,12.6997975C18.375002,12.6997975,18.375002,12.6997975,18.375002,12.6997975ZM18.715202,7.4176369C18.715202,7.4176369,17.882133,6.5845966,17.882133,6.5845966C17.841869,6.544723,17.787468,6.5223498,17.730801,6.5223498C17.674135,6.5223498,17.619734,6.544723,17.57947,6.5845966C17.57947,6.5845966,16.0634,8.1006632,16.0634,8.1006632C16.023533,8.140929700000001,16.001133,8.1953301,16.001133,8.251997C16.001133,8.3086629,16.023533,8.3630633,16.0634,8.4033298C16.0634,8.4033298,16.896402,9.2363968,16.896402,9.2363968C16.979467,9.319397,17.116068,9.319397,17.199135,9.2363968C17.199135,9.2363968,18.715202,7.7203164,18.715202,7.7203164C18.798201,7.6372766,18.798201,7.5006709,18.715202,7.4176369C18.715202,7.4176369,18.715202,7.4176369,18.715202,7.4176369ZM6.4312534,6.5845966C6.390974,6.544723,6.336587,6.5223498,6.2799139,6.5223498C6.2232332,6.5223498,6.1688471,6.544723,6.1285734,6.5845966C6.1285734,6.5845966,5.2955337,7.4176369,5.2955337,7.4176369C5.2556601,7.4579101,5.2332869,7.5122967,5.2332869,7.5689769C5.2332869,7.6256504,5.2556601,7.680037,5.2955337,7.7203164C5.2955337,7.7203164,6.8115997,9.2363968,6.8115997,9.2363968C6.8946667,9.319397,7.0312672,9.319397,7.1142669,9.2363968C7.1142669,9.2363968,7.9473338,8.4033298,7.9473338,8.4033298C8.0303345,8.3203301,8.0303345,8.1837301,7.9473338,8.1006632C7.9473338,8.1006632,6.4312534,6.5845966,6.4312534,6.5845966C6.4312534,6.5845966,6.4312534,6.5845966,6.4312534,6.5845966ZM5.3035736,12.4854635C5.3035736,12.4854635,3.1607132,12.4854635,3.1607132,12.4854635C3.0428603,12.4854635,2.9464269,12.5819315,2.9464269,12.6997975C2.9464269,12.6997975,2.9464269,13.8783315,2.9464269,13.8783315C2.9464269,13.9961965,3.0428603,14.0926645,3.1607132,14.0926645C3.1607132,14.0926645,5.3035736,14.0926645,5.3035736,14.0926645C5.4214272,14.0926645,5.5178604,13.9961965,5.5178604,13.8783315C5.5178604,13.8783315,5.5178604,12.6997975,5.5178604,12.6997975C5.5178604,12.5819315,5.4214272,12.4854635,5.3035736,12.4854635C5.3035736,12.4854635,5.3035736,12.4854635,5.3035736,12.4854635Z"/></g></g></svg>