<svg xmlns="http://www.w3.org/2000/svg" xmlns:xlink="http://www.w3.org/1999/xlink"  version="1.1" width="24" height="24" viewBox="0 0 24 24"><defs><clipPath id="master_svg0_112_06079"><rect x="4" y="4" width="16" height="16" rx="0"/></clipPath></defs><g><g clip-path="url(#master_svg0_112_06079)"><g><path d="M9.14288330078125,6.1411887499999995L9.285743300781249,6.1411887499999995L9.285743300781249,7.426898749999999L14.71430330078125,7.426898749999999L14.71430330078125,6.1411887499999995L14.85715330078125,6.1411887499999995C14.77861330078125,6.1411887499999995,14.71430330078125,6.07689875,14.71430330078125,5.99832875L14.71430330078125,6.1411887499999995L9.285743300781249,6.1411887499999995L9.285743300781249,5.99832875C9.285743300781249,6.07689875,9.22145330078125,6.1411887499999995,9.14288330078125,6.1411887499999995ZM16.00008330078125,5.99832875L16.00008330078125,7.426898749999999L18.28568330078125,7.426898749999999C18.60178330078125,7.426898749999999,18.85718330078125,7.68225875,18.85718330078125,7.998328750000001L18.85718330078125,8.56974875C18.85718330078125,8.648328750000001,18.79288330078125,8.71260875,18.71428330078125,8.71260875L17.635683300781253,8.71260875L17.19468330078125,18.05186875C17.16608330078125,18.66266875,16.66428330078125,19.14116875,16.05358330078125,19.14116875L7.946453300781251,19.14116875C7.33752330078125,19.14116875,6.83395330078125,18.66086875,6.80538330078125,18.05186875L6.36431330078125,8.71260875L5.28574030078125,8.71260875C5.20716910078125,8.71260875,5.14288330078125,8.648328750000001,5.14288330078125,8.56974875L5.14288330078125,7.998328750000001C5.14288330078125,7.68225875,5.39824030078125,7.426898749999999,5.71431030078125,7.426898749999999L8.00002330078125,7.426898749999999L8.00002330078125,5.99832875C8.00002330078125,5.36797075,8.51252330078125,4.85546875,9.14288330078125,4.85546875L14.85715330078125,4.85546875C15.48748330078125,4.85546875,16.00008330078125,5.36797075,16.00008330078125,5.99832875ZM8.08395330078125,17.85546875L15.91608330078125,17.85546875L16.348283300781247,8.71260875L7.651813300781249,8.71260875L8.08395330078125,17.85546875ZM10.858003300781249,10.85741875L9.71515330078125,10.85741875L9.71515330078125,15.42886875L10.858003300781249,15.42886875L10.858003300781249,10.85741875ZM14.28574330078125,10.85741875L13.14288330078125,10.85741875L13.14288330078125,15.42886875L14.28574330078125,15.42886875L14.28574330078125,10.85741875Z" /></g></g></g></svg>