<?xml version="1.0" standalone="no"?><!DOCTYPE svg PUBLIC "-//W3C//DTD SVG 1.1//EN" "http://www.w3.org/Graphics/SVG/1.1/DTD/svg11.dtd"><svg t="1743478453507" class="icon" viewBox="0 0 1024 1024" version="1.1" xmlns="http://www.w3.org/2000/svg" p-id="2715" xmlns:xlink="http://www.w3.org/1999/xlink" width="200" height="200"><path d="M711.7824 521.5232a360.8832 360.8832 0 0 0-155.7504-89.7536c51.2-32.2048 85.3504-89.1392 85.3504-153.9584 0-100.1984-81.5104-181.76-181.76-181.76-100.1984 0-181.76 81.5616-181.76 181.76 0 64.8192 34.1504 121.8048 85.3504 153.9584-152.3712 42.2912-264.5504 182.1696-264.5504 347.8016 0 9.1648 0.3584 18.2272 1.024 27.2384 0.8192 10.6496 9.7792 18.8416 20.48 18.8416 11.8784 0 21.2992-10.0864 20.3776-21.9648-0.6144-7.9872-0.9216-16.0256-0.9216-24.1152 0-176.4352 143.5648-320 320-320 86.9376 0 165.8368 34.8672 223.5392 91.2896 3.8912 3.7888 9.0112 5.9904 14.4384 5.9904 18.4832-0.0512 27.392-22.4256 14.1824-35.328zM318.8224 277.76c0-77.6192 63.1808-140.8 140.8-140.8s140.8 63.1808 140.8 140.8-63.1808 140.8-140.8 140.8-140.8-63.1808-140.8-140.8z" fill="#666666" p-id="2716"></path><path d="M750.08 931.84c-100.2496 0-181.76-81.5104-181.76-181.76s81.5104-181.76 181.76-181.76 181.76 81.5104 181.76 181.76-81.5104 181.76-181.76 181.76z m0-322.56c-77.6192 0-140.8 63.1808-140.8 140.8s63.1808 140.8 140.8 140.8 140.8-63.1808 140.8-140.8-63.1808-140.8-140.8-140.8z" fill="#008CFF" p-id="2717"></path><path d="M747.52 762.88c-5.632 0-10.24-4.608-10.24-10.24v-117.76c0-5.632 4.608-10.24 10.24-10.24s10.24 4.608 10.24 10.24v117.76c0 5.632-4.608 10.24-10.24 10.24z" fill="#008CFF" p-id="2718"></path><path d="M849.92 752.64c0 5.632-4.608 10.24-10.24 10.24h-92.16c-5.632 0-10.24-4.608-10.24-10.24s4.608-10.24 10.24-10.24h92.16c5.632 0 10.24 4.608 10.24 10.24z" fill="#008CFF" p-id="2719"></path></svg>