<svg xmlns="http://www.w3.org/2000/svg" xmlns:xlink="http://www.w3.org/1999/xlink" version="1.1" width="16" height="16" viewBox="0 0 16 16"><defs><clipPath id="master_svg0_241_05412"><rect x="0" y="0" width="16" height="16" rx="0"/></clipPath></defs><g clip-path="url(#master_svg0_241_05412)"><g><path d="M3.458937216796875,12.28406875C3.494647216796875,12.28406875,3.530357216796875,12.28046875,3.566077216796875,12.27506875C3.566077216796875,12.27506875,6.569637216796875,11.74826875,6.569637216796875,11.74826875C6.605367216796875,11.74116875,6.639277216796875,11.72506875,6.664307216796875,11.69826875C6.664307216796875,11.69826875,14.233947216796874,4.128678750000001,14.233947216796874,4.128678750000001C14.250447216796875,4.11215875,14.263647216796874,4.09253875,14.272547216796875,4.07093875C14.281547216796875,4.04933875,14.286147216796875,4.02617875,14.286147216796875,4.002788750000001C14.286147216796875,3.97939875,14.281547216796875,3.95624875,14.272547216796875,3.93463875C14.263647216796874,3.91303875,14.250447216796875,3.89341875,14.233947216796874,3.87689875C14.233947216796874,3.87689875,11.266047216796874,0.90725455,11.266047216796874,0.90725455C11.232147216796875,0.87332595,11.187547216796874,0.85546875,11.139247216796875,0.85546875C11.091047216796875,0.85546875,11.046447216796874,0.87332595,11.012547216796875,0.90725455C11.012547216796875,0.90725455,3.442867216796875,8.47688875,3.442867216796875,8.47688875C3.416077216796875,8.50368875,3.400007216796875,8.53582875,3.392867216796875,8.571558750000001C3.392867216796875,8.571558750000001,2.866077216796875,11.57506875,2.866077216796875,11.57506875C2.8487072167968748,11.67076875,2.854907216796875,11.76926875,2.884157216796875,11.86196875C2.913407216796875,11.95466875,2.964817216796875,12.03886875,3.033937216796875,12.10726875C3.151787216796875,12.22156875,3.300007216796875,12.28406875,3.458937216796875,12.28406875C3.458937216796875,12.28406875,3.458937216796875,12.28406875,3.458937216796875,12.28406875ZM4.662507216796875,9.16973875C4.662507216796875,9.16973875,11.139247216796875,2.69474875,11.139247216796875,2.69474875C11.139247216796875,2.69474875,12.448247216796876,4.003678750000001,12.448247216796876,4.003678750000001C12.448247216796876,4.003678750000001,5.971417216796875,10.47866875,5.971417216796875,10.47866875C5.971417216796875,10.47866875,4.383937216796875,10.75902875,4.383937216796875,10.75902875C4.383937216796875,10.75902875,4.662507216796875,9.16973875,4.662507216796875,9.16973875C4.662507216796875,9.16973875,4.662507216796875,9.16973875,4.662507216796875,9.16973875ZM14.571447216796875,13.78406875C14.571447216796875,13.78406875,1.428574216796875,13.78406875,1.428574216796875,13.78406875C1.112504216796875,13.78406875,0.857147216796875,14.03936875,0.857147216796875,14.35546875C0.857147216796875,14.35546875,0.857147216796875,14.99826875,0.857147216796875,14.99826875C0.857147216796875,15.07686875,0.921433016796875,15.14116875,1.000004216796875,15.14116875C1.000004216796875,15.14116875,14.999947216796874,15.14116875,14.999947216796874,15.14116875C15.078547216796874,15.14116875,15.142847216796875,15.07686875,15.142847216796875,14.99826875C15.142847216796875,14.99826875,15.142847216796875,14.35546875,15.142847216796875,14.35546875C15.142847216796875,14.03936875,14.887547216796875,13.78406875,14.571447216796875,13.78406875C14.571447216796875,13.78406875,14.571447216796875,13.78406875,14.571447216796875,13.78406875Z"/></g></g></svg>