<svg xmlns="http://www.w3.org/2000/svg" xmlns:xlink="http://www.w3.org/1999/xlink" fill="none" version="1.1" width="20" height="20" viewBox="0 0 20 20"><defs><clipPath id="master_svg0_52_02668"><rect x="0" y="0" width="20" height="20" rx="0"/></clipPath></defs><g clip-path="url(#master_svg0_52_02668)"><g><path d="M17.6559446875,2.140550937825C17.6559446875,2.140550937825,13.4327776875,2.665104385625,13.4327776875,2.665104385625C13.2854446875,2.6829615856249998,13.2251656875,2.861532685625,13.3278326875,2.9664437756249997C13.3278326875,2.9664437756249997,14.5488316875,4.1874270156249995,14.5488316875,4.1874270156249995C14.5488316875,4.1874270156249995,11.1224994875,7.613765715625,11.1224994875,7.613765715625C11.0892772875,7.647327415625,11.0706100875,7.692649315625,11.0706100875,7.739860515625C11.0706100875,7.787138015625,11.0892772875,7.832416015625,11.1224994875,7.865971515625C11.1224994875,7.865971515625,12.1291656875,8.872694015625001,12.1291656875,8.872694015625001C12.1983866875,8.941916515625,12.3122216875,8.941916515625,12.3813876875,8.872694015625001C12.3813876875,8.872694015625001,15.8099996875,5.444121315625,15.8099996875,5.444121315625C15.8099996875,5.444121315625,17.0309446875,6.665104915625,17.0309446875,6.665104915625C17.0545006875,6.688649215625,17.084221687499998,6.705082915625,17.1167206875,6.712510115625C17.1491646875,6.719943515625,17.1830556875,6.718082915625,17.214555687500003,6.707127115625C17.2459996875,6.696177015625,17.2737216875,6.676588515625,17.2945546875,6.650599515625C17.3153876875,6.624610415625,17.3284436875,6.593277015625,17.3323326875,6.560193515625C17.3323326875,6.560193515625,17.8546106875,2.339211555625,17.8546106875,2.339211555625C17.8583336875,2.312255455625,17.8557216875,2.284809905625,17.8470546875,2.259021575625C17.8383886875,2.233233794625,17.8238326875,2.209803789625,17.804609687499998,2.190564680625C17.7853876875,2.171325459625,17.7619436875,2.156799014625,17.736165687499998,2.148122404725C17.710387687500003,2.139445867795,17.6829436875,2.136854593425,17.6559446875,2.140550937825C17.6559446875,2.140550937825,17.6559446875,2.140550937825,17.6559446875,2.140550937825ZM7.8702764875,11.118248915625C7.8366655875,11.084971415625,7.7913879875,11.066361415625,7.7441100875,11.066361415625C7.6969046875,11.066361415625,7.6515822875,11.084971415625,7.6180214875,11.118248915625C7.6180214875,11.118248915625,4.1916825875,14.546805015625,4.1916825875,14.546805015625C4.1916825875,14.546805015625,2.9706991275,13.325805015625,2.9706991275,13.325805015625C2.9471436175,13.302249015625,2.9174268875,13.285861015625,2.8849602375,13.278416015625C2.8524935875,13.270971015625,2.8185880174999998,13.272860015625,2.7871379875,13.283805015625C2.7556824675,13.294749015625,2.7279491375,13.314361015625,2.7071213675,13.340305015625C2.6862874675,13.366304015625,2.6732013275,13.397638015625,2.6693596875,13.430750015625C2.6693596875,13.430750015625,2.144805943,17.651693015625,2.144805943,17.651693015625C2.1314130765,17.767805015625,2.2273952435,17.863749015625,2.3434663575,17.850360015625C2.3434663575,17.850360015625,6.5666823875,17.325804015625,6.5666823875,17.325804015625C6.7140049875,17.307972015624998,6.7742709875,17.129417015625002,6.6715936875,17.024471015625C6.6715936875,17.024471015625,5.450610187500001,15.803527015625,5.450610187500001,15.803527015625C5.450610187500001,15.803527015625,8.879165687499999,12.374917015625,8.879165687499999,12.374917015625C8.9483880875,12.305750015625,8.9483880875,12.191916015625,8.879165687499999,12.122694015625C8.879165687499999,12.122694015625,7.8702764875,11.118248915625,7.8702764875,11.118248915625C7.8702764875,11.118248915625,7.8702764875,11.118248915625,7.8702764875,11.118248915625Z" fill="#000000" fill-opacity="0.8500000238418579"/></g></g></svg>