<svg xmlns="http://www.w3.org/2000/svg" xmlns:xlink="http://www.w3.org/1999/xlink" fill="none" version="1.1" width="20" height="20" viewBox="0 0 20 20"><defs><clipPath id="master_svg0_52_18662"><rect x="0" y="0" width="20" height="20" rx="0"/></clipPath></defs><g clip-path="url(#master_svg0_52_18662)"><g><path d="M14.732893677001954,3.44398961640625C14.732893677001954,3.44398961640625,14.732893677001954,1.71854460640625,14.732893677001954,1.71854460640625C14.732893677001954,1.56899081740625,14.561006677001954,1.48640142340625,14.444949677001953,1.57791931940625C14.444949677001953,1.57791931940625,4.382423247001953,9.43727871640625,4.382423247001953,9.43727871640625C4.296928267001953,9.50377841640625,4.227748797001953,9.58894541640625,4.180162124001953,9.68622401640625C4.132574957001953,9.78350071640625,4.107837677001952,9.89039041640625,4.107837677001953,9.99866771640625C4.107837677001952,10.10700031640625,4.132574957001953,10.21383471640625,4.180162124001953,10.31116771640625C4.227748797001953,10.40844531640625,4.296928267001953,10.49355701640625,4.382423247001953,10.56005671640625C4.382423247001953,10.56005671640625,14.444949677001953,18.41944481640625,14.444949677001953,18.41944481640625C14.563228677001954,18.51094781640625,14.732893677001954,18.42838881640625,14.732893677001954,18.27883381640625C14.732893677001954,18.27883381640625,14.732893677001954,16.553388816406247,14.732893677001954,16.553388816406247C14.732893677001954,16.44400181640625,14.681505677001953,16.33905781640625,14.596727677001953,16.27211181640625C14.596727677001953,16.27211181640625,6.560993477001953,9.99977871640625,6.560993477001953,9.99977871640625C6.560993477001953,9.99977871640625,14.596727677001953,3.72523971640625,14.596727677001953,3.72523971640625C14.681505677001953,3.65827871640625,14.732893677001954,3.55336741640625,14.732893677001954,3.44398961640625C14.732893677001954,3.44398961640625,14.732893677001954,3.44398961640625,14.732893677001954,3.44398961640625Z" fill="#4E5969" fill-opacity="1"/></g></g></svg>