<svg xmlns="http://www.w3.org/2000/svg" xmlns:xlink="http://www.w3.org/1999/xlink" fill="none" version="1.1" width="20" height="20" viewBox="0 0 20 20"><defs><clipPath id="master_svg0_52_04468"><rect x="0" y="0" width="20" height="20" rx="0"/></clipPath></defs><g clip-path="url(#master_svg0_52_04468)"><g><path d="M7.6697583,1.63756555C7.4030695,1.37921566,7.0693293,1.25,6.7357678,1.25C6.6025133,1.25,6.4692011,1.314594187,6.335835,1.314594187L6.2690015,1.314594187C6.0689869,1.44373663,5.9356909,1.57360977,5.8022351,1.70275244L0.40016568,6.9372582C-0.13338858,7.4542179,-0.13338858,8.2300863,0.40016568,8.6824884C0.66694266,8.940923699999999,1.0003386,9.0700536,1.3336983,9.0700536C1.6672367,9.0700536,2.0007629,8.940923699999999,2.2673836,8.6824884L5.5353589,5.5155916L5.5353746,17.457296C5.5353746,18.168219,6.1357794,18.685181,6.8026991,18.685181C7.4696865,18.685181,8.0698471,18.103401,8.0698471,17.457296L8.0698433,2.6070721C8.0698204,2.2837284,7.9366231,1.8961753799999999,7.6697583,1.63756555ZM19.607777,11.253107C19.341,10.9944096,19.007462,10.865202,18.67399,10.865202C18.340542,10.865202,18.007071,10.9944324,17.740292,11.253107L14.405666,14.48429L14.405598,2.5424778C14.405598,1.83146828,13.805467,1.314594261,13.13866,1.314594261C12.471672,1.314594261,11.871265,1.89620221,11.871265,2.5424778L11.871286,17.521772C11.871286,18.232609,12.471601,18.75,13.138611,18.75C13.472059,18.75,13.805442,18.620445,14.072219,18.362095L19.541126,13.062618C20.141266,12.545723,20.141266,11.770153,19.607777,11.253107Z" fill="#4E5969" fill-opacity="1"/></g></g></svg>