<svg xmlns="http://www.w3.org/2000/svg" xmlns:xlink="http://www.w3.org/1999/xlink" version="1.1" width="16" height="16" viewBox="0 0 16 16"><defs><clipPath id="master_svg0_124_01276"><rect x="0" y="0" width="16" height="16" rx="0"/></clipPath></defs><g clip-path="url(#master_svg0_124_01276)"><g><path d="M11.865984375,0.50766665C11.573984375,0.22666667,11.007984175,0,10.599318475,0L2.667317675,0C1.930984315,0,1.333984375,0.62266666,1.333984375,1.392L1.333984375,14.607999C1.333984375,15.376666,1.932651045,16,2.667317675,16L13.333982375,16C14.070316375,16,14.667316375,15.374666,14.667316375,14.609333L14.667316375,3.9346666C14.667316375,3.5309999,14.427983375,2.973,14.139984375,2.6960001L11.865984375,0.50700009L11.865984375,0.50766665ZM4.733984275,4.3333335L10.600650775,4.3333335C11.005651475,4.3333335,11.333984375,4.7066669,11.333984375,5.166667C11.333984375,5.6266665,11.005651475,6,10.600650775,6L4.733984275,6C4.471984174999999,6,4.229984775,5.8413334,4.098984274999999,5.583333C3.967988275,5.3209996,3.967988275,5.0123339,4.098984274999999,4.7499995C4.229984775,4.4919996,4.472317975,4.333333,4.733984275,4.3333335ZM5.056317575,7L7.944984475,7C8.343984175,7,8.667317875,7.373333,8.667317875,7.833333C8.667317875,8.2933331,8.343984575,8.666666,7.944984475,8.666666L5.056317575,8.666666C4.657317375,8.666667,4.333984375,8.2933331,4.333984375,7.833333C4.333984375,7.373333,4.657318075,7,5.056317575,7Z" /></g></g></svg>