<svg xmlns="http://www.w3.org/2000/svg" xmlns:xlink="http://www.w3.org/1999/xlink" version="1.1" width="24" height="24" viewBox="0 0 24 24"><defs><clipPath id="master_svg0_56_32075"><rect x="0" y="0" width="24" height="24" rx="0"/></clipPath></defs><g clip-path="url(#master_svg0_56_32075)"><g><path d="M5.7000003,20.85L3.8999999,20.85C2.5500001,20.85,1.5,19.800001,1.5,18.450001L1.5,5.5500001999999995C1.5,4.1999999,2.5500001,3,3.8999999,3L16.05,3C17.4,3,18.450001,4.0500001,18.450001,5.3999999L18.450001,7.2000003C18.450001,7.6500001,18.15,7.9500003,17.700001,7.9500003C17.250000999999997,7.9500003,16.950001,7.6500001,16.950001,7.2000003L16.950001,5.5500001999999995C16.950001,4.95,16.500000999999997,4.5,16.05,4.5L3.8999999,4.5C3.45,4.5,3,4.95,3,5.5500001999999995L3,18.450001C3,18.9,3.45,19.35,3.8999999,19.35L5.7000003,19.35C6.1500001,19.35,6.4500003,19.65,6.4500003,20.1C6.4500003,20.550001,6.1500001,20.85,5.7000003,20.85Z"/></g><g><path d="M12.3000245140625,8.85009765625L5.5500243940625005,8.85009765625C5.1000244040625,8.85009765625,4.8000244040625,8.55009755625,4.8000244040625,8.10009765625C4.8000244040625,7.65009763625,5.1000244040625,7.35009765625,5.5500243940625005,7.35009765625L12.150024914062499,7.35009765625C12.6000242140625,7.35009765625,12.9000244140625,7.65009763625,12.9000244140625,8.10009765625C12.9000244140625,8.55009755625,12.6000242140625,8.85009765625,12.3000245140625,8.85009765625ZM10.500024814062499,12.90009785625L5.5500243940625005,12.90009785625C5.1000244040625,12.90009785625,4.8000244040625,12.60009765625,4.8000244040625,12.15009735625C4.8000244040625,11.70009755625,5.1000244040625,11.40009785625,5.5500243940625005,11.40009785625L10.500024814062499,11.40009785625C10.9500246140625,11.40009785625,11.250024814062499,11.70009755625,11.250024814062499,12.15009735625C11.250024814062499,12.60009765625,10.9500246140625,12.90009785625,10.500024814062499,12.90009785625ZM8.1000244140625,16.50009825625L5.4000244140625,16.50009825625C4.9500243940625,16.50009825625,4.6500244140625,16.20009805625,4.6500244140625,15.75009825625C4.6500244140625,15.30009745625,4.9500243940625,15.00009775625,5.4000244140625,15.00009775625L8.2500243140625,15.00009775625C8.7000246140625,15.00009775625,9.0000243140625,15.30009745625,9.0000243140625,15.75009825625C9.0000243140625,16.20009805625,8.5500245140625,16.50009825625,8.1000244140625,16.50009825625ZM21.7500244140625,21.00009765625L8.5500245140625,21.00009765625C8.2500243140625,21.00009765625,8.1000244140625,20.850098656249997,7.9500246140624995,20.55009865625C7.8000245140625,20.25009765625,7.8000245140625,20.100098656249997,7.9500246140624995,19.80009865625L14.5500250140625,8.55009755625C14.8500254140625,8.10009765625,15.6000254140625,8.10009765625,15.9000244140625,8.55009755625L22.5000244140625,19.80009865625C22.6500244140625,20.100098656249997,22.6500244140625,20.25009765625,22.5000244140625,20.55009865625C22.2000254140625,20.850098656249997,22.0500244140625,21.00009765625,21.7500244140625,21.00009765625ZM9.750024814062499,19.50009765625L20.400025414062497,19.50009765625L15.1500244140625,10.50009775625L9.750024814062499,19.50009765625Z"/></g><g><path d="M15.14999998,16.9500003C14.69999999,16.9500003,14.39999999,16.6500001,14.39999999,16.2L14.39999999,13.5C14.39999999,13.04999998,14.69999999,12.75,15.14999998,12.75C15.6,12.75,15.9000001,13.04999998,15.9000001,13.5L15.9000001,16.2C15.9000001,16.6500001,15.6,16.9500003,15.14999998,16.9500003ZM15.14999998,17.4000001C14.69999999,17.4000001,14.25,17.8500004,14.25,18.3000002C14.25,18.75,14.69999999,19.1999998,15.14999998,19.1999998C15.6,19.1999998,16.05,18.75,16.05,18.3000002C15.9000001,17.8500004,15.6,17.4000001,15.14999998,17.4000001Z" /></g></g></svg>