<svg xmlns="http://www.w3.org/2000/svg" xmlns:xlink="http://www.w3.org/1999/xlink" version="1.1" width="24" height="24" viewBox="0 0 24 24"><defs><clipPath id="master_svg0_56_29973"><rect x="0" y="0" width="24" height="24" rx="0"/></clipPath></defs><g style="opacity:1;" clip-path="url(#master_svg0_56_29973)"><g><path d="M15.20013671875,20.08009765625L15.12013671875,20.00009765625C14.76013671875,19.64009765625,14.20013671875,19.52009765625,13.72013671875,19.64009765625C13.20013671875,19.80009765625,12.68013671875,19.88009765625,12.16013671875,19.88009765625C11.60013671875,19.88009765625,11.04013671875,19.80009765625,10.52013671875,19.64009765625C9.96013671875,19.48009765625,9.40013671875,19.72009765625,9.08013671875,20.20009765625C8.88013671875,20.52009765625,8.84013671875,20.92009765625,9.00013671875,21.28009765625C9.16013671875,21.64009765625,9.44013671875,21.92009765625,9.80013671875,22.00009765625C10.56013671875,22.24009765625,11.36013671875,22.36009765625,12.16013671875,22.36009765625C13.00013671875,22.36009765625,13.80013671875,22.24009765625,14.60013671875,22.00009765625C14.96013671875,21.88009765625,15.24013671875,21.60009765625,15.40013671875,21.28009765625C15.52013671875,20.92009765625,15.52013671875,20.52009765625,15.32013671875,20.20009765625L15.20013671875,20.08009765625ZM16.44013671875,9.80009765625C16.84013671875,10.20009765625,17.20013671875,10.64009765625,17.48013671875,11.16009765625C17.76013671875,11.64009765625,17.96013671875,12.16009765625,18.08013671875,12.72009765625C18.20013671875,13.28009765625,18.68013671875,13.68009765625,19.24013671875,13.72009765625L19.28013671875,13.72009765625C19.64013671875,13.72009765625,20.00013671875,13.56009765625,20.24013671875,13.28009765625C20.48013671875,13.00009765625,20.60013671875,12.60009765625,20.52013671875,12.24009765625C20.36013671875,11.44009765625,20.08013671875,10.68009765625,19.68013671875,10.00009765625C19.28013671875,9.28009765625,18.80013671875,8.64009765625,18.20013671875,8.040097656250001C17.92013671875,7.80009765625,17.56013671875,7.64009765625,17.20013671875,7.72009765625C16.84013671875,7.76009765625,16.48013671875,7.96009765625,16.28013671875,8.28009765625C15.96013671875,8.76009765625,16.04013671875,9.40009765625,16.44013671875,9.80009765625ZM5.00013671875,13.64009765625L5.16013671875,13.64009765625C5.72013671875,13.56009765625,6.20013671875,13.12009765625,6.24013671875,12.56009765625C6.32013671875,12.00009765625,6.44013671875,11.44009765625,6.68013671875,10.92009765625C6.92013671875,10.40009765625,7.20013671875,9.92009765625,7.56013671875,9.480097656249999C7.92013671875,9.040097656250001,7.96013671875,8.44009765625,7.60013671875,7.96009765625C7.36013671875,7.64009765625,7.04013671875,7.44009765625,6.64013671875,7.44009765625C6.28013671875,7.44009765625,5.88013671875,7.56009765625,5.64013671875,7.88009765625C5.12013671875,8.480097656249999,4.68013671875,9.160097656249999,4.36013671875,9.92009765625C4.04013671875,10.68009765625,3.84013671875,11.44009765625,3.72013671875,12.28009765625C3.68013671875,12.64009765625,3.80013671875,13.04009765625,4.0801367187499995,13.28009765625C4.36013671875,13.52009765625,4.68013671875,13.64009765625,5.00013671875,13.64009765625ZM9.48013671875,8.76009765625C9.72013671875,9.160097656249999,10.12013671875,9.40009765625,10.56013671875,9.40009765625L13.60013671875,9.40009765625C14.04013671875,9.40009765625,14.48013671875,9.160097656249999,14.68013671875,8.76009765625L16.20013671875,6.12009765625C16.44013671875,5.72009765625,16.44013671875,5.240097656250001,16.20013671875,4.880097656249999L14.68013671875,2.24009765625C14.48013671875,1.84009765625,14.04013671875,1.60009765625,13.60013671875,1.60009765625L10.56013671875,1.60009765625C10.12013671875,1.60009765625,9.68013671875,1.84009765625,9.48013671875,2.24009765625L7.96013671875,4.880097656249999C7.72013671875,5.28009765625,7.72013671875,5.76009765625,7.96013671875,6.12009765625L9.48013671875,8.76009765625ZM10.04013671875,5.52009765625L11.04013671875,3.76009765625L13.08013671875,3.76009765625L14.08013671875,5.52009765625L13.08013671875,7.28009765625L11.04013671875,7.28009765625L10.04013671875,5.52009765625ZM7.08013671875,15.00009765625C6.84013671875,14.60009765625,6.44013671875,14.36009765625,6.00013671875,14.36009765625L2.92013671875,14.36009765625C2.48013671875,14.36009765625,2.04013671875,14.60009765625,1.84013671875,15.00009765625L0.32013671875,17.64009765625C0.08013671875,18.04009765625,0.08013671875,18.52009765625,0.32013671875,18.88009765625L1.84013671875,21.52009765625C2.08013671875,21.92009765625,2.48013671875,22.16009765625,2.92013671875,22.16009765625L6.00013671875,22.16009765625C6.44013671875,22.16009765625,6.88013671875,21.92009765625,7.08013671875,21.52009765625L8.60013671875,18.88009765625C8.84013671875,18.48009765625,8.84013671875,18.00009765625,8.60013671875,17.64009765625L7.08013671875,15.00009765625ZM6.52013671875,18.24009765625L5.52013671875,20.00009765625L3.44013671875,20.00009765625L2.44013671875,18.24009765625L3.44013671875,16.480097656250003L5.48013671875,16.480097656250003L6.52013671875,18.24009765625ZM23.68013671875,17.80009765625L22.16013671875,15.16009765625C21.92013671875,14.76009765625,21.52013671875,14.52009765625,21.08013671875,14.52009765625L18.00013671875,14.52009765625C17.56013671875,14.52009765625,17.12013671875,14.76009765625,16.92013671875,15.16009765625L15.40013671875,17.80009765625C15.16013671875,18.20009765625,15.16013671875,18.68009765625,15.40013671875,19.04009765625L16.92013671875,21.68009765625C17.16013671875,22.08009765625,17.56013671875,22.32009765625,18.00013671875,22.32009765625L21.04013671875,22.32009765625C21.48013671875,22.32009765625,21.92013671875,22.08009765625,22.12013671875,21.68009765625L23.64013671875,19.04009765625C23.92013671875,18.64009765625,23.88013671875,18.16009765625,23.68013671875,17.80009765625ZM21.60013671875,18.40009765625L20.60013671875,20.16009765625L18.52013671875,20.16009765625L17.48013671875,18.40009765625L18.48013671875,16.64009765625L20.52013671875,16.64009765625L21.60013671875,18.40009765625Z"/></g></g></svg>