<?xml version="1.0" standalone="no"?><!DOCTYPE svg PUBLIC "-//W3C//DTD SVG 1.1//EN" "http://www.w3.org/Graphics/SVG/1.1/DTD/svg11.dtd"><svg t="1745170761822" class="icon" viewBox="0 0 1024 1024" version="1.1" xmlns="http://www.w3.org/2000/svg" p-id="2380" xmlns:xlink="http://www.w3.org/1999/xlink" width="200" height="200"><path d="M479.6416 126.976c104.0384 0 188.6208 84.5824 188.6208 188.6208 0 27.2384-5.9392 53.248-16.384 76.8h70.0416c7.5776-24.1664 11.8784-49.9712 11.8784-76.8C733.7984 175.3088 619.9296 61.44 479.6416 61.44S225.4848 175.3088 225.4848 315.5968c0 84.3776 41.1648 159.3344 104.448 205.4144C189.6448 578.7648 85.4016 706.56 61.44 860.9792h66.3552c13.5168-74.3424 49.3568-142.7456 104.0384-197.4272 50.5856-50.5856 113.0496-84.992 181.0432-100.5568 1.6384-0.4096 3.072-0.6144 4.5056-1.024V493.568c-73.5232-25.8048-126.3616-95.8464-126.3616-178.176 0-103.8336 84.5824-188.416 188.6208-188.416z" p-id="2381"></path><path d="M756.3264 505.0368c77.6192 0 140.6976 63.0784 140.6976 140.6976 0 33.792-19.0464 76.5952-56.5248 127.1808-24.9856 33.792-55.296 66.7648-84.1728 96.4608-70.0416-71.68-140.6976-153.3952-140.6976-223.8464 0-77.4144 63.0784-140.4928 140.6976-140.4928m0-65.536c-113.8688 0-206.2336 92.3648-206.2336 206.2336S663.3472 869.5808 756.3264 962.56C836.8128 882.0736 962.56 759.6032 962.56 645.7344s-92.3648-206.2336-206.2336-206.2336z" fill="#0074FF" p-id="2382"></path></svg>