<svg xmlns="http://www.w3.org/2000/svg" xmlns:xlink="http://www.w3.org/1999/xlink" version="1.1" width="16" height="16" viewBox="0 0 16 16"><defs><clipPath id="master_svg0_52_21156"><rect x="0" y="0" width="16" height="16" rx="0"/></clipPath></defs><g clip-path="url(#master_svg0_52_21156)"><g><path d="M1,2L1,2Q1,1.9015085699999998,1.019214718,1.80490965Q1.038429435,1.70831072,1.076120459,1.61731648Q1.11381148,1.5263223099999998,1.16853037,1.44442973Q1.22324926,1.36253715,1.2928932,1.2928932Q1.36253715,1.22324926,1.44442976,1.16853037Q1.5263223099999998,1.11381148,1.61731648,1.076120459Q1.70831072,1.038429435,1.80490965,1.019214718Q1.9015085699999998,1,2,1L14,1Q14.098492,1,14.195089,1.019214718Q14.291689,1.038429435,14.382683,1.076120459Q14.473676,1.11381148,14.555569,1.16853037Q14.637461,1.22324926,14.707106,1.2928932Q14.776749,1.36253715,14.831469,1.44442976Q14.886187,1.5263223099999998,14.923878,1.61731648Q14.961569,1.70831072,14.980784,1.80490965Q14.999999,1.9015085699999998,15,2L15,2Q14.999999,2.0984913,14.980783,2.1950902Q14.961569,2.291689,14.923878,2.3826833Q14.886187,2.4736773999999997,14.831469,2.5555699Q14.776749,2.6374626,14.707106,2.7071066Q14.637461,2.7767504,14.555568,2.8314693Q14.473675,2.8861882999999997,14.382682,2.9238793999999997Q14.291688,2.9615704000000003,14.195089,2.9807851000000003Q14.098492,2.9999998999999997,14,3L2,3Q1.9015085699999998,2.9999998999999997,1.80490965,2.9807851000000003Q1.70831072,2.9615703,1.61731648,2.9238793000000003Q1.5263223099999998,2.8861882999999997,1.44442973,2.8314693Q1.36253715,2.7767504,1.2928932,2.7071066Q1.22324926,2.6374626,1.16853037,2.5555699Q1.11381148,2.4736773999999997,1.076120459,2.3826833Q1.038429435,2.291689,1.019214718,2.1950902Q1,2.0984913,1,2ZM1,6L1,6Q1,5.9015083,1.019214718,5.8049097Q1.038429435,5.7083101,1.076120459,5.6173162Q1.11381148,5.5263219,1.16853037,5.4444294Q1.22324926,5.3625364,1.2928932,5.2928929Q1.36253715,5.223249,1.44442976,5.1685305Q1.5263223099999998,5.1138115,1.61731648,5.0761204Q1.70831072,5.0384293,1.80490965,5.0192146Q1.9015085699999998,5,2,5L14,5Q14.098492,5,14.195089,5.0192146Q14.291689,5.0384293,14.382683,5.0761204Q14.473676,5.1138115,14.555569,5.16853Q14.637461,5.223249,14.707106,5.2928929Q14.776749,5.3625364,14.831469,5.4444294Q14.886187,5.5263219,14.923878,5.6173162Q14.961569,5.7083101,14.980784,5.8049097Q14.999999,5.9015083,15,6L15,6Q14.999999,6.0984912,14.980783,6.1950898Q14.961569,6.2916889,14.923878,6.3826828Q14.886187,6.4736772,14.831469,6.5555696Q14.776749,6.6374626,14.707106,6.7071066Q14.637461,6.7767506,14.555568,6.8314691Q14.473675,6.8861876,14.382682,6.9238791Q14.291688,6.9615698,14.195089,6.9807849Q14.098492,7,14,7L2,7Q1.9015085699999998,7,1.80490965,6.9807849Q1.70831072,6.9615698,1.61731648,6.9238791Q1.5263223099999998,6.8861876,1.44442973,6.8314691Q1.36253715,6.7767506,1.2928932,6.7071066Q1.22324926,6.6374626,1.16853037,6.5555701Q1.11381148,6.4736772,1.076120459,6.3826828Q1.038429435,6.2916889,1.019214718,6.1950903Q1,6.0984912,1,6ZM1,10L1,10Q1,9.9015083,1.019214718,9.8049088Q1.038429435,9.7083092,1.076120459,9.6173153Q1.11381148,9.5263214,1.16853037,9.4444284Q1.22324926,9.3625355,1.2928932,9.2928925Q1.36253715,9.2232485,1.44442976,9.1685295Q1.5263223099999998,9.1138115,1.61731648,9.0761204Q1.70831072,9.0384293,1.80490965,9.0192146Q1.9015085699999998,9,2,9L14,9Q14.098492,9,14.195089,9.0192146Q14.291689,9.0384293,14.382683,9.0761204Q14.473676,9.1138115,14.555569,9.1685295Q14.637461,9.2232485,14.707106,9.2928925Q14.776749,9.3625355,14.831469,9.4444284Q14.886187,9.5263214,14.923878,9.6173153Q14.961569,9.7083092,14.980784,9.8049088Q14.999999,9.9015083,15,10L15,10Q14.999999,10.0984917,14.980783,10.1950893Q14.961569,10.2916889,14.923878,10.3826828Q14.886187,10.4736767,14.831469,10.5555696Q14.776749,10.6374626,14.707106,10.7071066Q14.637461,10.7767506,14.555568,10.8314686Q14.473675,10.8861876,14.382682,10.9238787Q14.291688,10.9615698,14.195089,10.9807854Q14.098492,11,14,11L2,11Q1.9015085699999998,11,1.80490965,10.9807854Q1.70831072,10.9615698,1.61731648,10.9238787Q1.5263223099999998,10.8861876,1.44442973,10.8314686Q1.36253715,10.7767506,1.2928932,10.7071066Q1.22324926,10.6374626,1.16853037,10.5555687Q1.11381148,10.4736767,1.076120459,10.3826828Q1.038429435,10.2916889,1.019214718,10.1950893Q1,10.0984917,1,10ZM1,14L1,14Q1,13.901508,1.019214718,13.804909Q1.038429435,13.708309,1.076120459,13.617315Q1.11381148,13.526321,1.16853037,13.444428Q1.22324926,13.362535,1.2928932,13.292892Q1.36253715,13.223248,1.44442976,13.168529Q1.5263223099999998,13.11381,1.61731648,13.076119Q1.70831072,13.038429,1.80490965,13.019214Q1.9015085699999998,13,2,13L14,13Q14.098492,13,14.195089,13.019215Q14.291689,13.038429,14.382683,13.076119Q14.473676,13.11381,14.555569,13.16853Q14.637461,13.223248,14.707106,13.292892Q14.776749,13.362535,14.831469,13.444427Q14.886187,13.526321,14.923878,13.617315Q14.961569,13.708309,14.980784,13.804909Q14.999999,13.901508,15,14L15,14Q14.999999,14.098492,14.980783,14.195089Q14.961569,14.291689,14.923878,14.382683Q14.886187,14.473676,14.831469,14.555569Q14.776749,14.637461,14.707106,14.707106Q14.637461,14.776749,14.555568,14.831469Q14.473675,14.886187,14.382682,14.923878Q14.291688,14.961569,14.195089,14.980784Q14.098492,14.999999,14,15L2,15Q1.9015085699999998,14.999999,1.80490965,14.980783Q1.70831072,14.961569,1.61731648,14.923878Q1.5263223099999998,14.886187,1.44442973,14.831469Q1.36253715,14.776749,1.2928932,14.707106Q1.22324926,14.637461,1.16853037,14.555568Q1.11381148,14.473675,1.076120459,14.382682Q1.038429435,14.291688,1.019214718,14.195089Q1,14.098492,1,14Z" /></g></g></svg>