<svg xmlns="http://www.w3.org/2000/svg" xmlns:xlink="http://www.w3.org/1999/xlink"  version="1.1" width="16" height="16" viewBox="0 0 16 16"><defs><clipPath id="master_svg0_52_21165"><rect x="0" y="0" width="16" height="16" rx="0"/></clipPath></defs><g clip-path="url(#master_svg0_52_21165)"><g><rect x="1" y="1" width="5" height="14" rx="1"/></g><g><path d="M7,1.77777779L7,1.77777779Q7,1.7011733100000002,7.014944779,1.62604082Q7.029889558,1.55090833,7.059204798,1.48013505Q7.088520035,1.40936178,7.13107917,1.34566754Q7.17363831,1.2819733,7.22780582,1.22780582Q7.2819733,1.17363831,7.34566754,1.13107918Q7.40936181,1.088520035,7.48013508,1.0592047980000001Q7.55090833,1.029889558,7.62604082,1.014944779Q7.70117331,1,7.77777779,1L14.2222223,1Q14.2988262,1,14.3739586,1.014944779Q14.449091,1.029889558,14.5198641,1.0592047980000001Q14.5906372,1.088520035,14.6543312,1.13107917Q14.7180262,1.17363831,14.772193900000001,1.22780582Q14.8263617,1.2819733,14.8689203,1.34566754Q14.911479,1.40936181,14.940794499999999,1.48013508Q14.9701095,1.55090833,14.9850545,1.62604082Q14.999999500000001,1.7011733100000002,15,1.77777779L15,1.77777779Q14.999999500000001,1.85438222,14.9850545,1.92951465Q14.9701095,2.0046470999999997,14.940794,2.0754204Q14.911479,2.1461936,14.8689194,2.2098879Q14.8263607,2.2735822,14.772193399999999,2.3277497Q14.7180262,2.3819171,14.6543312,2.4244760999999997Q14.5906372,2.4670353,14.5198641,2.4963505Q14.449091,2.5256658,14.3739586,2.5406106Q14.2988262,2.5555555,14.2222223,2.5555556L7.77777779,2.5555556Q7.70117331,2.5555555,7.62604082,2.5406106Q7.55090833,2.5256658,7.48013505,2.4963505Q7.40936178,2.4670353,7.34566754,2.4244760999999997Q7.2819733,2.3819171,7.22780582,2.3277497Q7.17363831,2.2735822,7.13107918,2.2098879Q7.088520035,2.1461936,7.059204798,2.0754204Q7.029889558,2.0046470999999997,7.014944779,1.92951465Q7,1.85438222,7,1.77777779ZM7,5.9257269L7,5.9257269Q7,5.8491225,7.014944779,5.7739902Q7.029889558,5.6988573,7.059204798,5.6280842Q7.088520035,5.5573106,7.13107917,5.4936161Q7.17363831,5.4299221,7.22780582,5.3757548Q7.2819733,5.3215871,7.34566754,5.2790279Q7.40936181,5.2364688,7.48013508,5.2071538Q7.55090833,5.1778383,7.62604082,5.1628938Q7.70117331,5.1479492,7.77777779,5.1479492L14.2222223,5.1479492Q14.2988262,5.1479492,14.3739586,5.1628938Q14.449091,5.1778383,14.5198641,5.2071533Q14.5906372,5.2364683,14.6543312,5.2790279Q14.7180262,5.3215871,14.772193900000001,5.3757548Q14.8263617,5.4299221,14.8689203,5.4936161Q14.911479,5.5573101,14.940794499999999,5.6280837Q14.9701095,5.6988573,14.9850545,5.7739897Q14.999999500000001,5.8491225,15,5.9257269L15,5.9257269Q14.999999500000001,6.0023308,14.9850545,6.0774632Q14.9701095,6.1525955,14.940794,6.2233691Q14.911479,6.2941427,14.8689194,6.3578367Q14.8263607,6.4215307,14.772193399999999,6.4756985Q14.7180262,6.5298662,14.6543312,6.5724254Q14.5906372,6.6149845,14.5198641,6.6442995Q14.449091,6.6736145,14.3739586,6.6885595Q14.2988262,6.7035046,14.2222223,6.7035046L7.77777779,6.7035046Q7.70117331,6.7035046,7.62604082,6.6885595Q7.55090833,6.6736145,7.48013505,6.644299Q7.40936178,6.614984,7.34566754,6.5724249Q7.2819733,6.5298662,7.22780582,6.4756985Q7.17363831,6.4215307,7.13107918,6.3578367Q7.088520035,6.2941427,7.059204798,6.2233691Q7.029889558,6.1525955,7.014944779,6.0774632Q7,6.0023308,7,5.9257269ZM7,10.0741644L7,10.0741644Q7,9.9975605,7.014944779,9.9224281Q7.029889558,9.8472948,7.059204798,9.7765207Q7.088520035,9.7057476,7.13107917,9.6420536Q7.17363831,9.5783596,7.22780582,9.5241919Q7.2819733,9.4700241,7.34566754,9.4274654Q7.40936181,9.3849068,7.48013508,9.3555908Q7.55090833,9.3262758,7.62604082,9.3113308Q7.70117331,9.2963867,7.77777779,9.2963867L14.2222223,9.2963867Q14.2988262,9.2963867,14.3739586,9.3113317Q14.449091,9.3262758,14.5198641,9.3555908Q14.5906372,9.3849068,14.6543312,9.4274654Q14.7180262,9.4700251,14.772193900000001,9.5241928Q14.8263617,9.5783596,14.8689203,9.6420546Q14.911479,9.7057486,14.940794499999999,9.7765217Q14.9701095,9.8472958,14.9850545,9.9224281Q14.999999500000001,9.9975605,15,10.0741644L15,10.0741644Q14.999999500000001,10.1507683,14.9850545,10.2259007Q14.9701095,10.301033,14.940794,10.3718061Q14.911479,10.4425793,14.8689194,10.5062733Q14.8263607,10.5699673,14.772193399999999,10.624136Q14.7180262,10.6783028,14.6543312,10.7208624Q14.5906372,10.7634211,14.5198641,10.7927361Q14.449091,10.822052,14.3739586,10.8369961Q14.2988262,10.8519421,14.2222223,10.8519421L7.77777779,10.8519421Q7.70117331,10.8519421,7.62604082,10.8369961Q7.55090833,10.822052,7.48013505,10.7927361Q7.40936178,10.7634211,7.34566754,10.7208624Q7.2819733,10.6783028,7.22780582,10.624136Q7.17363831,10.5699673,7.13107918,10.5062733Q7.088520035,10.4425793,7.059204798,10.3718061Q7.029889558,10.301033,7.014944779,10.2259007Q7,10.1507683,7,10.0741644ZM7,14.222114L7,14.222114Q7,14.145508,7.014944779,14.070375Q7.029889558,13.995242,7.059204798,13.924469Q7.088520035,13.853695,7.13107917,13.790001Q7.17363831,13.726308,7.22780582,13.672141Q7.2819733,13.617973,7.34566754,13.575415Q7.40936181,13.532855,7.48013508,13.50354Q7.55090833,13.474225,7.62604082,13.45928Q7.70117331,13.444336,7.77777779,13.444336L14.2222223,13.444336Q14.2988262,13.444336,14.3739586,13.459281Q14.449091,13.474225,14.5198641,13.50354Q14.5906372,13.532855,14.6543312,13.575414Q14.7180262,13.617973,14.772193900000001,13.672141Q14.8263617,13.726308,14.8689203,13.790002Q14.911479,13.853695,14.940794499999999,13.924469Q14.9701095,13.995242,14.9850545,14.070375Q14.999999500000001,14.145508,15,14.222114L15,14.222114Q14.999999500000001,14.298717,14.9850545,14.37385Q14.9701095,14.448981,14.940794,14.519754Q14.911479,14.590528,14.8689194,14.654222Q14.8263607,14.717916,14.772193399999999,14.772085Q14.7180262,14.826252,14.6543312,14.868811Q14.5906372,14.911369,14.5198641,14.940685Q14.449091,14.97,14.3739586,14.984945Q14.2988262,14.99989,14.2222223,14.999891L7.77777779,14.999891Q7.70117331,14.99989,7.62604082,14.984945Q7.55090833,14.97,7.48013505,14.940685Q7.40936178,14.911369,7.34566754,14.868811Q7.2819733,14.826252,7.22780582,14.772085Q7.17363831,14.717916,7.13107918,14.654222Q7.088520035,14.590528,7.059204798,14.519754Q7.029889558,14.448981,7.014944779,14.373849Q7,14.298717,7,14.222114Z" /></g></g></svg>