<svg xmlns="http://www.w3.org/2000/svg" xmlns:xlink="http://www.w3.org/1999/xlink" version="1.1" width="16" height="16" viewBox="0 0 16 16"><defs><clipPath id="master_svg0_210_18258"><rect x="0" y="0" width="16" height="16" rx="0"/></clipPath></defs><g clip-path="url(#master_svg0_210_18258)"><g><path d="M14.71968430078125,12.379915C14.71968430078125,12.379915,13.75897330078125,12.379915,13.75897330078125,12.379915C13.68395030078125,12.379915,13.62146230078125,12.442404,13.62146230078125,12.517425C13.62146230078125,12.517425,13.62146230078125,13.620981,13.62146230078125,13.620981C13.62146230078125,13.620981,2.37681230078125,13.620981,2.37681230078125,13.620981C2.37681230078125,13.620981,2.37681230078125,2.374554,2.37681230078125,2.374554C2.37681230078125,2.374554,13.62323930078125,2.374554,13.62323930078125,2.374554C13.62323930078125,2.374554,13.62323930078125,3.4781272,13.62323930078125,3.4781272C13.62323930078125,3.5531273,13.68572830078125,3.6156251,13.76075030078125,3.6156251C13.76075030078125,3.6156251,14.72146230078125,3.6156251,14.72146230078125,3.6156251C14.79643930078125,3.6156251,14.85897330078125,3.5549095,14.85897330078125,3.4781272C14.85897330078125,3.4781272,14.85897330078125,1.68883836,14.85897330078125,1.68883836C14.85897330078125,1.38526767,14.61430630078125,1.140625,14.31075130078125,1.140625C14.31075130078125,1.140625,1.69109666078125,1.140625,1.69109666078125,1.140625C1.38752597078125,1.140625,1.14288330078125,1.38526767,1.14288330078125,1.68883836C1.14288330078125,1.68883836,1.14288330078125,14.306714,1.14288330078125,14.306714C1.14288330078125,14.610271,1.38752597078125,14.854893,1.69109666078125,14.854893C1.69109666078125,14.854893,14.30897230078125,14.854893,14.30897230078125,14.854893C14.61252930078125,14.854893,14.85715130078125,14.610271,14.85715130078125,14.306714C14.85715130078125,14.306714,14.85715130078125,12.517425,14.85715130078125,12.517425C14.85715130078125,12.440625,14.79466130078125,12.379915,14.71968430078125,12.379915C14.71968430078125,12.379915,14.71968430078125,12.379915,14.71968430078125,12.379915ZM15.05181730078125,7.8852477C15.05181730078125,7.8852477,12.51790530078125,5.8852477,12.51790530078125,5.8852477C12.42323930078125,5.8102698,12.28572730078125,5.8781366,12.28572730078125,5.9977813C12.28572730078125,5.9977813,12.28572730078125,7.3548918,12.28572730078125,7.3548918C12.28572730078125,7.3548918,6.67861750078125,7.3548918,6.67861750078125,7.3548918C6.60003900078125,7.3548918,6.53572800078125,7.4192028,6.53572800078125,7.4977813C6.53572800078125,7.4977813,6.53572800078125,8.4977813,6.53572800078125,8.4977813C6.53572800078125,8.576358800000001,6.60003900078125,8.640625499999999,6.67861750078125,8.640625499999999C6.67861750078125,8.640625499999999,12.28572730078125,8.640625499999999,12.28572730078125,8.640625499999999C12.28572730078125,8.640625499999999,12.28572730078125,9.9977818,12.28572730078125,9.9977818C12.28572730078125,10.1174259,12.42501730078125,10.1852484,12.51790530078125,10.1102695C12.51790530078125,10.1102695,15.05181730078125,8.110269500000001,15.05181730078125,8.110269500000001C15.06888430078125,8.0968919,15.08270630078125,8.0798254,15.09221730078125,8.0603585C15.10168430078125,8.0408478,15.10661730078125,8.0194702,15.10661730078125,7.9977813C15.10661730078125,7.9760919,15.10168430078125,7.9546695,15.09221730078125,7.9352031C15.08270630078125,7.9156923,15.06888430078125,7.8986254,15.05181730078125,7.8852477C15.05181730078125,7.8852477,15.05181730078125,7.8852477,15.05181730078125,7.8852477Z"/></g></g></svg>