<svg xmlns="http://www.w3.org/2000/svg" xmlns:xlink="http://www.w3.org/1999/xlink" version="1.1" width="54" height="48" viewBox="0 0 54 48"><defs><clipPath id="master_svg0_56_29953"><rect x="0" y="0" width="54" height="48" rx="0"/></clipPath><linearGradient x1="-0.25" y1="0.10023193061351776" x2="0.9101992878897434" y2="0.8517655040117713" id="master_svg1_40_07187"><stop offset="0%" stop-color="#1890FF" stop-opacity="1"/><stop offset="100%" stop-color="#006BFC" stop-opacity="1"/></linearGradient><radialGradient cx="0" cy="0" r="1" gradientUnits="userSpaceOnUse" id="master_svg2_40_07188" gradientTransform="translate(11 11.499511256934966) rotate(43.252534256651764) scale(39.13004100597291 46.20705995259532)"><stop offset="0%" stop-color="#E93FBA" stop-opacity="1"/><stop offset="35.55208444595337%" stop-color="#915AC8" stop-opacity="1"/><stop offset="100%" stop-color="#6F2CB3" stop-opacity="0"/></radialGradient><radialGradient cx="0" cy="0" r="1" gradientUnits="userSpaceOnUse" id="master_svg3_40_07189" gradientTransform="translate(50 41.905082407531154) rotate(36.22492422577806) scale(29.75071442968686 35.131398024225085)"><stop offset="0%" stop-color="#3BC1FF" stop-opacity="1"/><stop offset="100%" stop-color="#4FE8FF" stop-opacity="0"/></radialGradient><linearGradient x1="0.140625" y1="0.08302914351224899" x2="0.2623020123822178" y2="0.23965160774495456" id="master_svg4_40_07190"><stop offset="24.285714328289032%" stop-color="#FFA72E" stop-opacity="1"/><stop offset="100%" stop-color="#A42EFF" stop-opacity="0"/></linearGradient></defs><g clip-path="url(#master_svg0_56_29953)"><g><g><path d="M3.18019,17.72341171875C1.004318,21.64861171875,1.831798,25.95111171875,5.70683,28.61961171875Q9.00329,30.88961171875,14.8659,30.83041171875Q15.0238,33.574111718750004,17.1556,34.77821171875Q19.2875,35.98231171875,23.3933,35.64671171875Q25.1895,37.18641171875,26.4726,39.43671171875Q27.7556,41.68701171875,28.5255,44.64791171875L32.394400000000005,44.64791171875L31.4469,39.04191171875C32.7102,39.67361171875,37.0529,41.01591171875,40.8428,38.41031171875Q43.0218,36.91221171875,44.4748,33.98871171875C47.4548,32.56071171875,50.0019,30.23201171875,50.0019,27.04041171875Q50.0019,23.40841171875,48.2648,20.48691171875Q48.1266,16.55881171875,47.0804,14.48621171875Q46.0343,12.41358171875,44.0801,12.19644171875Q42.4417,8.58415171875,40.1322,7.38005171875Q37.8227,6.17596171875,34.8421,7.3800617187499995Q32.6707,4.69550571875,30.1046,4.14280471875Q27.5385,3.59010371875,24.8145,5.16925171875Q22.7813,4.18228271875,20.5508,4.77446271875Q18.3203,5.3666417187499995,15.8134,7.93275171875Q12.4182,6.78787171875,9.89156,8.48545171875Q7.36493,10.18303171875,5.70683,14.95991171875Q4.1869,15.90741171875,3.18019,17.72341171875Z" fill="#FFFFFF" fill-opacity="1"/><path d="M2.30559,17.23861171875Q3.29641,15.45131171875,4.75235,14.39741171875Q4.813829999999999,14.35291171875,4.8762,14.30971171875Q6.61946,9.47915171875,9.333870000000001,7.655401718749999Q11.90309,5.92921171875,15.1817,6.71071171875Q15.3563,6.752341718749999,15.533,6.8010917187499995Q17.999200000000002,4.41723971875,20.2942,3.80794471875Q22.3983,3.24934271875,24.3556,3.90326191875Q24.5616,3.97208511875,24.766,4.05434621875Q24.8021,4.03549821875,24.838,4.01703501875Q24.8705,4.00035873675,24.9031,3.98388601875Q27.6558,2.59244171875,30.3152,3.16522271875Q32.8624,3.71385771875,35.0132,6.04789171875Q35.0832,6.12392171875,35.1529,6.20193171875Q38.1521,5.21995171875,40.5945,6.4933317187499995Q43.0362,7.76636171875,44.7506,11.27321171875Q44.7567,11.285671718749999,44.7637,11.30005171875Q46.8356,11.782041718750001,47.9732,14.03561171875Q49.0467,16.16251171875,49.242,19.940711718750002Q49.2487,20.06911171875,49.2543,20.19931171875Q51.0019,23.27121171875,51.0019,27.04041171875Q51.0019,31.66191171875,45.645,34.517611718750004Q45.4338,34.630211718750004,45.2143,34.74001171875Q43.6844,37.67021171875,41.4093,39.23431171875Q38.6654,41.12081171875,35.1457,40.93871171875Q33.951499999999996,40.87701171875,32.915,40.62641171875Q32.817099999999996,40.60271171875,32.720600000000005,40.57731171875L33.577600000000004,45.64791171875L27.7522,45.64791171875L27.5577,44.89951171875Q26.8212,42.06701171875,25.6039,39.93201171875Q24.5565,38.09511171875,23.1513,36.77321171875Q23.0986,36.72361171875,23.0454,36.67481171875Q18.9449,36.93731171875,16.663800000000002,35.64891171875Q14.5456,34.45251171875,14.0235,32.05721171875Q13.9986,31.94291171875,13.9773,31.82581171875Q8.43407,31.71181171875,5.139670000000001,29.44321171875Q1.9449204,27.24321171875,1.197918,23.85821171875Q0.4684299999999999,20.55271171875,2.30559,17.23861171875ZM3.18019,17.72341171875Q4.1869,15.90741171875,5.70683,14.95991171875Q7.36493,10.18303171875,9.89156,8.48545171875Q12.4182,6.78787171875,15.8134,7.93275171875Q18.3203,5.3666417187499995,20.5508,4.77446271875Q22.7813,4.18228271875,24.8145,5.16925171875Q27.5385,3.59010371875,30.1046,4.14280471875Q32.6707,4.69550571875,34.8421,7.3800617187499995Q37.8227,6.17596171875,40.1322,7.38005171875Q42.4417,8.58415171875,44.0801,12.19644171875Q46.0343,12.41358171875,47.0804,14.48621171875Q48.1266,16.55881171875,48.2648,20.48691171875Q50.0019,23.40841171875,50.0019,27.04041171875C50.0019,30.23201171875,47.4548,32.56071171875,44.4748,33.98871171875Q43.0218,36.91221171875,40.8428,38.41031171875C37.804,40.49951171875,34.4098,40.05061171875,32.5326,39.46501171875C32.0686,39.32021171875,31.6973,39.16711171875,31.4469,39.04191171875L31.647,40.22591171875L32.2254,43.64791171875L32.394400000000005,44.64791171875L28.5255,44.64791171875Q27.7556,41.68701171875,26.4726,39.43671171875Q25.1895,37.18641171875,23.3933,35.64671171875Q19.2875,35.98231171875,17.1556,34.77821171875Q15.0238,33.574111718750004,14.8659,30.83041171875Q9.00329,30.88961171875,5.70683,28.61961171875C1.831798,25.95111171875,1.004318,21.64861171875,3.18019,17.72341171875Z" fill-rule="evenodd" fill="#FFFFFF" fill-opacity="1"/></g><g><path d="M25.6038,21.35531171875L32.4738,21.35531171875L32.4738,22.30281171875L25.6627,22.30281171875Q25.2356,22.40921171875,24.5308,22.57961171875Q22.3163,23.11501171875,21.5189,23.50321171875Q20.4403,24.02841171875,18.738,25.57491171875Q16.176299999999998,27.90201171875,14.9765,31.71841171875Q15.2301,32.99421171875,16.005200000000002,33.86321171875L22.6756,27.11961171875L32.0781,27.11961171875L37.0527,22.37111171875L37.0527,17.30901171875Q36.9739,17.274611718750002,36.9009,17.22921171875Q36.8278,17.18391171875,36.7621,17.12841171875Q36.6964,17.07291171875,36.6394,17.00851171875Q36.5824,16.944211718749997,36.5353,16.872211718750002Q36.4882,16.800311718750002,36.452,16.72231171875Q36.4158,16.64431171875,36.3912,16.56201171875Q36.3666,16.47961171875,36.3542,16.39451171875Q36.3418,16.30941171875,36.3418,16.22341171875Q36.3418,16.16521171875,36.3475,16.107311718749997Q36.3532,16.04941171875,36.3645,15.99241171875Q36.3759,15.93531171875,36.3928,15.87961171875Q36.4097,15.82391171875,36.4319,15.77021171875Q36.4542,15.71641171875,36.4816,15.66511171875Q36.5091,15.61381171875,36.5414,15.56541171875Q36.5737,15.51701171875,36.6106,15.47211171875Q36.6475,15.42711171875,36.6887,15.38591171875Q36.7298,15.34481171875,36.7748,15.30791171875Q36.8198,15.27101171875,36.8682,15.23861171875Q36.9165,15.20631171875,36.9679,15.17891171875Q37.0192,15.15151171875,37.0729,15.12921171875Q37.1267,15.10691171875,37.1824,15.09001171875Q37.238,15.07321171875,37.2951,15.06181171875Q37.3522,15.05051171875,37.4101,15.04481171875Q37.468,15.03911171875,37.5262,15.03911171875Q37.5843,15.03911171875,37.6422,15.04481171875Q37.7002,15.05051171875,37.7572,15.06181171875Q37.8143,15.07321171875,37.87,15.09001171875Q37.9256,15.10691171875,37.9794,15.12921171875Q38.0331,15.15151171875,38.0845,15.17891171875Q38.1358,15.20631171875,38.1842,15.23861171875Q38.2325,15.27101171875,38.2775,15.30791171875Q38.3225,15.34481171875,38.3636,15.38591171875Q38.4048,15.42711171875,38.4417,15.47211171875Q38.4786,15.51701171875,38.5109,15.56541171875Q38.5432,15.61381171875,38.5707,15.66511171875Q38.5981,15.71641171875,38.6204,15.77021171875Q38.6426,15.82391171875,38.6595,15.87961171875Q38.6764,15.93531171875,38.6878,15.99241171875Q38.6991,16.04941171875,38.7048,16.107311718749997Q38.7105,16.16521171875,38.7105,16.22341171875Q38.7105,16.31991171875,38.6949,16.415111718749998Q38.6793,16.51031171875,38.6485,16.60181171875Q38.6176,16.69321171875,38.5724,16.77841171875Q38.5272,16.86371171875,38.4688,16.940511718750003Q38.4104,17.01731171875,38.3403,17.08361171875Q38.2702,17.149911718749998,38.1903,17.20401171875Q38.1104,17.25811171875,38.0229,17.29861171875Q37.9353,17.33911171875,37.8423,17.364811718749998L37.8423,22.70901171875L32.3945,27.90911171875L23.0052,27.90911171875L16.5842,34.40071171875Q16.849600000000002,34.60531171875,17.1556,34.77821171875Q18.5236,35.55091171875,20.7043,35.68951171875L25.0778,30.97961171875L41.3682,30.97961171875L44.8423,26.80341171875L50,26.80341171875Q49.945,23.31281171875,48.2648,20.48691171875Q48.2103,18.93851171875,48.0148,17.67841171875L41.4743,23.58391171875L41.4743,26.27751171875L40.2526,27.29931171875Q40.2896,27.44381171875,40.2896,27.59301171875Q40.2896,27.65121171875,40.2839,27.70911171875Q40.2782,27.76701171875,40.2669,27.82411171875Q40.2555,27.88121171875,40.2386,27.93681171875Q40.2217,27.99251171875,40.1995,28.04631171875Q40.1772,28.10001171875,40.1498,28.15131171875Q40.1223,28.20271171875,40.09,28.25101171875Q40.0577,28.29941171875,40.0208,28.34441171875Q39.9839,28.38941171875,39.9427,28.43051171875Q39.9016,28.47161171875,39.8566,28.50861171875Q39.8116,28.54551171875,39.7632,28.57781171875Q39.7149,28.61011171875,39.6636,28.63751171875Q39.6122,28.66501171875,39.5585,28.68721171875Q39.5047,28.70951171875,39.4491,28.72641171875Q39.3934,28.74331171875,39.3363,28.75461171875Q39.2793,28.76601171875,39.2213,28.77171171875Q39.1634,28.77741171875,39.1053,28.77741171875Q39.0471,28.77741171875,38.9892,28.77171171875Q38.9313,28.76601171875,38.8742,28.75461171875Q38.8171,28.74331171875,38.7615,28.72641171875Q38.7058,28.70951171875,38.652,28.68721171875Q38.5983,28.66501171875,38.5469,28.63751171875Q38.4956,28.61011171875,38.4473,28.57781171875Q38.3989,28.54551171875,38.3539,28.50861171875Q38.3089,28.47161171875,38.2678,28.43051171875Q38.2266,28.38941171875,38.1897,28.34441171875Q38.1528,28.29941171875,38.1205,28.25101171875Q38.0882,28.20271171875,38.0607,28.15131171875Q38.0333,28.10001171875,38.011,28.04631171875Q37.9888,27.99251171875,37.9719,27.93681171875Q37.955,27.88121171875,37.9436,27.82411171875Q37.9323,27.76701171875,37.9266,27.70911171875Q37.9209,27.65121171875,37.9209,27.59301171875Q37.9209,27.53491171875,37.9266,27.47691171875Q37.9323,27.41901171875,37.9436,27.36201171875Q37.955,27.30491171875,37.9719,27.24921171875Q37.9888,27.19361171875,38.011,27.13981171875Q38.0333,27.08601171875,38.0607,27.03471171875Q38.0882,26.98341171875,38.1205,26.93501171875Q38.1528,26.88671171875,38.1897,26.84171171875Q38.2266,26.79671171875,38.2678,26.75561171875Q38.3089,26.71441171875,38.3539,26.67751171875Q38.3989,26.64061171875,38.4473,26.60831171875Q38.4956,26.57601171875,38.547,26.54851171875Q38.5983,26.52111171875,38.652,26.49881171875Q38.7058,26.47661171875,38.7615,26.45971171875Q38.8171,26.44281171875,38.8742,26.43141171875Q38.9313,26.42011171875,38.9892,26.41441171875Q39.0471,26.40871171875,39.1053,26.40871171875Q39.2954,26.40871171875,39.4759,26.46821171875Q39.6565,26.52771171875,39.8093,26.64071171875L40.6847,25.90851171875L40.6847,23.23301171875L47.8467,16.76641171875Q47.5583,15.43281171875,47.0804,14.48621171875Q46.3605,13.05993171875,45.2106,12.51232171875L33.985600000000005,12.51232171875L30.1,18.15021171875L29.3199,17.61261171875L33.487899999999996,11.56483171875L43.7793,11.56483171875Q42.2335,8.47562171875,40.1322,7.38005171875Q37.8227,6.17596171875,34.8421,7.3800617187499995Q32.6707,4.69550571875,30.1046,4.14280471875Q28.8597,3.87467671875,27.5777,4.10826671875L27.5777,11.44110171875L25.6038,14.59941171875L25.6038,21.35531171875ZM14.2737,30.83031171875Q8.83492,30.77361171875,5.70683,28.61961171875C2.448621,26.37591171875,1.3449719999999998,22.97691171875,2.369609,19.61841171875L6.54564,19.61841171875L10.01976,23.88211171875L14.7558,23.88211171875L16.728,26.33041171875Q15.1836,28.24481171875,14.2737,30.83031171875ZM17.2511,25.72111171875L15.1337,23.09251171875L10.3949,23.09251171875L6.92078,18.82881171875L2.650232,18.82881171875C2.800788,18.45821171875,2.977454,18.08921171875,3.18019,17.72341171875Q4.1869,15.90741171875,5.70683,14.95991171875Q6.17403,13.61397171875,6.71019,12.51246171875L13.1967,12.51246171875Q13.2272,12.59852171875,13.2704,12.67890171875Q13.3137,12.75927171875,13.3688,12.83207171875Q13.4239,12.90486171875,13.4894,12.96836171875Q13.555,13.03186171875,13.6296,13.08455171875Q13.7041,13.13725171875,13.7858,13.17790171875Q13.8676,13.21855171875,13.9546,13.24620171875Q14.0416,13.27384171875,14.1318,13.28783171875Q14.222,13.30182171875,14.3133,13.30182171875Q14.3714,13.30182171875,14.4294,13.29612171875Q14.4873,13.29041171875,14.5443,13.27906171875Q14.6014,13.26771171875,14.6571,13.25082171875Q14.7127,13.23393171875,14.7665,13.21167171875Q14.8203,13.18940171875,14.8716,13.16197171875Q14.9229,13.13455171875,14.9713,13.10222171875Q15.0196,13.06990171875,15.0646,13.03298171875Q15.1096,12.99607171875,15.1507,12.95493171875Q15.1919,12.91379171875,15.2288,12.86881171875Q15.2657,12.82383171875,15.298,12.77546171875Q15.3303,12.72708171875,15.3578,12.67577171875Q15.3852,12.62445171875,15.4075,12.57070171875Q15.4297,12.51694171875,15.4466,12.46126171875Q15.4635,12.40558171875,15.4749,12.34852171875Q15.4862,12.29145171875,15.4919,12.23355171875Q15.4976,12.17565171875,15.4976,12.11746171875Q15.4976,12.05928171875,15.4919,12.00137171875Q15.4862,11.94347171875,15.4749,11.886401718750001Q15.4635,11.829341718750001,15.4466,11.773661718749999Q15.4297,11.71798171875,15.4075,11.664231718749999Q15.3852,11.61047171875,15.3578,11.559161718750001Q15.3303,11.50785171875,15.298,11.459471718749999Q15.2657,11.41109171875,15.2288,11.36611171875Q15.1919,11.321141718749999,15.1507,11.27999171875Q15.1096,11.23885171875,15.0646,11.20194171875Q15.0196,11.16503171875,14.9713,11.132701718749999Q14.9229,11.10038171875,14.8716,11.07295171875Q14.8203,11.045521718749999,14.7665,11.02326171875Q14.7127,11.00099171875,14.6571,10.98410171875Q14.6014,10.96721171875,14.5443,10.95586171875Q14.4873,10.94451171875,14.4294,10.93881171875Q14.3714,10.933101718749999,14.3133,10.933101718749999Q14.222,10.933101718749999,14.1317,10.94710171875Q14.0415,10.961101718750001,13.9545,10.98876171875Q13.8674,11.01642171875,13.7857,11.057101718750001Q13.7039,11.09778171875,13.6294,11.15050171875Q13.5548,11.20323171875,13.4892,11.26676171875Q13.4237,11.33029171875,13.3686,11.40313171875Q13.3135,11.47596171875,13.2702,11.55638171875Q13.227,11.63679171875,13.1966,11.722891718749999L7.12079,11.722891718749999Q8.343060000000001,9.525851718750001,9.89156,8.48545171875Q12.4182,6.78787171875,15.8134,7.93275171875Q18.3203,5.3666417187499995,20.5508,4.77446271875Q22.7813,4.18228271875,24.8145,5.16925171875Q25.8119,4.59104271875,26.7881,4.29864671875L26.7881,11.21465171875L24.8142,14.37291171875L24.8142,21.53591171875Q24.5824,21.59241171875,24.3082,21.65871171875Q22.7304,22.04011171875,21.8147,22.36281171875L21.8147,17.40771171875L21.0251,17.40771171875L21.0251,22.69061171875Q19.8447,23.28941171875,18.1008,24.87361171875Q17.6568,25.27701171875,17.2511,25.72111171875ZM14.0126,16.20331171875L12.6066,19.92481171875L13.493,20.25971171875L14.7716,16.87511171875L21.3403,13.43052171875L21.3403,6.98535171875L20.3928,6.98535171875L20.3928,12.85752171875L14.0126,16.20331171875ZM45.2125,27.59301171875L49.976,27.59301171875C49.7016,30.50211171875,47.2801,32.644511718749996,44.4748,33.98871171875Q43.0218,36.91221171875,40.8428,38.41031171875C37.5424,40.67931171875,33.822900000000004,39.95451171875,32.0828,39.31221171875Q30.35,35.16691171875,29.1438,33.73451171875L28.5398,34.24311171875Q29.7629,35.69551171875,31.6344,40.29621171875L31.6573,40.28691171875L32.394400000000005,44.64791171875L28.5255,44.64791171875Q27.7556,41.68701171875,26.4726,39.43671171875Q25.1895,37.18641171875,23.3933,35.64671171875Q22.5299,35.71731171875,21.7537,35.71981171875L25.4222,31.76921171875L41.7385,31.76921171875L45.2125,27.59301171875Z" fill-rule="evenodd" fill="url(#master_svg1_40_07187)" fill-opacity="1"/><path d="M25.6038,21.35531171875L32.4738,21.35531171875L32.4738,22.30281171875L25.6627,22.30281171875Q25.2356,22.40921171875,24.5308,22.57961171875Q22.3163,23.11501171875,21.5189,23.50321171875Q20.4403,24.02841171875,18.738,25.57491171875Q16.176299999999998,27.90201171875,14.9765,31.71841171875Q15.2301,32.99421171875,16.005200000000002,33.86321171875L22.6756,27.11961171875L32.0781,27.11961171875L37.0527,22.37111171875L37.0527,17.30901171875Q36.9739,17.274611718750002,36.9009,17.22921171875Q36.8278,17.18391171875,36.7621,17.12841171875Q36.6964,17.07291171875,36.6394,17.00851171875Q36.5824,16.944211718749997,36.5353,16.872211718750002Q36.4882,16.800311718750002,36.452,16.72231171875Q36.4158,16.64431171875,36.3912,16.56201171875Q36.3666,16.47961171875,36.3542,16.39451171875Q36.3418,16.30941171875,36.3418,16.22341171875Q36.3418,16.16521171875,36.3475,16.107311718749997Q36.3532,16.04941171875,36.3645,15.99241171875Q36.3759,15.93531171875,36.3928,15.87961171875Q36.4097,15.82391171875,36.4319,15.77021171875Q36.4542,15.71641171875,36.4816,15.66511171875Q36.5091,15.61381171875,36.5414,15.56541171875Q36.5737,15.51701171875,36.6106,15.47211171875Q36.6475,15.42711171875,36.6887,15.38591171875Q36.7298,15.34481171875,36.7748,15.30791171875Q36.8198,15.27101171875,36.8682,15.23861171875Q36.9165,15.20631171875,36.9679,15.17891171875Q37.0192,15.15151171875,37.0729,15.12921171875Q37.1267,15.10691171875,37.1824,15.09001171875Q37.238,15.07321171875,37.2951,15.06181171875Q37.3522,15.05051171875,37.4101,15.04481171875Q37.468,15.03911171875,37.5262,15.03911171875Q37.5843,15.03911171875,37.6422,15.04481171875Q37.7002,15.05051171875,37.7572,15.06181171875Q37.8143,15.07321171875,37.87,15.09001171875Q37.9256,15.10691171875,37.9794,15.12921171875Q38.0331,15.15151171875,38.0845,15.17891171875Q38.1358,15.20631171875,38.1842,15.23861171875Q38.2325,15.27101171875,38.2775,15.30791171875Q38.3225,15.34481171875,38.3636,15.38591171875Q38.4048,15.42711171875,38.4417,15.47211171875Q38.4786,15.51701171875,38.5109,15.56541171875Q38.5432,15.61381171875,38.5707,15.66511171875Q38.5981,15.71641171875,38.6204,15.77021171875Q38.6426,15.82391171875,38.6595,15.87961171875Q38.6764,15.93531171875,38.6878,15.99241171875Q38.6991,16.04941171875,38.7048,16.107311718749997Q38.7105,16.16521171875,38.7105,16.22341171875Q38.7105,16.31991171875,38.6949,16.415111718749998Q38.6793,16.51031171875,38.6485,16.60181171875Q38.6176,16.69321171875,38.5724,16.77841171875Q38.5272,16.86371171875,38.4688,16.940511718750003Q38.4104,17.01731171875,38.3403,17.08361171875Q38.2702,17.149911718749998,38.1903,17.20401171875Q38.1104,17.25811171875,38.0229,17.29861171875Q37.9353,17.33911171875,37.8423,17.364811718749998L37.8423,22.70901171875L32.3945,27.90911171875L23.0052,27.90911171875L16.5842,34.40071171875Q16.849600000000002,34.60531171875,17.1556,34.77821171875Q18.5236,35.55091171875,20.7043,35.68951171875L25.0778,30.97961171875L41.3682,30.97961171875L44.8423,26.80341171875L50,26.80341171875Q49.945,23.31281171875,48.2648,20.48691171875Q48.2103,18.93851171875,48.0148,17.67841171875L41.4743,23.58391171875L41.4743,26.27751171875L40.2526,27.29931171875Q40.2896,27.44381171875,40.2896,27.59301171875Q40.2896,27.65121171875,40.2839,27.70911171875Q40.2782,27.76701171875,40.2669,27.82411171875Q40.2555,27.88121171875,40.2386,27.93681171875Q40.2217,27.99251171875,40.1995,28.04631171875Q40.1772,28.10001171875,40.1498,28.15131171875Q40.1223,28.20271171875,40.09,28.25101171875Q40.0577,28.29941171875,40.0208,28.34441171875Q39.9839,28.38941171875,39.9427,28.43051171875Q39.9016,28.47161171875,39.8566,28.50861171875Q39.8116,28.54551171875,39.7632,28.57781171875Q39.7149,28.61011171875,39.6636,28.63751171875Q39.6122,28.66501171875,39.5585,28.68721171875Q39.5047,28.70951171875,39.4491,28.72641171875Q39.3934,28.74331171875,39.3363,28.75461171875Q39.2793,28.76601171875,39.2213,28.77171171875Q39.1634,28.77741171875,39.1053,28.77741171875Q39.0471,28.77741171875,38.9892,28.77171171875Q38.9313,28.76601171875,38.8742,28.75461171875Q38.8171,28.74331171875,38.7615,28.72641171875Q38.7058,28.70951171875,38.652,28.68721171875Q38.5983,28.66501171875,38.5469,28.63751171875Q38.4956,28.61011171875,38.4473,28.57781171875Q38.3989,28.54551171875,38.3539,28.50861171875Q38.3089,28.47161171875,38.2678,28.43051171875Q38.2266,28.38941171875,38.1897,28.34441171875Q38.1528,28.29941171875,38.1205,28.25101171875Q38.0882,28.20271171875,38.0607,28.15131171875Q38.0333,28.10001171875,38.011,28.04631171875Q37.9888,27.99251171875,37.9719,27.93681171875Q37.955,27.88121171875,37.9436,27.82411171875Q37.9323,27.76701171875,37.9266,27.70911171875Q37.9209,27.65121171875,37.9209,27.59301171875Q37.9209,27.53491171875,37.9266,27.47691171875Q37.9323,27.41901171875,37.9436,27.36201171875Q37.955,27.30491171875,37.9719,27.24921171875Q37.9888,27.19361171875,38.011,27.13981171875Q38.0333,27.08601171875,38.0607,27.03471171875Q38.0882,26.98341171875,38.1205,26.93501171875Q38.1528,26.88671171875,38.1897,26.84171171875Q38.2266,26.79671171875,38.2678,26.75561171875Q38.3089,26.71441171875,38.3539,26.67751171875Q38.3989,26.64061171875,38.4473,26.60831171875Q38.4956,26.57601171875,38.547,26.54851171875Q38.5983,26.52111171875,38.652,26.49881171875Q38.7058,26.47661171875,38.7615,26.45971171875Q38.8171,26.44281171875,38.8742,26.43141171875Q38.9313,26.42011171875,38.9892,26.41441171875Q39.0471,26.40871171875,39.1053,26.40871171875Q39.2954,26.40871171875,39.4759,26.46821171875Q39.6565,26.52771171875,39.8093,26.64071171875L40.6847,25.90851171875L40.6847,23.23301171875L47.8467,16.76641171875Q47.5583,15.43281171875,47.0804,14.48621171875Q46.3605,13.05993171875,45.2106,12.51232171875L33.985600000000005,12.51232171875L30.1,18.15021171875L29.3199,17.61261171875L33.487899999999996,11.56483171875L43.7793,11.56483171875Q42.2335,8.47562171875,40.1322,7.38005171875Q37.8227,6.17596171875,34.8421,7.3800617187499995Q32.6707,4.69550571875,30.1046,4.14280471875Q28.8597,3.87467671875,27.5777,4.10826671875L27.5777,11.44110171875L25.6038,14.59941171875L25.6038,21.35531171875ZM14.2737,30.83031171875Q8.83492,30.77361171875,5.70683,28.61961171875C2.448621,26.37591171875,1.3449719999999998,22.97691171875,2.369609,19.61841171875L6.54564,19.61841171875L10.01976,23.88211171875L14.7558,23.88211171875L16.728,26.33041171875Q15.1836,28.24481171875,14.2737,30.83031171875ZM17.2511,25.72111171875L15.1337,23.09251171875L10.3949,23.09251171875L6.92078,18.82881171875L2.650232,18.82881171875C2.800788,18.45821171875,2.977454,18.08921171875,3.18019,17.72341171875Q4.1869,15.90741171875,5.70683,14.95991171875Q6.17403,13.61397171875,6.71019,12.51246171875L13.1967,12.51246171875Q13.2272,12.59852171875,13.2704,12.67890171875Q13.3137,12.75927171875,13.3688,12.83207171875Q13.4239,12.90486171875,13.4894,12.96836171875Q13.555,13.03186171875,13.6296,13.08455171875Q13.7041,13.13725171875,13.7858,13.17790171875Q13.8676,13.21855171875,13.9546,13.24620171875Q14.0416,13.27384171875,14.1318,13.28783171875Q14.222,13.30182171875,14.3133,13.30182171875Q14.3714,13.30182171875,14.4294,13.29612171875Q14.4873,13.29041171875,14.5443,13.27906171875Q14.6014,13.26771171875,14.6571,13.25082171875Q14.7127,13.23393171875,14.7665,13.21167171875Q14.8203,13.18940171875,14.8716,13.16197171875Q14.9229,13.13455171875,14.9713,13.10222171875Q15.0196,13.06990171875,15.0646,13.03298171875Q15.1096,12.99607171875,15.1507,12.95493171875Q15.1919,12.91379171875,15.2288,12.86881171875Q15.2657,12.82383171875,15.298,12.77546171875Q15.3303,12.72708171875,15.3578,12.67577171875Q15.3852,12.62445171875,15.4075,12.57070171875Q15.4297,12.51694171875,15.4466,12.46126171875Q15.4635,12.40558171875,15.4749,12.34852171875Q15.4862,12.29145171875,15.4919,12.23355171875Q15.4976,12.17565171875,15.4976,12.11746171875Q15.4976,12.05928171875,15.4919,12.00137171875Q15.4862,11.94347171875,15.4749,11.886401718750001Q15.4635,11.829341718750001,15.4466,11.773661718749999Q15.4297,11.71798171875,15.4075,11.664231718749999Q15.3852,11.61047171875,15.3578,11.559161718750001Q15.3303,11.50785171875,15.298,11.459471718749999Q15.2657,11.41109171875,15.2288,11.36611171875Q15.1919,11.321141718749999,15.1507,11.27999171875Q15.1096,11.23885171875,15.0646,11.20194171875Q15.0196,11.16503171875,14.9713,11.132701718749999Q14.9229,11.10038171875,14.8716,11.07295171875Q14.8203,11.045521718749999,14.7665,11.02326171875Q14.7127,11.00099171875,14.6571,10.98410171875Q14.6014,10.96721171875,14.5443,10.95586171875Q14.4873,10.94451171875,14.4294,10.93881171875Q14.3714,10.933101718749999,14.3133,10.933101718749999Q14.222,10.933101718749999,14.1317,10.94710171875Q14.0415,10.961101718750001,13.9545,10.98876171875Q13.8674,11.01642171875,13.7857,11.057101718750001Q13.7039,11.09778171875,13.6294,11.15050171875Q13.5548,11.20323171875,13.4892,11.26676171875Q13.4237,11.33029171875,13.3686,11.40313171875Q13.3135,11.47596171875,13.2702,11.55638171875Q13.227,11.63679171875,13.1966,11.722891718749999L7.12079,11.722891718749999Q8.343060000000001,9.525851718750001,9.89156,8.48545171875Q12.4182,6.78787171875,15.8134,7.93275171875Q18.3203,5.3666417187499995,20.5508,4.77446271875Q22.7813,4.18228271875,24.8145,5.16925171875Q25.8119,4.59104271875,26.7881,4.29864671875L26.7881,11.21465171875L24.8142,14.37291171875L24.8142,21.53591171875Q24.5824,21.59241171875,24.3082,21.65871171875Q22.7304,22.04011171875,21.8147,22.36281171875L21.8147,17.40771171875L21.0251,17.40771171875L21.0251,22.69061171875Q19.8447,23.28941171875,18.1008,24.87361171875Q17.6568,25.27701171875,17.2511,25.72111171875ZM14.0126,16.20331171875L12.6066,19.92481171875L13.493,20.25971171875L14.7716,16.87511171875L21.3403,13.43052171875L21.3403,6.98535171875L20.3928,6.98535171875L20.3928,12.85752171875L14.0126,16.20331171875ZM45.2125,27.59301171875L49.976,27.59301171875C49.7016,30.50211171875,47.2801,32.644511718749996,44.4748,33.98871171875Q43.0218,36.91221171875,40.8428,38.41031171875C37.5424,40.67931171875,33.822900000000004,39.95451171875,32.0828,39.31221171875Q30.35,35.16691171875,29.1438,33.73451171875L28.5398,34.24311171875Q29.7629,35.69551171875,31.6344,40.29621171875L31.6573,40.28691171875L32.394400000000005,44.64791171875L28.5255,44.64791171875Q27.7556,41.68701171875,26.4726,39.43671171875Q25.1895,37.18641171875,23.3933,35.64671171875Q22.5299,35.71731171875,21.7537,35.71981171875L25.4222,31.76921171875L41.7385,31.76921171875L45.2125,27.59301171875Z" fill-rule="evenodd" fill="url(#master_svg2_40_07188)" fill-opacity="1"/><path d="M25.6038,21.35531171875L32.4738,21.35531171875L32.4738,22.30281171875L25.6627,22.30281171875Q25.2356,22.40921171875,24.5308,22.57961171875Q22.3163,23.11501171875,21.5189,23.50321171875Q20.4403,24.02841171875,18.738,25.57491171875Q16.176299999999998,27.90201171875,14.9765,31.71841171875Q15.2301,32.99421171875,16.005200000000002,33.86321171875L22.6756,27.11961171875L32.0781,27.11961171875L37.0527,22.37111171875L37.0527,17.30901171875Q36.9739,17.274611718750002,36.9009,17.22921171875Q36.8278,17.18391171875,36.7621,17.12841171875Q36.6964,17.07291171875,36.6394,17.00851171875Q36.5824,16.944211718749997,36.5353,16.872211718750002Q36.4882,16.800311718750002,36.452,16.72231171875Q36.4158,16.64431171875,36.3912,16.56201171875Q36.3666,16.47961171875,36.3542,16.39451171875Q36.3418,16.30941171875,36.3418,16.22341171875Q36.3418,16.16521171875,36.3475,16.107311718749997Q36.3532,16.04941171875,36.3645,15.99241171875Q36.3759,15.93531171875,36.3928,15.87961171875Q36.4097,15.82391171875,36.4319,15.77021171875Q36.4542,15.71641171875,36.4816,15.66511171875Q36.5091,15.61381171875,36.5414,15.56541171875Q36.5737,15.51701171875,36.6106,15.47211171875Q36.6475,15.42711171875,36.6887,15.38591171875Q36.7298,15.34481171875,36.7748,15.30791171875Q36.8198,15.27101171875,36.8682,15.23861171875Q36.9165,15.20631171875,36.9679,15.17891171875Q37.0192,15.15151171875,37.0729,15.12921171875Q37.1267,15.10691171875,37.1824,15.09001171875Q37.238,15.07321171875,37.2951,15.06181171875Q37.3522,15.05051171875,37.4101,15.04481171875Q37.468,15.03911171875,37.5262,15.03911171875Q37.5843,15.03911171875,37.6422,15.04481171875Q37.7002,15.05051171875,37.7572,15.06181171875Q37.8143,15.07321171875,37.87,15.09001171875Q37.9256,15.10691171875,37.9794,15.12921171875Q38.0331,15.15151171875,38.0845,15.17891171875Q38.1358,15.20631171875,38.1842,15.23861171875Q38.2325,15.27101171875,38.2775,15.30791171875Q38.3225,15.34481171875,38.3636,15.38591171875Q38.4048,15.42711171875,38.4417,15.47211171875Q38.4786,15.51701171875,38.5109,15.56541171875Q38.5432,15.61381171875,38.5707,15.66511171875Q38.5981,15.71641171875,38.6204,15.77021171875Q38.6426,15.82391171875,38.6595,15.87961171875Q38.6764,15.93531171875,38.6878,15.99241171875Q38.6991,16.04941171875,38.7048,16.107311718749997Q38.7105,16.16521171875,38.7105,16.22341171875Q38.7105,16.31991171875,38.6949,16.415111718749998Q38.6793,16.51031171875,38.6485,16.60181171875Q38.6176,16.69321171875,38.5724,16.77841171875Q38.5272,16.86371171875,38.4688,16.940511718750003Q38.4104,17.01731171875,38.3403,17.08361171875Q38.2702,17.149911718749998,38.1903,17.20401171875Q38.1104,17.25811171875,38.0229,17.29861171875Q37.9353,17.33911171875,37.8423,17.364811718749998L37.8423,22.70901171875L32.3945,27.90911171875L23.0052,27.90911171875L16.5842,34.40071171875Q16.849600000000002,34.60531171875,17.1556,34.77821171875Q18.5236,35.55091171875,20.7043,35.68951171875L25.0778,30.97961171875L41.3682,30.97961171875L44.8423,26.80341171875L50,26.80341171875Q49.945,23.31281171875,48.2648,20.48691171875Q48.2103,18.93851171875,48.0148,17.67841171875L41.4743,23.58391171875L41.4743,26.27751171875L40.2526,27.29931171875Q40.2896,27.44381171875,40.2896,27.59301171875Q40.2896,27.65121171875,40.2839,27.70911171875Q40.2782,27.76701171875,40.2669,27.82411171875Q40.2555,27.88121171875,40.2386,27.93681171875Q40.2217,27.99251171875,40.1995,28.04631171875Q40.1772,28.10001171875,40.1498,28.15131171875Q40.1223,28.20271171875,40.09,28.25101171875Q40.0577,28.29941171875,40.0208,28.34441171875Q39.9839,28.38941171875,39.9427,28.43051171875Q39.9016,28.47161171875,39.8566,28.50861171875Q39.8116,28.54551171875,39.7632,28.57781171875Q39.7149,28.61011171875,39.6636,28.63751171875Q39.6122,28.66501171875,39.5585,28.68721171875Q39.5047,28.70951171875,39.4491,28.72641171875Q39.3934,28.74331171875,39.3363,28.75461171875Q39.2793,28.76601171875,39.2213,28.77171171875Q39.1634,28.77741171875,39.1053,28.77741171875Q39.0471,28.77741171875,38.9892,28.77171171875Q38.9313,28.76601171875,38.8742,28.75461171875Q38.8171,28.74331171875,38.7615,28.72641171875Q38.7058,28.70951171875,38.652,28.68721171875Q38.5983,28.66501171875,38.5469,28.63751171875Q38.4956,28.61011171875,38.4473,28.57781171875Q38.3989,28.54551171875,38.3539,28.50861171875Q38.3089,28.47161171875,38.2678,28.43051171875Q38.2266,28.38941171875,38.1897,28.34441171875Q38.1528,28.29941171875,38.1205,28.25101171875Q38.0882,28.20271171875,38.0607,28.15131171875Q38.0333,28.10001171875,38.011,28.04631171875Q37.9888,27.99251171875,37.9719,27.93681171875Q37.955,27.88121171875,37.9436,27.82411171875Q37.9323,27.76701171875,37.9266,27.70911171875Q37.9209,27.65121171875,37.9209,27.59301171875Q37.9209,27.53491171875,37.9266,27.47691171875Q37.9323,27.41901171875,37.9436,27.36201171875Q37.955,27.30491171875,37.9719,27.24921171875Q37.9888,27.19361171875,38.011,27.13981171875Q38.0333,27.08601171875,38.0607,27.03471171875Q38.0882,26.98341171875,38.1205,26.93501171875Q38.1528,26.88671171875,38.1897,26.84171171875Q38.2266,26.79671171875,38.2678,26.75561171875Q38.3089,26.71441171875,38.3539,26.67751171875Q38.3989,26.64061171875,38.4473,26.60831171875Q38.4956,26.57601171875,38.547,26.54851171875Q38.5983,26.52111171875,38.652,26.49881171875Q38.7058,26.47661171875,38.7615,26.45971171875Q38.8171,26.44281171875,38.8742,26.43141171875Q38.9313,26.42011171875,38.9892,26.41441171875Q39.0471,26.40871171875,39.1053,26.40871171875Q39.2954,26.40871171875,39.4759,26.46821171875Q39.6565,26.52771171875,39.8093,26.64071171875L40.6847,25.90851171875L40.6847,23.23301171875L47.8467,16.76641171875Q47.5583,15.43281171875,47.0804,14.48621171875Q46.3605,13.05993171875,45.2106,12.51232171875L33.985600000000005,12.51232171875L30.1,18.15021171875L29.3199,17.61261171875L33.487899999999996,11.56483171875L43.7793,11.56483171875Q42.2335,8.47562171875,40.1322,7.38005171875Q37.8227,6.17596171875,34.8421,7.3800617187499995Q32.6707,4.69550571875,30.1046,4.14280471875Q28.8597,3.87467671875,27.5777,4.10826671875L27.5777,11.44110171875L25.6038,14.59941171875L25.6038,21.35531171875ZM14.2737,30.83031171875Q8.83492,30.77361171875,5.70683,28.61961171875C2.448621,26.37591171875,1.3449719999999998,22.97691171875,2.369609,19.61841171875L6.54564,19.61841171875L10.01976,23.88211171875L14.7558,23.88211171875L16.728,26.33041171875Q15.1836,28.24481171875,14.2737,30.83031171875ZM17.2511,25.72111171875L15.1337,23.09251171875L10.3949,23.09251171875L6.92078,18.82881171875L2.650232,18.82881171875C2.800788,18.45821171875,2.977454,18.08921171875,3.18019,17.72341171875Q4.1869,15.90741171875,5.70683,14.95991171875Q6.17403,13.61397171875,6.71019,12.51246171875L13.1967,12.51246171875Q13.2272,12.59852171875,13.2704,12.67890171875Q13.3137,12.75927171875,13.3688,12.83207171875Q13.4239,12.90486171875,13.4894,12.96836171875Q13.555,13.03186171875,13.6296,13.08455171875Q13.7041,13.13725171875,13.7858,13.17790171875Q13.8676,13.21855171875,13.9546,13.24620171875Q14.0416,13.27384171875,14.1318,13.28783171875Q14.222,13.30182171875,14.3133,13.30182171875Q14.3714,13.30182171875,14.4294,13.29612171875Q14.4873,13.29041171875,14.5443,13.27906171875Q14.6014,13.26771171875,14.6571,13.25082171875Q14.7127,13.23393171875,14.7665,13.21167171875Q14.8203,13.18940171875,14.8716,13.16197171875Q14.9229,13.13455171875,14.9713,13.10222171875Q15.0196,13.06990171875,15.0646,13.03298171875Q15.1096,12.99607171875,15.1507,12.95493171875Q15.1919,12.91379171875,15.2288,12.86881171875Q15.2657,12.82383171875,15.298,12.77546171875Q15.3303,12.72708171875,15.3578,12.67577171875Q15.3852,12.62445171875,15.4075,12.57070171875Q15.4297,12.51694171875,15.4466,12.46126171875Q15.4635,12.40558171875,15.4749,12.34852171875Q15.4862,12.29145171875,15.4919,12.23355171875Q15.4976,12.17565171875,15.4976,12.11746171875Q15.4976,12.05928171875,15.4919,12.00137171875Q15.4862,11.94347171875,15.4749,11.886401718750001Q15.4635,11.829341718750001,15.4466,11.773661718749999Q15.4297,11.71798171875,15.4075,11.664231718749999Q15.3852,11.61047171875,15.3578,11.559161718750001Q15.3303,11.50785171875,15.298,11.459471718749999Q15.2657,11.41109171875,15.2288,11.36611171875Q15.1919,11.321141718749999,15.1507,11.27999171875Q15.1096,11.23885171875,15.0646,11.20194171875Q15.0196,11.16503171875,14.9713,11.132701718749999Q14.9229,11.10038171875,14.8716,11.07295171875Q14.8203,11.045521718749999,14.7665,11.02326171875Q14.7127,11.00099171875,14.6571,10.98410171875Q14.6014,10.96721171875,14.5443,10.95586171875Q14.4873,10.94451171875,14.4294,10.93881171875Q14.3714,10.933101718749999,14.3133,10.933101718749999Q14.222,10.933101718749999,14.1317,10.94710171875Q14.0415,10.961101718750001,13.9545,10.98876171875Q13.8674,11.01642171875,13.7857,11.057101718750001Q13.7039,11.09778171875,13.6294,11.15050171875Q13.5548,11.20323171875,13.4892,11.26676171875Q13.4237,11.33029171875,13.3686,11.40313171875Q13.3135,11.47596171875,13.2702,11.55638171875Q13.227,11.63679171875,13.1966,11.722891718749999L7.12079,11.722891718749999Q8.343060000000001,9.525851718750001,9.89156,8.48545171875Q12.4182,6.78787171875,15.8134,7.93275171875Q18.3203,5.3666417187499995,20.5508,4.77446271875Q22.7813,4.18228271875,24.8145,5.16925171875Q25.8119,4.59104271875,26.7881,4.29864671875L26.7881,11.21465171875L24.8142,14.37291171875L24.8142,21.53591171875Q24.5824,21.59241171875,24.3082,21.65871171875Q22.7304,22.04011171875,21.8147,22.36281171875L21.8147,17.40771171875L21.0251,17.40771171875L21.0251,22.69061171875Q19.8447,23.28941171875,18.1008,24.87361171875Q17.6568,25.27701171875,17.2511,25.72111171875ZM14.0126,16.20331171875L12.6066,19.92481171875L13.493,20.25971171875L14.7716,16.87511171875L21.3403,13.43052171875L21.3403,6.98535171875L20.3928,6.98535171875L20.3928,12.85752171875L14.0126,16.20331171875ZM45.2125,27.59301171875L49.976,27.59301171875C49.7016,30.50211171875,47.2801,32.644511718749996,44.4748,33.98871171875Q43.0218,36.91221171875,40.8428,38.41031171875C37.5424,40.67931171875,33.822900000000004,39.95451171875,32.0828,39.31221171875Q30.35,35.16691171875,29.1438,33.73451171875L28.5398,34.24311171875Q29.7629,35.69551171875,31.6344,40.29621171875L31.6573,40.28691171875L32.394400000000005,44.64791171875L28.5255,44.64791171875Q27.7556,41.68701171875,26.4726,39.43671171875Q25.1895,37.18641171875,23.3933,35.64671171875Q22.5299,35.71731171875,21.7537,35.71981171875L25.4222,31.76921171875L41.7385,31.76921171875L45.2125,27.59301171875Z" fill-rule="evenodd" fill="url(#master_svg3_40_07189)" fill-opacity="1"/><path d="M25.6038,21.35531171875L32.4738,21.35531171875L32.4738,22.30281171875L25.6627,22.30281171875Q25.2356,22.40921171875,24.5308,22.57961171875Q22.3163,23.11501171875,21.5189,23.50321171875Q20.4403,24.02841171875,18.738,25.57491171875Q16.176299999999998,27.90201171875,14.9765,31.71841171875Q15.2301,32.99421171875,16.005200000000002,33.86321171875L22.6756,27.11961171875L32.0781,27.11961171875L37.0527,22.37111171875L37.0527,17.30901171875Q36.9739,17.274611718750002,36.9009,17.22921171875Q36.8278,17.18391171875,36.7621,17.12841171875Q36.6964,17.07291171875,36.6394,17.00851171875Q36.5824,16.944211718749997,36.5353,16.872211718750002Q36.4882,16.800311718750002,36.452,16.72231171875Q36.4158,16.64431171875,36.3912,16.56201171875Q36.3666,16.47961171875,36.3542,16.39451171875Q36.3418,16.30941171875,36.3418,16.22341171875Q36.3418,16.16521171875,36.3475,16.107311718749997Q36.3532,16.04941171875,36.3645,15.99241171875Q36.3759,15.93531171875,36.3928,15.87961171875Q36.4097,15.82391171875,36.4319,15.77021171875Q36.4542,15.71641171875,36.4816,15.66511171875Q36.5091,15.61381171875,36.5414,15.56541171875Q36.5737,15.51701171875,36.6106,15.47211171875Q36.6475,15.42711171875,36.6887,15.38591171875Q36.7298,15.34481171875,36.7748,15.30791171875Q36.8198,15.27101171875,36.8682,15.23861171875Q36.9165,15.20631171875,36.9679,15.17891171875Q37.0192,15.15151171875,37.0729,15.12921171875Q37.1267,15.10691171875,37.1824,15.09001171875Q37.238,15.07321171875,37.2951,15.06181171875Q37.3522,15.05051171875,37.4101,15.04481171875Q37.468,15.03911171875,37.5262,15.03911171875Q37.5843,15.03911171875,37.6422,15.04481171875Q37.7002,15.05051171875,37.7572,15.06181171875Q37.8143,15.07321171875,37.87,15.09001171875Q37.9256,15.10691171875,37.9794,15.12921171875Q38.0331,15.15151171875,38.0845,15.17891171875Q38.1358,15.20631171875,38.1842,15.23861171875Q38.2325,15.27101171875,38.2775,15.30791171875Q38.3225,15.34481171875,38.3636,15.38591171875Q38.4048,15.42711171875,38.4417,15.47211171875Q38.4786,15.51701171875,38.5109,15.56541171875Q38.5432,15.61381171875,38.5707,15.66511171875Q38.5981,15.71641171875,38.6204,15.77021171875Q38.6426,15.82391171875,38.6595,15.87961171875Q38.6764,15.93531171875,38.6878,15.99241171875Q38.6991,16.04941171875,38.7048,16.107311718749997Q38.7105,16.16521171875,38.7105,16.22341171875Q38.7105,16.31991171875,38.6949,16.415111718749998Q38.6793,16.51031171875,38.6485,16.60181171875Q38.6176,16.69321171875,38.5724,16.77841171875Q38.5272,16.86371171875,38.4688,16.940511718750003Q38.4104,17.01731171875,38.3403,17.08361171875Q38.2702,17.149911718749998,38.1903,17.20401171875Q38.1104,17.25811171875,38.0229,17.29861171875Q37.9353,17.33911171875,37.8423,17.364811718749998L37.8423,22.70901171875L32.3945,27.90911171875L23.0052,27.90911171875L16.5842,34.40071171875Q16.849600000000002,34.60531171875,17.1556,34.77821171875Q18.5236,35.55091171875,20.7043,35.68951171875L25.0778,30.97961171875L41.3682,30.97961171875L44.8423,26.80341171875L50,26.80341171875Q49.945,23.31281171875,48.2648,20.48691171875Q48.2103,18.93851171875,48.0148,17.67841171875L41.4743,23.58391171875L41.4743,26.27751171875L40.2526,27.29931171875Q40.2896,27.44381171875,40.2896,27.59301171875Q40.2896,27.65121171875,40.2839,27.70911171875Q40.2782,27.76701171875,40.2669,27.82411171875Q40.2555,27.88121171875,40.2386,27.93681171875Q40.2217,27.99251171875,40.1995,28.04631171875Q40.1772,28.10001171875,40.1498,28.15131171875Q40.1223,28.20271171875,40.09,28.25101171875Q40.0577,28.29941171875,40.0208,28.34441171875Q39.9839,28.38941171875,39.9427,28.43051171875Q39.9016,28.47161171875,39.8566,28.50861171875Q39.8116,28.54551171875,39.7632,28.57781171875Q39.7149,28.61011171875,39.6636,28.63751171875Q39.6122,28.66501171875,39.5585,28.68721171875Q39.5047,28.70951171875,39.4491,28.72641171875Q39.3934,28.74331171875,39.3363,28.75461171875Q39.2793,28.76601171875,39.2213,28.77171171875Q39.1634,28.77741171875,39.1053,28.77741171875Q39.0471,28.77741171875,38.9892,28.77171171875Q38.9313,28.76601171875,38.8742,28.75461171875Q38.8171,28.74331171875,38.7615,28.72641171875Q38.7058,28.70951171875,38.652,28.68721171875Q38.5983,28.66501171875,38.5469,28.63751171875Q38.4956,28.61011171875,38.4473,28.57781171875Q38.3989,28.54551171875,38.3539,28.50861171875Q38.3089,28.47161171875,38.2678,28.43051171875Q38.2266,28.38941171875,38.1897,28.34441171875Q38.1528,28.29941171875,38.1205,28.25101171875Q38.0882,28.20271171875,38.0607,28.15131171875Q38.0333,28.10001171875,38.011,28.04631171875Q37.9888,27.99251171875,37.9719,27.93681171875Q37.955,27.88121171875,37.9436,27.82411171875Q37.9323,27.76701171875,37.9266,27.70911171875Q37.9209,27.65121171875,37.9209,27.59301171875Q37.9209,27.53491171875,37.9266,27.47691171875Q37.9323,27.41901171875,37.9436,27.36201171875Q37.955,27.30491171875,37.9719,27.24921171875Q37.9888,27.19361171875,38.011,27.13981171875Q38.0333,27.08601171875,38.0607,27.03471171875Q38.0882,26.98341171875,38.1205,26.93501171875Q38.1528,26.88671171875,38.1897,26.84171171875Q38.2266,26.79671171875,38.2678,26.75561171875Q38.3089,26.71441171875,38.3539,26.67751171875Q38.3989,26.64061171875,38.4473,26.60831171875Q38.4956,26.57601171875,38.547,26.54851171875Q38.5983,26.52111171875,38.652,26.49881171875Q38.7058,26.47661171875,38.7615,26.45971171875Q38.8171,26.44281171875,38.8742,26.43141171875Q38.9313,26.42011171875,38.9892,26.41441171875Q39.0471,26.40871171875,39.1053,26.40871171875Q39.2954,26.40871171875,39.4759,26.46821171875Q39.6565,26.52771171875,39.8093,26.64071171875L40.6847,25.90851171875L40.6847,23.23301171875L47.8467,16.76641171875Q47.5583,15.43281171875,47.0804,14.48621171875Q46.3605,13.05993171875,45.2106,12.51232171875L33.985600000000005,12.51232171875L30.1,18.15021171875L29.3199,17.61261171875L33.487899999999996,11.56483171875L43.7793,11.56483171875Q42.2335,8.47562171875,40.1322,7.38005171875Q37.8227,6.17596171875,34.8421,7.3800617187499995Q32.6707,4.69550571875,30.1046,4.14280471875Q28.8597,3.87467671875,27.5777,4.10826671875L27.5777,11.44110171875L25.6038,14.59941171875L25.6038,21.35531171875ZM14.2737,30.83031171875Q8.83492,30.77361171875,5.70683,28.61961171875C2.448621,26.37591171875,1.3449719999999998,22.97691171875,2.369609,19.61841171875L6.54564,19.61841171875L10.01976,23.88211171875L14.7558,23.88211171875L16.728,26.33041171875Q15.1836,28.24481171875,14.2737,30.83031171875ZM17.2511,25.72111171875L15.1337,23.09251171875L10.3949,23.09251171875L6.92078,18.82881171875L2.650232,18.82881171875C2.800788,18.45821171875,2.977454,18.08921171875,3.18019,17.72341171875Q4.1869,15.90741171875,5.70683,14.95991171875Q6.17403,13.61397171875,6.71019,12.51246171875L13.1967,12.51246171875Q13.2272,12.59852171875,13.2704,12.67890171875Q13.3137,12.75927171875,13.3688,12.83207171875Q13.4239,12.90486171875,13.4894,12.96836171875Q13.555,13.03186171875,13.6296,13.08455171875Q13.7041,13.13725171875,13.7858,13.17790171875Q13.8676,13.21855171875,13.9546,13.24620171875Q14.0416,13.27384171875,14.1318,13.28783171875Q14.222,13.30182171875,14.3133,13.30182171875Q14.3714,13.30182171875,14.4294,13.29612171875Q14.4873,13.29041171875,14.5443,13.27906171875Q14.6014,13.26771171875,14.6571,13.25082171875Q14.7127,13.23393171875,14.7665,13.21167171875Q14.8203,13.18940171875,14.8716,13.16197171875Q14.9229,13.13455171875,14.9713,13.10222171875Q15.0196,13.06990171875,15.0646,13.03298171875Q15.1096,12.99607171875,15.1507,12.95493171875Q15.1919,12.91379171875,15.2288,12.86881171875Q15.2657,12.82383171875,15.298,12.77546171875Q15.3303,12.72708171875,15.3578,12.67577171875Q15.3852,12.62445171875,15.4075,12.57070171875Q15.4297,12.51694171875,15.4466,12.46126171875Q15.4635,12.40558171875,15.4749,12.34852171875Q15.4862,12.29145171875,15.4919,12.23355171875Q15.4976,12.17565171875,15.4976,12.11746171875Q15.4976,12.05928171875,15.4919,12.00137171875Q15.4862,11.94347171875,15.4749,11.886401718750001Q15.4635,11.829341718750001,15.4466,11.773661718749999Q15.4297,11.71798171875,15.4075,11.664231718749999Q15.3852,11.61047171875,15.3578,11.559161718750001Q15.3303,11.50785171875,15.298,11.459471718749999Q15.2657,11.41109171875,15.2288,11.36611171875Q15.1919,11.321141718749999,15.1507,11.27999171875Q15.1096,11.23885171875,15.0646,11.20194171875Q15.0196,11.16503171875,14.9713,11.132701718749999Q14.9229,11.10038171875,14.8716,11.07295171875Q14.8203,11.045521718749999,14.7665,11.02326171875Q14.7127,11.00099171875,14.6571,10.98410171875Q14.6014,10.96721171875,14.5443,10.95586171875Q14.4873,10.94451171875,14.4294,10.93881171875Q14.3714,10.933101718749999,14.3133,10.933101718749999Q14.222,10.933101718749999,14.1317,10.94710171875Q14.0415,10.961101718750001,13.9545,10.98876171875Q13.8674,11.01642171875,13.7857,11.057101718750001Q13.7039,11.09778171875,13.6294,11.15050171875Q13.5548,11.20323171875,13.4892,11.26676171875Q13.4237,11.33029171875,13.3686,11.40313171875Q13.3135,11.47596171875,13.2702,11.55638171875Q13.227,11.63679171875,13.1966,11.722891718749999L7.12079,11.722891718749999Q8.343060000000001,9.525851718750001,9.89156,8.48545171875Q12.4182,6.78787171875,15.8134,7.93275171875Q18.3203,5.3666417187499995,20.5508,4.77446271875Q22.7813,4.18228271875,24.8145,5.16925171875Q25.8119,4.59104271875,26.7881,4.29864671875L26.7881,11.21465171875L24.8142,14.37291171875L24.8142,21.53591171875Q24.5824,21.59241171875,24.3082,21.65871171875Q22.7304,22.04011171875,21.8147,22.36281171875L21.8147,17.40771171875L21.0251,17.40771171875L21.0251,22.69061171875Q19.8447,23.28941171875,18.1008,24.87361171875Q17.6568,25.27701171875,17.2511,25.72111171875ZM14.0126,16.20331171875L12.6066,19.92481171875L13.493,20.25971171875L14.7716,16.87511171875L21.3403,13.43052171875L21.3403,6.98535171875L20.3928,6.98535171875L20.3928,12.85752171875L14.0126,16.20331171875ZM45.2125,27.59301171875L49.976,27.59301171875C49.7016,30.50211171875,47.2801,32.644511718749996,44.4748,33.98871171875Q43.0218,36.91221171875,40.8428,38.41031171875C37.5424,40.67931171875,33.822900000000004,39.95451171875,32.0828,39.31221171875Q30.35,35.16691171875,29.1438,33.73451171875L28.5398,34.24311171875Q29.7629,35.69551171875,31.6344,40.29621171875L31.6573,40.28691171875L32.394400000000005,44.64791171875L28.5255,44.64791171875Q27.7556,41.68701171875,26.4726,39.43671171875Q25.1895,37.18641171875,23.3933,35.64671171875Q22.5299,35.71731171875,21.7537,35.71981171875L25.4222,31.76921171875L41.7385,31.76921171875L45.2125,27.59301171875Z" fill-rule="evenodd" fill="url(#master_svg4_40_07190)" fill-opacity="1"/></g></g></g></svg>