<svg xmlns="http://www.w3.org/2000/svg" xmlns:xlink="http://www.w3.org/1999/xlink" version="1.1" width="16" height="16" viewBox="0 0 16 16"><defs><clipPath id="master_svg0_124_01262"><rect x="0" y="0" width="16" height="16" rx="0"/></clipPath></defs><g clip-path="url(#master_svg0_124_01262)"><g><path d="M10.8133093125,8.4973335L9.9683094125,9.3526669L9.3529768125,8.8036661L8.605976612500001,8.0773325L9.9459762125,6.6406655C11.4506433125,7.2973328,13.0119773125,7.031332,14.0619773125,6.118999Q15.0936433125,5.222332,15.0936433125,3.4583321L14.2673103125,3.1356654L12.6796443125,4.7459989L10.3643103125,2.446332L11.9629783125,0.82599884L11.6363093125,0Q10.0369758125,0,8.9699764125,1.0606667C7.9789762125,2.0456667,7.6649761125,3.6663334,8.3633094125,5.1306663L6.9726429125,6.4899998L4.5260010125,4.2314453L4.4073486125,2.8691406L2.5336914125,1.6591797L2.0053711124999998,2.1894531L1.4772949225,2.7202148L0.9483642624999999,3.25L2.1540527125,5.1308594L3.4293213125,5.2416992L5.9263096125,7.5133324L0.6833095554999999,12.637333Q0.5319762425,13.578666,1.1443095225,14.193333Q1.6376428625,14.688333,2.5336429125,14.586999L7.6223092125,9.1316662L8.359643012500001,9.8359995L8.9079761125,10.382333L7.8573093125,11.463332C9.3643093125,12.974666,10.8713093125,14.487332,12.3779773125,15.999998C13.9303113125,15.580998,14.8249773125,14.501331,15.3333103125,13.033666C13.8269763125,11.521,12.3196433125,10.008666,10.8133093125,8.4973335ZM2.6576428125,13.471333C2.4159762125,13.714666,2.0229760125,13.717666,1.7789762125,13.476C1.5353094925000002,13.233334,1.5333095225,12.838333,1.7746428125,12.593C2.0156430125,12.347667,2.4093094125,12.345333,2.6536429125,12.588333C2.8966427125,12.830667,2.8999762125,13.224999,2.6576428125,13.471333ZM12.5123093125,14.836332L9.0843086125,11.396333L9.5926418125,10.886666L13.1426433125,14.450333L12.5123093125,14.836332ZM13.7203103125,13.869666L10.1703091125,10.306999L10.6786433125,9.7959995L14.1063103125,13.235999L13.7203103125,13.869666Z"/></g></g></svg>