<svg xmlns="http://www.w3.org/2000/svg" xmlns:xlink="http://www.w3.org/1999/xlink" version="1.1" width="16" height="16" viewBox="0 0 16 16"><defs><clipPath id="master_svg0_50_6472"><rect x="0" y="0" width="16" height="16" rx="0"/></clipPath></defs><g clip-path="url(#master_svg0_50_6472)"><g><path d="M4.9643188671875,0.4296875C4.9643188671875,0.4296875,1.0000158671875,0.4296875,1.0000158671875,0.4296875C0.6839458671875001,0.4296875,0.4285888671875,0.6850445000000001,0.4285888671875,1.0011145C0.4285888671875,1.0011145,0.4285888671875,5.0011075,0.4285888671875,5.0011075C0.4285888671875,5.1582675,0.5571608671875,5.2868475,0.7143028671875,5.2868475C0.7143028671875,5.2868475,1.5714488671875,5.2868475,1.5714488671875,5.2868475C1.7285888671875,5.2868475,1.8571588671875,5.1582675,1.8571588671875,5.0011075C1.8571588671875,5.0011075,1.8571588671875,1.8582575,1.8571588671875,1.8582575C1.8571588671875,1.8582575,4.9643188671875,1.8582575,4.9643188671875,1.8582575C5.1214288671875,1.8582575,5.2500088671875,1.7296875,5.2500088671875,1.5725475C5.2500088671875,1.5725475,5.2500088671875,0.7154015,5.2500088671875,0.7154015C5.2500088671875,0.5582595,5.1214288671875,0.4296875,4.9643188671875,0.4296875C4.9643188671875,0.4296875,4.9643188671875,0.4296875,4.9643188671875,0.4296875ZM15.2857888671875,10.7153875C15.2857888671875,10.7153875,14.4285888671875,10.7153875,14.4285888671875,10.7153875C14.2713888671875,10.7153875,14.1428888671875,10.8439875,14.1428888671875,11.0010875C14.1428888671875,11.0010875,14.1428888671875,14.1439875,14.1428888671875,14.1439875C14.1428888671875,14.1439875,11.0357888671875,14.1439875,11.0357888671875,14.1439875C10.8785888671875,14.1439875,10.7499888671875,14.2724875,10.7499888671875,14.4296875C10.7499888671875,14.4296875,10.7499888671875,15.2868875,10.7499888671875,15.2868875C10.7499888671875,15.4439875,10.8785888671875,15.5724875,11.0357888671875,15.5724875C11.0357888671875,15.5724875,14.9999888671875,15.5724875,14.9999888671875,15.5724875C15.3160888671875,15.5724875,15.5713888671875,15.3171875,15.5713888671875,15.0010875C15.5713888671875,15.0010875,15.5713888671875,11.0010875,15.5713888671875,11.0010875C15.5713888671875,10.8439875,15.4428888671875,10.7153875,15.2857888671875,10.7153875C15.2857888671875,10.7153875,15.2857888671875,10.7153875,15.2857888671875,10.7153875ZM4.9643188671875,14.1439875C4.9643188671875,14.1439875,1.8571588671875,14.1439875,1.8571588671875,14.1439875C1.8571588671875,14.1439875,1.8571588671875,11.0010875,1.8571588671875,11.0010875C1.8571588671875,10.8439875,1.7285888671875,10.7153875,1.5714488671875,10.7153875C1.5714488671875,10.7153875,0.7143028671875,10.7153875,0.7143028671875,10.7153875C0.5571608671875,10.7153875,0.4285888671875,10.8439875,0.4285888671875,11.0010875C0.4285888671875,11.0010875,0.4285888671875,15.0010875,0.4285888671875,15.0010875C0.4285888671875,15.3171875,0.6839458671875001,15.5724875,1.0000158671875,15.5724875C1.0000158671875,15.5724875,4.9643188671875,15.5724875,4.9643188671875,15.5724875C5.1214288671875,15.5724875,5.2500088671875,15.4439875,5.2500088671875,15.2868875C5.2500088671875,15.2868875,5.2500088671875,14.4296875,5.2500088671875,14.4296875C5.2500088671875,14.2724875,5.1214288671875,14.1439875,4.9643188671875,14.1439875C4.9643188671875,14.1439875,4.9643188671875,14.1439875,4.9643188671875,14.1439875ZM14.9999888671875,0.4296875C14.9999888671875,0.4296875,11.0357888671875,0.4296875,11.0357888671875,0.4296875C10.8785888671875,0.4296875,10.7499888671875,0.5582595,10.7499888671875,0.7154015C10.7499888671875,0.7154015,10.7499888671875,1.5725475,10.7499888671875,1.5725475C10.7499888671875,1.7296875,10.8785888671875,1.8582575,11.0357888671875,1.8582575C11.0357888671875,1.8582575,14.1428888671875,1.8582575,14.1428888671875,1.8582575C14.1428888671875,1.8582575,14.1428888671875,5.0011075,14.1428888671875,5.0011075C14.1428888671875,5.1582675,14.2713888671875,5.2868475,14.4285888671875,5.2868475C14.4285888671875,5.2868475,15.2857888671875,5.2868475,15.2857888671875,5.2868475C15.4428888671875,5.2868475,15.5713888671875,5.1582675,15.5713888671875,5.0011075C15.5713888671875,5.0011075,15.5713888671875,1.0011145,15.5713888671875,1.0011145C15.5713888671875,0.6850445000000001,15.3160888671875,0.4296875,14.9999888671875,0.4296875C14.9999888671875,0.4296875,14.9999888671875,0.4296875,14.9999888671875,0.4296875Z"/></g></g></svg>