<?xml version="1.0" standalone="no"?><!DOCTYPE svg PUBLIC "-//W3C//DTD SVG 1.1//EN" "http://www.w3.org/Graphics/SVG/1.1/DTD/svg11.dtd"><svg t="1743477206913" class="icon" viewBox="0 0 1024 1024" version="1.1" xmlns="http://www.w3.org/2000/svg" p-id="2407" xmlns:xlink="http://www.w3.org/1999/xlink" width="200" height="200"><path d="M919.6032 612.4544l-53.4016-60.7232a43.12064 43.12064 0 0 0-29.952-14.6944c-11.6224-0.7168-22.8352 3.072-31.5904 10.752l-280.1152 246.4768a43.12064 43.12064 0 0 0-14.6944 29.952c-0.7168 11.6224 3.072 22.8352 10.752 31.5392L574.0032 916.48a43.4944 43.4944 0 0 0 29.952 14.6944c11.1616 0.7168 22.528-2.816 31.5392-10.752l280.1152-246.528c18.1248-15.8208 19.8656-43.3664 3.9936-61.44z m-24.2176 38.4512l-280.1152 246.528c-5.3248 4.6592-13.4656 4.1472-18.1248-1.1776l-53.4016-60.7232c-2.2528-2.56-3.3792-5.888-3.1744-9.3184 0.2048-3.4304 1.7408-6.5536 4.352-8.8064l62.3616-54.8864 32.3072 36.7104c1.8944 2.1504 5.2224 2.4064 7.3728 0.4608l7.5264-6.6048c2.1504-1.8944 2.4064-5.2224 0.4608-7.3728l-32.3072-36.7104 38.0928-33.4848 31.488 35.7888c1.8944 2.1504 5.2224 2.4064 7.3728 0.4608l7.5264-6.6048c2.1504-1.8944 2.4064-5.2224 0.4608-7.3728l-31.488-35.7888 35.3792-31.1296 33.1264 37.632c1.8944 2.1504 5.2224 2.4064 7.3728 0.4608l7.5264-6.6048c2.1504-1.8944 2.4064-5.2224 0.4608-7.3728l-33.1264-37.632 38.0928-33.4848 32.3072 36.7104c1.8944 2.1504 5.2224 2.4064 7.3728 0.4608l7.5264-6.6048c2.1504-1.8944 2.4064-5.2224 0.4608-7.3728l-32.3072-36.7104 44.7488-39.3728c2.56-2.2528 5.888-3.3792 9.3184-3.1744 3.4304 0.2048 6.5536 1.7408 8.8064 4.352l53.4016 60.7232c4.6592 5.2224 4.1472 13.3632-1.1776 18.0224z" fill="#008CFF" p-id="2408"></path><path d="M702.7712 516.4032a360.8832 360.8832 0 0 0-155.7504-89.7536c51.2-32.2048 85.3504-89.1392 85.3504-153.9584 0-100.1984-81.5104-181.76-181.76-181.76-100.1984 0-181.76 81.5616-181.76 181.76 0 64.8192 34.1504 121.8048 85.3504 153.9584-152.3712 42.2912-264.5504 182.1696-264.5504 347.8016 0 9.1648 0.3584 18.2272 1.024 27.2384 0.8192 10.6496 9.7792 18.8416 20.48 18.8416 11.8784 0 21.2992-10.0864 20.3776-21.9648-0.6144-7.9872-0.9216-16.0256-0.9216-24.1152 0-176.4352 143.5648-320 320-320 86.9376 0 165.8368 34.8672 223.5392 91.2896 3.8912 3.7888 9.0112 5.9904 14.4384 5.9904 18.4832-0.0512 27.392-22.4256 14.1824-35.328zM309.8112 272.64c0-77.6192 63.1808-140.8 140.8-140.8s140.8 63.1808 140.8 140.8-63.1808 140.8-140.8 140.8-140.8-63.1808-140.8-140.8z" fill="#666666" p-id="2409"></path></svg>