<svg xmlns="http://www.w3.org/2000/svg" xmlns:xlink="http://www.w3.org/1999/xlink" fill="none" version="1.1" width="16" height="16" viewBox="0 0 16 16"><defs><clipPath id="master_svg0_50_6242"><rect x="0" y="0" width="16" height="16" rx="0"/></clipPath></defs><g clip-path="url(#master_svg0_50_6242)"><g><path d="M4.67742919921875,10.7153875C4.67742919921875,10.7153875,0.71314319921875,10.7153875,0.71314319921875,10.7153875C0.55600119921875,10.7153875,0.42742919921875,10.8439875,0.42742919921875,11.0010875C0.42742919921875,11.0010875,0.42742919921875,11.8582875,0.42742919921875,11.8582875C0.42742919921875,12.0153875,0.55600119921875,12.1439875,0.71314319921875,12.1439875C0.71314319921875,12.1439875,3.82028919921875,12.1439875,3.82028919921875,12.1439875C3.82028919921875,12.1439875,3.82028919921875,15.2868875,3.82028919921875,15.2868875C3.82028919921875,15.4439875,3.94885919921875,15.5724875,4.105999199218751,15.5724875C4.105999199218751,15.5724875,4.96315919921875,15.5724875,4.96315919921875,15.5724875C5.12026919921875,15.5724875,5.24884919921875,15.4439875,5.24884919921875,15.2868875C5.24884919921875,15.2868875,5.24884919921875,11.2868875,5.24884919921875,11.2868875C5.24884919921875,10.9707875,4.99351919921875,10.7153875,4.67742919921875,10.7153875C4.67742919921875,10.7153875,4.67742919921875,10.7153875,4.67742919921875,10.7153875ZM4.96315919921875,0.4296875C4.96315919921875,0.4296875,4.105999199218751,0.4296875,4.105999199218751,0.4296875C3.94885919921875,0.4296875,3.82028919921875,0.5582595,3.82028919921875,0.7154015C3.82028919921875,0.7154015,3.82028919921875,3.8582575,3.82028919921875,3.8582575C3.82028919921875,3.8582575,0.71314319921875,3.8582575,0.71314319921875,3.8582575C0.55600119921875,3.8582575,0.42742919921875,3.9868275,0.42742919921875,4.1439675000000005C0.42742919921875,4.1439675000000005,0.42742919921875,5.0011075,0.42742919921875,5.0011075C0.42742919921875,5.1582675,0.55600119921875,5.2868475,0.71314319921875,5.2868475C0.71314319921875,5.2868475,4.67742919921875,5.2868475,4.67742919921875,5.2868475C4.99351919921875,5.2868475,5.24884919921875,5.0314675,5.24884919921875,4.7154075C5.24884919921875,4.7154075,5.24884919921875,0.7154015,5.24884919921875,0.7154015C5.24884919921875,0.5582595,5.12026919921875,0.4296875,4.96315919921875,0.4296875C4.96315919921875,0.4296875,4.96315919921875,0.4296875,4.96315919921875,0.4296875ZM15.28462919921875,10.7153875C15.28462919921875,10.7153875,11.32022919921875,10.7153875,11.32022919921875,10.7153875C11.00422919921875,10.7153875,10.74882919921875,10.9707875,10.74882919921875,11.2868875C10.74882919921875,11.2868875,10.74882919921875,15.2868875,10.74882919921875,15.2868875C10.74882919921875,15.4439875,10.87742919921875,15.5724875,11.03462919921875,15.5724875C11.03462919921875,15.5724875,11.89172919921875,15.5724875,11.89172919921875,15.5724875C12.04882919921875,15.5724875,12.17742919921875,15.4439875,12.17742919921875,15.2868875C12.17742919921875,15.2868875,12.17742919921875,12.1439875,12.17742919921875,12.1439875C12.17742919921875,12.1439875,15.28462919921875,12.1439875,15.28462919921875,12.1439875C15.44172919921875,12.1439875,15.57022919921875,12.0153875,15.57022919921875,11.8582875C15.57022919921875,11.8582875,15.57022919921875,11.0010875,15.57022919921875,11.0010875C15.57022919921875,10.8439875,15.44172919921875,10.7153875,15.28462919921875,10.7153875C15.28462919921875,10.7153875,15.28462919921875,10.7153875,15.28462919921875,10.7153875ZM15.28462919921875,3.8582575C15.28462919921875,3.8582575,12.17742919921875,3.8582575,12.17742919921875,3.8582575C12.17742919921875,3.8582575,12.17742919921875,0.7154015,12.17742919921875,0.7154015C12.17742919921875,0.5582595,12.04882919921875,0.4296875,11.89172919921875,0.4296875C11.89172919921875,0.4296875,11.03462919921875,0.4296875,11.03462919921875,0.4296875C10.87742919921875,0.4296875,10.74882919921875,0.5582595,10.74882919921875,0.7154015C10.74882919921875,0.7154015,10.74882919921875,4.7154075,10.74882919921875,4.7154075C10.74882919921875,5.0314675,11.00422919921875,5.2868475,11.32022919921875,5.2868475C11.32022919921875,5.2868475,15.28462919921875,5.2868475,15.28462919921875,5.2868475C15.44172919921875,5.2868475,15.57022919921875,5.1582675,15.57022919921875,5.0011075C15.57022919921875,5.0011075,15.57022919921875,4.1439675000000005,15.57022919921875,4.1439675000000005C15.57022919921875,3.9868275,15.44172919921875,3.8582575,15.28462919921875,3.8582575C15.28462919921875,3.8582575,15.28462919921875,3.8582575,15.28462919921875,3.8582575Z" fill="#1890FF" fill-opacity="1"/></g></g></svg>