<svg xmlns="http://www.w3.org/2000/svg" xmlns:xlink="http://www.w3.org/1999/xlink" fill="none" version="1.1" width="20" height="20" viewBox="0 0 20 20"><defs><clipPath id="master_svg0_52_04471"><rect x="0" y="0" width="20" height="20" rx="0"/></clipPath></defs><g clip-path="url(#master_svg0_52_04471)"><g><path d="M18.925060453125,19.63384665625L18.638807453125,19.86884665625L17.747558453125,19.80009665625L15.638809453125,17.64134765625C14.209167453125,18.65261865625,12.334974453125,18.78242265625,10.779570553125,17.97789365625C9.224166853125,17.17336665625,8.247096553125001,15.56875265625,8.246310253125,13.81759865625C8.244238353124999,11.22827465625,10.341986653125,9.12772845625,12.931309453125,9.12634755625C14.693481453125,9.12846275625,16.305586453125002,10.11869045625,17.104187453125,11.68951565625C17.902788453125,13.26034165625,17.752937453125,15.14633565625,16.716309453125,16.57134665625L18.906309453125,18.76634565625L18.925060453125,19.63384665625ZM12.961310453125,10.67884665625C11.176624453125,10.68160365625,9.731311753125,12.12915365625,9.731310853125,13.91384465625C9.728548053125,15.70048665625,11.174669453125,17.15108465625,12.961310453125,17.15384465625C14.748813453125,17.15315965625,16.196150453125,15.70134465625,16.191309453125,13.91384465625C16.194767453125,12.12772765625,14.747429453125,10.67815065625,12.961310453125,10.67884665625ZM9.381310453125,9.08759785625Q3.833811253125,13.91384665625,9.865060853125,19.21884765625Q3.275061353125,20.51259765625,1.077561759625,16.63134765625C0.980061732125,12.60009665625,4.266311453125001,10.02884765625,5.915061453125,8.99634745625C4.230857153125,8.26059055625,3.142733553125,6.59674835625,3.143811653125,4.75884775625C3.142428353125,2.20648005625,5.208947153125,0.13548561325,7.761311553125,0.13134765625C9.997340153125,0.13231539726,11.912464453125,1.73281405625,12.310457453125,3.93313835625C12.708450453125,6.13346285625,11.475322453125,8.30341525625,9.381310453125,9.08759785625Z" fill="#4E5969" fill-opacity="1"/></g></g></svg>