<svg xmlns="http://www.w3.org/2000/svg" xmlns:xlink="http://www.w3.org/1999/xlink" fill="none" version="1.1" width="16" height="16" viewBox="0 0 16 16"><defs><clipPath id="master_svg0_52_18285"><rect x="0" y="0" width="16" height="16" rx="0"/></clipPath></defs><g clip-path="url(#master_svg0_52_18285)"><g><path d="M9.56525998125,14.24871375L0.30906635125,14.24871375C0.15095936125,14.25142175,0.02049931515,14.12563075,0.01744766705,13.96753075L0.01744766705,13.62996175C0.01257290135,13.53530675,0.0035261712499999997,13.01956875,0.34456545125,12.45231675C0.55824768125,12.09735575,0.86588126125,11.79320575,1.25773178125,11.54750875C1.73309628125,11.24823475,2.33514498125,11.03733375,3.04645708125,10.91763275L3.05759738125,10.91622775C3.06317498125,10.91554075,3.61092828125,10.84315175,4.16704038125,10.70185775C5.13170578125,10.45617575,5.21661048125,10.23971275,5.21661048125,10.23693085C5.22214178125,10.21557615,5.23032998125,10.19499875,5.24098448125,10.17568205C5.24862528125,10.13530825,5.26881218125,9.98218635,5.23123458125,9.57294555C5.13658048125,8.53379825,4.57489058125,7.91992185,4.12457278125,7.42646405C3.98190378125,7.27054595,3.84756378125,7.12369015,3.74456528125,6.97891285C3.46595118125,6.57637735,3.29728628125,6.10806175,3.25526448125,5.62031845L3.25526448125,5.60641245C3.25526448125,5.32451295,3.40143278125,5.19367215,3.52949238125,5.07951875L3.53644558125,5.07325315C3.53948858125,5.07074115,3.54228708125,5.06794735,3.54480438125,5.06490945C3.54619498125,5.04542545,3.53575778125,4.99391125,3.52880428125,4.95911505C3.52628258125,4.94611355,3.52372578125,4.93311925,3.52113338125,4.92013215C3.40977618125,4.33411335,3.40143248125,3.42858815,3.50303988125,2.84742925C3.54063228125,2.08391535,4.22271058125,1.49925725,4.25264738125,1.47421065L4.25542878125,1.47142925C4.35356708125,1.39138435,4.45309588125,1.30438626,4.51642278125,1.20693576C4.52255538125,1.19800794,4.52813868125,1.18871468,4.53314068125,1.1791077300000001C4.52780768125,1.16601193,4.52223398125,1.15301538,4.51642278125,1.1401245599999998C4.47814278125,1.05520499,4.42108108125,0.92784798,4.45378398125,0.76427418C4.47328278125,0.6647451799999999,4.54843808125,0.48796763,4.82963418125,0.415578827C4.94238188125,0.386345182,5.06350328125,0.380782565,5.15187738125,0.375907799L5.16928288125,0.375907799C5.53443148125,0.3509370354,5.90078498125,0.3488444709,6.26619478125,0.369642379C8.98964978125,0.57079187,9.92718978125,1.55286285,9.96546938125,1.59461235L9.97242258125,1.60158065C10.19027728125,1.85354345,10.35175628125,2.16742735,10.45267628125,2.53421615C10.48398828125,2.64905735,10.50417628125,2.74511715,10.51531628125,2.83628725C10.61065728125,3.36943105,10.59465828125,3.91718435,10.57447128125,4.28398825C10.56264328125,4.48860885,10.53897228125,4.70507245,10.49930228125,4.96259735C10.48886528125,5.03219035,10.50069228125,5.04611155,10.50558228125,5.05097105C10.51670728125,5.06490755,10.53131628125,5.07953215,10.54733128125,5.09553195C10.63137328125,5.17261935,10.69518528125,5.26917745,10.73315528125,5.37671325C10.75473228125,5.44493005,10.76518528125,5.51730395,10.76518528125,5.60639575L10.76518528125,5.62031745C10.72313528125,6.10805945,10.55447228125,6.57637215,10.27588428125,6.97892615C10.17287228125,7.12368865,10.03854728125,7.27054505,9.89586258125,7.42646265C9.44485668125,7.91923285,8.88387008125,8.53379725,8.78921608125,9.57363315C8.75163838125,9.98288915,8.77112298125,10.13530825,8.77877808125,10.17568115C8.78917598125,10.19536205,8.79734708125,10.21614075,8.80313778125,10.23763275C8.80382538125,10.23902325,8.87691688125,10.42764375,9.66827388125,10.65174775C9.26443198125,11.19229575,9.04682828125,11.84925775,9.04813198125,12.52400175C9.04813198125,13.16154975,9.23883058125,13.75455175,9.56525998125,14.24871375Z" fill="#4E5969" fill-opacity="1"/></g><g><path d="M12.528171325,12.17613384375L11.136171825,12.17613384375L11.136171825,12.87213374375L12.528171325,12.87213374375L12.528171325,14.26414914375L13.224185725,14.26414914375L13.224185725,12.87214944375L14.616185224999999,12.87214944375L14.616185224999999,12.17613534375L13.224185725,12.17613534375L13.224185725,10.78411984375L12.528171325,10.78411984375L12.528171325,12.17613384375L12.528171325,12.17613384375ZM12.876178025,15.65616464375C11.146401325,15.65616464375,9.744140625,14.253903843749999,9.744140625,12.52412724375C9.744140625,10.79435054375,11.146401325,9.39208984375,12.876178025,9.39208984375C14.605954624999999,9.39208984375,16.008215425,10.79435054375,16.008215425,12.52412724375C16.008215425,14.253903843749999,14.605954624999999,15.65616464375,12.876178025,15.65616464375Z" fill="#4E5969" fill-opacity="1"/></g></g></svg>