<svg xmlns="http://www.w3.org/2000/svg" xmlns:xlink="http://www.w3.org/1999/xlink" version="1.1" width="16" height="16" viewBox="0 0 16 16"><defs><clipPath id="master_svg0_210_18770"><rect x="0" y="0" width="16" height="16" rx="0"/></clipPath></defs><g clip-path="url(#master_svg0_210_18770)"><g><path d="M13.71429543359375,7.1451092C13.71429543359375,7.1451092,12.50002843359375,7.1451092,12.50002843359375,7.1451092C12.50002843359375,7.1451092,12.50002843359375,3.1450908,12.50002843359375,3.1450908C12.50002843359375,1.8825884,11.47678283359375,0.859375,10.21429443359375,0.859375C10.21429443359375,0.859375,5.78572563359375,0.859375,5.78572563359375,0.859375C4.52322343359375,0.859375,3.50001003359375,1.8825884,3.50001003359375,3.1450908C3.50001003359375,3.1450908,3.50001003359375,7.1451092,3.50001003359375,7.1451092C3.50001003359375,7.1451092,2.28572112359375,7.1451092,2.28572112359375,7.1451092C1.96965178359375,7.1451092,1.71429443359375,7.4004421,1.71429443359375,7.7165313C1.71429443359375,7.7165313,1.71429443359375,14.573643,1.71429443359375,14.573643C1.71429443359375,14.889732,1.96965178359375,15.145108,2.28572112359375,15.145108C2.28572112359375,15.145108,13.71429543359375,15.145108,13.71429543359375,15.145108C14.03038443359375,15.145108,14.28571743359375,14.889732,14.28571743359375,14.573643C14.28571743359375,14.573643,14.28571743359375,7.7165313,14.28571743359375,7.7165313C14.28571743359375,7.4004421,14.03038443359375,7.1451092,13.71429543359375,7.1451092C13.71429543359375,7.1451092,13.71429543359375,7.1451092,13.71429543359375,7.1451092ZM4.7857213335937505,3.1450908C4.7857213335937505,2.593304,5.233939133593751,2.1450906,5.78572563359375,2.1450906C5.78572563359375,2.1450906,10.21429443359375,2.1450906,10.21429443359375,2.1450906C10.76607323359375,2.1450906,11.21429443359375,2.593304,11.21429443359375,3.1450908C11.21429443359375,3.1450908,11.21429443359375,7.1451092,11.21429443359375,7.1451092C11.21429443359375,7.1451092,4.7857213335937505,7.1451092,4.7857213335937505,7.1451092C4.7857213335937505,7.1451092,4.7857213335937505,3.1450908,4.7857213335937505,3.1450908C4.7857213335937505,3.1450908,4.7857213335937505,3.1450908,4.7857213335937505,3.1450908ZM13.00002843359375,13.859376C13.00002843359375,13.859376,3.00001003359375,13.859376,3.00001003359375,13.859376C3.00001003359375,13.859376,3.00001003359375,8.4307976,3.00001003359375,8.4307976C3.00001003359375,8.4307976,13.00002843359375,8.4307976,13.00002843359375,8.4307976C13.00002843359375,8.4307976,13.00002843359375,13.859376,13.00002843359375,13.859376C13.00002843359375,13.859376,13.00002843359375,13.859376,13.00002843359375,13.859376ZM7.50002863359375,11.377242C7.50002863359375,11.377242,7.50002863359375,12.323643,7.50002863359375,12.323643C7.50002863359375,12.40222,7.56429483359375,12.466532,7.64287283359375,12.466532C7.64287283359375,12.466532,8.357139133593751,12.466532,8.357139133593751,12.466532C8.43571713359375,12.466532,8.50002863359375,12.40222,8.50002863359375,12.323643C8.50002863359375,12.323643,8.50002863359375,11.377242,8.50002863359375,11.377242C8.647405633593749,11.27142,8.757450533593751,11.121509,8.814250933593751,10.949199C8.87104983359375,10.7768431,8.87171743359375,10.5909309,8.81611733359375,10.4181747C8.760517133593751,10.2454643,8.65158363359375,10.0947981,8.50491663359375,9.9879532C8.35825063359375,9.8810644,8.18145033359375,9.8235092,8.00002863359375,9.8235092C7.81856103359375,9.8235092,7.64176133359375,9.8810644,7.49509473359375,9.9879532C7.34847213359375,10.0947981,7.23949483359375,10.2454643,7.18389463359375,10.4181747C7.12829493359375,10.5909309,7.12896153359375,10.7768431,7.18576143359375,10.949199C7.24256083359375,11.121509,7.35260583359375,11.27142,7.50002863359375,11.377242C7.50002863359375,11.377242,7.50002863359375,11.377242,7.50002863359375,11.377242Z" /></g></g></svg>