<?xml version="1.0" standalone="no"?><!DOCTYPE svg PUBLIC "-//W3C//DTD SVG 1.1//EN" "http://www.w3.org/Graphics/SVG/1.1/DTD/svg11.dtd"><svg t="1745170709448" class="icon" viewBox="0 0 1024 1024" version="1.1" xmlns="http://www.w3.org/2000/svg" p-id="2217" xmlns:xlink="http://www.w3.org/1999/xlink" width="200" height="200"><path d="M480.0512 126.976c104.0384 0 188.6208 84.5824 188.6208 188.6208 0 27.2384-5.9392 53.248-16.384 76.8h70.0416c7.5776-24.1664 11.8784-49.9712 11.8784-76.8C734.208 175.3088 620.3392 61.44 480.0512 61.44S225.8944 175.3088 225.8944 315.5968c0 84.3776 41.1648 159.3344 104.448 205.4144-140.288 57.7536-244.5312 185.5488-268.4928 339.968h66.3552c13.5168-74.3424 49.3568-142.7456 104.0384-197.4272 50.5856-50.5856 113.0496-84.992 181.0432-100.5568 1.6384-0.4096 3.072-0.6144 4.5056-1.024V493.568c-73.5232-25.8048-126.3616-95.8464-126.3616-178.176 0-103.8336 84.5824-188.416 188.6208-188.416z" p-id="2218"></path><path d="M962.1504 525.1072l-46.4896-46.2848-116.3264 116.3264-116.5312-116.3264-46.2848 46.2848 108.9536 108.9536h-100.5568v65.536h121.6512v85.1968h-121.6512v65.536h121.6512V962.56h65.536v-112.2304h121.4464v-65.536h-121.4464v-85.1968h121.4464v-65.536h-100.5568z" fill="#2186FF" p-id="2219"></path></svg>