<svg xmlns="http://www.w3.org/2000/svg" xmlns:xlink="http://www.w3.org/1999/xlink"  version="1.1" width="17.500001907348633" height="17.500001907348633" viewBox="0 0 17.500001907348633 17.500001907348633"><g><path d="M0,8.75C0,3.91797,3.91797,0,8.75,0C13.5821,0,17.5,3.91797,17.5,8.75C17.5,13.5821,13.5821,17.5,8.75,17.5C3.91797,17.5,0,13.5821,0,8.75ZM1.48438,8.75C1.48438,12.7617,4.73828,16.0156,8.75,16.0156C12.7617,16.0156,16.0156,12.7617,16.0156,8.75C16.0156,4.73828,12.7617,1.48438,8.75,1.48438C4.73828,1.48438,1.48438,4.73828,1.48438,8.75ZM9.37483,8.12589L12.3436,8.12589C12.4296,8.12589,12.4998,8.19622,12.4998,8.28217L12.4998,9.21967C12.4998,9.30561,12.4296,9.37589,12.3436,9.37589L9.37483,9.37589L9.37483,12.3447C9.37483,12.4306,9.30456,12.5009,9.21861,12.5009L8.28111,12.5009C8.19517,12.5009,8.12483,12.4306,8.12483,12.3447L8.12483,9.37589L5.1561,9.37589C5.07016,9.37589,4.99985,9.30561,4.99985,9.21967L4.99985,8.28217C4.99985,8.19622,5.07016,8.12589,5.1561,8.12589L8.12483,8.12589L8.12483,5.15717C8.12483,5.07123,8.19517,5.00092,8.28111,5.00092L9.21861,5.00092C9.30456,5.00092,9.37483,5.07123,9.37483,5.15717L9.37483,8.12589Z" /></g></svg>