<svg xmlns="http://www.w3.org/2000/svg" xmlns:xlink="http://www.w3.org/1999/xlink" version="1.1" width="20.00018310546875" height="20.00018310546875" viewBox="0 0 20.00018310546875 20.00018310546875"><defs><clipPath id="master_svg0_112_05308"><rect x="0" y="0" width="20.00018310546875" height="20.00018310546875" rx="0"/></clipPath></defs><g clip-path="url(#master_svg0_112_05308)"><g><path d="M10.66953856300354,1.9653500318527222C10.66953856300354,1.9653500318527222,9.33024856300354,1.9653500318527222,9.33024856300354,1.9653500318527222C9.21119856300354,1.9653500318527222,9.15169856300354,2.024874431852722,9.15169856300354,2.1439230318527223C9.15169856300354,2.1439230318527223,9.15169856300354,9.152920031852723,9.15169856300354,9.152920031852723C9.15169856300354,9.152920031852723,2.50037156300354,9.152920031852723,2.50037156300354,9.152920031852723C2.38132296300354,9.152920031852723,2.32179856300354,9.212420031852723,2.32179856300354,9.33147003185272C2.32179856300354,9.33147003185272,2.32179856300354,10.670760031852723,2.32179856300354,10.670760031852723C2.32179856300354,10.789820031852722,2.38132296300354,10.849380031852721,2.50037156300354,10.849380031852721C2.50037156300354,10.849380031852721,9.15169856300354,10.849380031852721,9.15169856300354,10.849380031852721C9.15169856300354,10.849380031852721,9.15169856300354,17.858350031852723,9.15169856300354,17.858350031852723C9.15169856300354,17.977350031852723,9.21119856300354,18.036950031852722,9.33024856300354,18.036950031852722C9.33024856300354,18.036950031852722,10.66953856300354,18.036950031852722,10.66953856300354,18.036950031852722C10.78859856300354,18.036950031852722,10.84815856300354,17.977350031852723,10.84815856300354,17.858350031852723C10.84815856300354,17.858350031852723,10.84815856300354,10.849380031852721,10.84815856300354,10.849380031852721C10.84815856300354,10.849380031852721,17.50049856300354,10.849380031852721,17.50049856300354,10.849380031852721C17.619598563003542,10.849380031852721,17.679098563003542,10.789820031852722,17.679098563003542,10.670760031852723C17.679098563003542,10.670760031852723,17.679098563003542,9.33147003185272,17.679098563003542,9.33147003185272C17.679098563003542,9.212420031852723,17.619598563003542,9.152920031852723,17.50049856300354,9.152920031852723C17.50049856300354,9.152920031852723,10.84815856300354,9.152920031852723,10.84815856300354,9.152920031852723C10.84815856300354,9.152920031852723,10.84815856300354,2.1439230318527223,10.84815856300354,2.1439230318527223C10.84815856300354,2.024874431852722,10.78859856300354,1.9653500318527222,10.66953856300354,1.9653500318527222C10.66953856300354,1.9653500318527222,10.66953856300354,1.9653500318527222,10.66953856300354,1.9653500318527222Z"/></g></g></svg>