<svg xmlns="http://www.w3.org/2000/svg" xmlns:xlink="http://www.w3.org/1999/xlink" fill="none" version="1.1" width="16" height="16" viewBox="0 0 16 16"><defs><clipPath id="master_svg0_52_22774"><rect x="0" y="0" width="16" height="16" rx="0"/></clipPath></defs><g clip-path="url(#master_svg0_52_22774)"><g><path d="M1.0288223,1.9623212e-7L14.532104,1.9623212e-7C15.046514,1.9623212e-7,15.432322,0.38580823,15.432322,1.0288213C15.432322,1.6718348,15.046514,2.0576427,14.403501,2.0576427L1.0288213,2.0576427C0.38580802,1.9290402,0,1.5432321,0,1.0288213C0,0.51441067,0.38580802,0,1.0288223,1.9623212e-7ZM1.2345858,6.2758112L4.5782557,6.2758112C5.0926661,6.2758112,5.6070771,6.6616187,5.6070771,7.3046322C5.6070771,7.9476457,4.9640636,8.3334541,4.4496527,8.3334541L1.2345865,8.3334541C0.59157312,8.3334541,0.20576507,7.8190432,0.20576507,7.3046322C0.20576507,6.7902212,0.59157312,6.2758112,1.2345858,6.2758112ZM13.889091,8.0762482L15.432322,8.0762482C15.689528,8.0762482,15.81813,7.9476457,15.946733,7.6904407C16.075335,7.4332347,15.946733,7.3046322,15.81813,7.0474272L12.860269,4.2181678C12.731666,4.0895653,12.47446,4.0895653,12.217255,4.0895653C12.088652,4.2181678,11.96005,4.4753733,11.96005,4.6039758L11.96005,14.506382C11.96005,15.020793,12.345857,15.535204,12.988871,15.535204C13.503282,15.535204,14.017692,15.149396,14.017692,14.506382L13.889091,8.0762482ZM8.4877768,11.445639L6.9445453,11.445639C6.6873393,11.445639,6.5587368,11.574242,6.4301343,11.831447C6.3015318,12.088652,6.4301343,12.217255,6.5587368,12.47446L9.3879957,15.303719C9.6452017,15.432322,9.9024067,15.432322,10.031009,15.432322C10.288215,15.303719,10.416817,15.175117,10.416817,14.917911L10.416817,5.0155044C10.416817,4.5010939,10.031009,3.9866831,9.3879957,3.9866831C8.7449818,3.9866831,8.4877768,4.3724909,8.4877768,5.0155044L8.4877768,11.445639ZM1.2345858,13.091752L4.5782557,13.091752C5.0926661,13.091752,5.6070771,13.477561,5.6070771,14.120574C5.6070771,14.763588,4.9640636,15.020793,4.4496527,15.020793L1.2345865,15.020793C0.59157312,15.020793,0.20576507,14.634986,0.20576507,13.991972C0.20576507,13.348959,0.59157312,13.091752,1.2345858,13.091752Z" fill="#4E5969" fill-opacity="1"/></g></g></svg>