<svg xmlns="http://www.w3.org/2000/svg" xmlns:xlink="http://www.w3.org/1999/xlink" version="1.1" width="22.85714340209961" height="22.85714340209961" viewBox="0 0 22.85714340209961 22.85714340209961"><defs><clipPath id="master_svg0_56_33224"><rect x="0" y="0" width="22.85714340209961" height="22.85714340209961" rx="0"/></clipPath></defs><g clip-path="url(#master_svg0_56_33224)"><g><path d="M20.920258,20.359208047039033C20.920258,20.359208047039033,17.19581,16.634700047039033,17.19581,16.634700047039033C20.310606,12.836224047039032,20.093779,7.208667447039032,16.532511,3.650019147039032C12.757017,-0.128038222960968,6.624382,-0.128038222960968,2.8335431,3.650019147039032C-0.94451427,7.440858047039032,-0.94451427,13.573493047039031,2.8335431,17.34898704703903C6.3921914,20.910255047039033,12.019748,21.127082047039032,15.818224,18.012286047039034C15.818224,18.012286047039034,19.542732,21.736734047039032,19.542732,21.736734047039032C19.624384,21.808162047039033,19.754478,21.808162047039033,19.823366,21.736734047039032C19.823366,21.736734047039032,20.920258,20.639842047039032,20.920258,20.639842047039032C20.991686,20.57095404703903,20.991686,20.44086004703903,20.920258,20.359208047039033C20.920258,20.359208047039033,20.920258,20.359208047039033,20.920258,20.359208047039033ZM15.18051,15.996986047039032C12.149842,19.025048047039032,7.2417145,19.025048047039032,4.2110987,15.996986047039032C1.183035,12.966318047039032,1.183035,8.058190547039032,4.2110987,5.027574747039032C7.2417145,1.999511047039032,12.149842,1.999511047039032,15.18051,5.027574747039032C18.208572,8.058190547039032,18.208572,12.966318047039032,15.18051,15.996986047039032C15.18051,15.996986047039032,15.18051,15.996986047039032,15.18051,15.996986047039032Z" /></g></g></svg>