<?xml version="1.0" standalone="no"?><!DOCTYPE svg PUBLIC "-//W3C//DTD SVG 1.1//EN" "http://www.w3.org/Graphics/SVG/1.1/DTD/svg11.dtd"><svg t="1743493219098" class="icon" viewBox="0 0 1024 1024" version="1.1" xmlns="http://www.w3.org/2000/svg" p-id="2870" xmlns:xlink="http://www.w3.org/1999/xlink" width="200" height="200"><path d="M891.7504 931.84h-379.5456c-14.1824 0-26.88-8.4992-32.3072-21.6064a34.93376 34.93376 0 0 1 7.5776-38.144l379.5456-379.5456a34.93376 34.93376 0 0 1 38.144-7.5776 34.90304 34.90304 0 0 1 21.6064 32.3072v379.5456c-0.0512 19.3024-15.7696 35.0208-35.0208 35.0208z m-365.1584-40.96H885.76v-359.168L526.592 890.88z" fill="#008CFF" p-id="2871"></path><path d="M707.84 517.6832a360.8832 360.8832 0 0 0-155.7504-89.7536c51.2-32.2048 85.3504-89.1392 85.3504-153.9584C637.44 173.7216 555.9296 92.16 455.68 92.16c-100.1984 0-181.76 81.5616-181.76 181.76 0 64.8192 34.1504 121.8048 85.3504 153.9584-152.32 42.3424-264.5504 182.1696-264.5504 347.8016 0 9.1648 0.3584 18.2272 1.024 27.2384 0.8192 10.6496 9.7792 18.8416 20.48 18.8416 11.8784 0 21.2992-10.0864 20.3776-21.9648-0.6144-7.9872-0.9216-16.0256-0.9216-24.1152C135.68 599.2448 279.2448 455.68 455.68 455.68c86.9376 0 165.8368 34.8672 223.5392 91.2896 3.8912 3.7888 9.0112 5.9904 14.4384 5.9904 18.4832 0 27.392-22.3744 14.1824-35.2768zM314.88 273.92C314.88 196.3008 378.0608 133.12 455.68 133.12s140.8 63.1808 140.8 140.8S533.2992 414.72 455.68 414.72 314.88 351.5392 314.88 273.92z" fill="#666666" p-id="2872"></path></svg>