<svg xmlns="http://www.w3.org/2000/svg" xmlns:xlink="http://www.w3.org/1999/xlink"  version="1.1" width="16" height="16" viewBox="0 0 16 16"><defs><clipPath id="master_svg0_241_05413"><rect x="0" y="0" width="16" height="16" rx="0"/></clipPath></defs><g clip-path="url(#master_svg0_241_05413)"><g><path d="M5.14288330078125,2.14118875L5.28574330078125,2.14118875L5.28574330078125,3.42689875L10.71430330078125,3.42689875L10.71430330078125,2.14118875L10.85715330078125,2.14118875C10.77861330078125,2.14118875,10.71430330078125,2.07689875,10.71430330078125,1.99832875L10.71430330078125,2.14118875L5.28574330078125,2.14118875L5.28574330078125,1.99832875C5.28574330078125,2.07689875,5.22145330078125,2.14118875,5.14288330078125,2.14118875ZM12.00008330078125,1.99832875L12.00008330078125,3.42689875L14.28568330078125,3.42689875C14.60178330078125,3.42689875,14.85718330078125,3.68225875,14.85718330078125,3.99832875L14.85718330078125,4.5697487500000005C14.85718330078125,4.64832875,14.79288330078125,4.712608749999999,14.71428330078125,4.712608749999999L13.63568330078125,4.712608749999999L13.19468330078125,14.05186875C13.16608330078125,14.66266875,12.66428330078125,15.14116875,12.05358330078125,15.14116875L3.94645330078125,15.14116875C3.33752330078125,15.14116875,2.83395330078125,14.66086875,2.80538330078125,14.05186875L2.36431330078125,4.712608749999999L1.28574030078125,4.712608749999999C1.20716910078125,4.712608749999999,1.14288330078125,4.64832875,1.14288330078125,4.5697487500000005L1.14288330078125,3.99832875C1.14288330078125,3.68225875,1.39824030078125,3.42689875,1.71431030078125,3.42689875L4.000023300781249,3.42689875L4.000023300781249,1.99832875C4.000023300781249,1.36797075,4.51252330078125,0.85546875,5.14288330078125,0.85546875L10.85715330078125,0.85546875C11.48748330078125,0.85546875,12.00008330078125,1.36797075,12.00008330078125,1.99832875ZM4.08395330078125,13.85546875L11.91608330078125,13.85546875L12.34828330078125,4.712608749999999L3.65181330078125,4.712608749999999L4.08395330078125,13.85546875ZM6.85605330078125,6.85717875L5.71319330078125,6.85717875L5.71319330078125,11.42856875L6.85605330078125,11.42856875L6.85605330078125,6.85717875ZM10.28574330078125,6.85717875L9.14288330078125,6.85717875L9.14288330078125,11.42856875L10.28574330078125,11.42856875L10.28574330078125,6.85717875Z"/></g></g></svg>