<svg xmlns="http://www.w3.org/2000/svg" xmlns:xlink="http://www.w3.org/1999/xlink" fill="none" version="1.1" width="16" height="16" viewBox="0 0 16 16"><defs><clipPath id="master_svg0_52_05901"><rect x="0" y="0" width="16" height="16" rx="0"/></clipPath></defs><g clip-path="url(#master_svg0_52_05901)"><g><path d="M8.000000499999999,1C4.134373699999999,1,1,4.134373699999999,1,8.000000499999999C1,11.865645,4.134373699999999,15.000001,8.000000499999999,15.000001C11.865645,15.000001,15.000001,11.865645,15.000001,8.000000499999999C15.000001,4.134373699999999,11.865645,1,8.000000499999999,1C8.000000499999999,1,8.000000499999999,1,8.000000499999999,1ZM11.023422,5.7140446C11.023422,5.7140446,7.7328005,10.2765779,7.7328005,10.2765779C7.6868,10.3407564,7.6261783,10.3930664,7.5559559,10.4291563C7.4856892,10.4652452,7.407867,10.484045,7.3288894,10.484045C7.2499561,10.484045,7.1720896,10.4652452,7.1018672,10.4291563C7.0316005,10.3930664,6.9709783,10.3407564,6.9250226,10.2765779C6.9250226,10.2765779,4.9765649,7.5765781,4.9765649,7.5765781C4.917187,7.4937339,4.9765649,7.3781338,5.078125,7.3781338C5.078125,7.3781338,5.8109336,7.3781338,5.8109336,7.3781338C5.9703116,7.3781338,6.1218672,7.4546671,6.2156444,7.5859561C6.2156444,7.5859561,7.3281341,9.1296892,7.3281341,9.1296892C7.3281341,9.1296892,9.7843552,5.7234225,9.7843552,5.7234225C9.8781338,5.5937338,10.0281334,5.515645,10.1890669,5.515645C10.1890669,5.515645,10.9218664,5.515645,10.9218664,5.515645C11.023422,5.515645,11.082801,5.6312442,11.023422,5.7140446C11.023422,5.7140446,11.023422,5.7140446,11.023422,5.7140446Z" fill="#4E5969" fill-opacity="1"/></g></g></svg>