<?xml version="1.0" standalone="no"?><!DOCTYPE svg PUBLIC "-//W3C//DTD SVG 1.1//EN" "http://www.w3.org/Graphics/SVG/1.1/DTD/svg11.dtd"><svg t="1744883346075" class="icon" viewBox="0 0 1024 1024" version="1.1" xmlns="http://www.w3.org/2000/svg" p-id="1599" xmlns:xlink="http://www.w3.org/1999/xlink" width="200" height="200"><path d="M66.3 656.9v278.9c0 14.2 11.7 25.7 26.3 25.7h842.1c6.9 0 13.7-2.7 18.6-7.5 4.9-4.8 7.8-11.4 7.7-18.2V657c0-7.1-3-13.6-7.7-18.2-4.8-4.7-11.3-7.6-18.6-7.6H92.5c-6.9 0-13.7 2.7-18.6 7.6-4.9 4.7-7.6 11.2-7.6 18.1z m839 250h-53v-66.4c0-7.1-3-13.5-7.8-18.2-4.8-4.7-11.3-7.6-18.6-7.6-14.5 0-26.3 11.5-26.3 25.7v66.5h-46v-66.4c0-7.1-3-13.5-7.8-18.2-4.8-4.7-11.3-7.6-18.6-7.6-14.5 0-26.3 11.5-26.4 25.8v66.4h-46V777c0-7.1-3-13.5-7.8-18.2-4.8-4.7-11.3-7.6-18.6-7.6-14.5 0-26.3 11.5-26.4 25.8v130h-46v-66.4c0-7.1-3-13.5-7.8-18.2-4.8-4.7-11.3-7.6-18.6-7.6-14.5 0-26.3 11.5-26.4 25.8V907h-46.1v-66.4c0-7.1-3-13.6-7.8-18.2-4.7-4.6-11.3-7.5-18.6-7.5-14.5 0-26.4 11.5-26.4 25.8V907h-45.8V777c0-7.1-3-13.5-7.7-18.2-4.8-4.7-11.3-7.5-18.6-7.5-14.5 0-26.4 11.5-26.3 25.7v130h-46.1v-66.4c0-7.1-3-13.5-7.7-18.2-4.8-4.7-11.3-7.5-18.6-7.5-14.5 0-26.4 11.5-26.4 25.8V907h-85.8V685.8l783.1-0.1v221.2z m0 0" fill="#00af63" p-id="1600"></path><path d="M957.4 184.8c13.6 10.6 15.9 30 5.1 43.3l-215.6 266c-4.1 5.1-9.8 8.8-16.2 10.5l-175.3 48c-22.9 6.3-44.4-13.6-39.2-36.4L554 348.9c1-4.6 3.2-8.9 6.1-12.5L770 78.5c10.8-13.3 30.6-15.5 44.2-4.9l143.2 111.2zM707.1 450.5l193-238-101.8-77.8-187.4 232-25.5 117.4 121.7-33.6z m0 0M121.7 573.4c0 8.5-6.3 15.4-14.1 15.4h-28c-7.8 0-14.1-6.9-14.1-15.4V83.2c0-8.5 6.3-15.4 14.1-15.4h28.1c7.8 0 14.1 6.9 14.1 15.4v490.2h-0.1z m0 0" fill="#00af63" p-id="1601"></path><path d="M470 542.2V571c0 5.5-5.1 10-11.4 10H113c-6.3 0-11.4-4.5-11.4-10v-28.8c0-5.5 5.1-10.1 11.4-10.1h345.6c6.3 0 11.4 4.5 11.4 10.1z m0 0" fill="#00af63" p-id="1602"></path><path d="M308.6 373.8c4.3 4.2 3.7 11.5-1.3 16.3L135.4 555.3c-5 4.8-12.5 5.3-16.8 1l-24-23.9c-4.3-4.2-3.7-11.6 1.3-16.4l171.8-165.2c5-4.8 12.5-5.3 16.8-1l24.1 24z m0 0" fill="#00af63" p-id="1603"></path></svg>