<svg xmlns="http://www.w3.org/2000/svg" xmlns:xlink="http://www.w3.org/1999/xlink"  version="1.1" width="16" height="16" viewBox="0 0 16 16"><defs><clipPath id="master_svg0_124_01240"><rect x="0" y="0" width="16" height="16" rx="0"/></clipPath></defs><g clip-path="url(#master_svg0_124_01240)"><g><path d="M0.55657244,15.316321859375C0.24967648,15.316321859375,0,15.068526859375,0,14.764076859375L0,13.410572859375C0,12.058763859375,0.40891233,10.757207859375,1.1825048,9.646885859375C1.938028,8.562632559375,2.986989,7.731538259375,4.2157965,7.243761559375L4.4180412,7.163391159375L4.2464767,7.029470959375C3.2795804,6.274889459375,2.7249844,5.147250659375,2.7249844,3.935666059375C2.7249844,1.765372159375,4.5028353,-0.000244140625,6.6879048,-0.000244140625C8.8729734,-0.000244140625,10.650825,1.765466759375,10.650825,3.935666059375C10.650825,5.147251159375,10.096229,6.274889459375,9.129426,7.029565359375L8.9578619,7.163484559375L9.1601057,7.243854959375C10.389102,7.731632759375,11.437969,8.562444659375,12.193304,9.646603559375C12.966991,10.756924859375,13.375808,12.058575859375,13.375808,13.410572859375L13.375808,14.764172859375C13.375808,15.068526859375,13.126132,15.316321859375,12.819236,15.316321859375L0.55657244,15.316321859375ZM14.346281,13.285875859375C14.339694,12.915360859375,14.754817,9.266676859375,11.710515,7.634226759375C11.298967,7.352929159375,11.18274,7.315284259375,11.18274,7.087065259375C11.18274,6.864492859375,11.331623,6.664601359375,11.561913,6.577830359375L11.565678,6.576419359375L11.569254,6.574725659375C13.711785,4.286604359375,11.159024,1.580913259375,10.765359,1.408313659375C10.701081,1.304415059375,10.686682,1.281828359375,10.731668,1.353729359375C12.514694,1.384221459375,13.956287,2.834660059375,13.956287,4.613169659375C13.956287,5.419983359375,13.653061,6.196399259375,13.102605,6.799274459375L12.992779,6.919642959375L13.137709,6.994273159375C14.903325,7.902632759375,16.000095,9.700622559375,16,11.686741859375L16,12.733727859375C16,13.038080859375,15.750418,13.285688859375,15.443522,13.285688859375L14.346281,13.285875859375Z" /></g></g></svg>