<svg xmlns="http://www.w3.org/2000/svg" xmlns:xlink="http://www.w3.org/1999/xlink"  version="1.1" width="20" height="20" viewBox="0 0 20 20"><defs><clipPath id="master_svg0_56_32098"><rect x="0" y="0" width="20" height="20" rx="0"/></clipPath></defs><g clip-path="url(#master_svg0_56_32098)"><g><path d="M9.990017940625,12.84724128125C8.264409540625,12.84724128125,6.865048840625,11.44788028125,6.865048840625,9.72227188125C6.865048840625,7.99603988125,8.264409540625,6.59730338125,9.990017940625,6.59730338125C11.715626140625,6.59730338125,13.114986140625,7.99603988125,13.114986140625,9.72227188125C13.114986140625,11.44788028125,11.715626140625,12.84724128125,9.990017940625,12.84724128125ZM16.853700140625,10.12351898125C16.861200140625,9.99101928125,16.864948140625,9.85664658125,16.864948140625,9.72227188125C16.864948140625,9.46414948125,16.850574140625,9.20977688125,16.823074140625,8.95977978125L18.848680140625,7.55416868125C19.126802140625,7.36104588125,19.219301140625,6.95792528125,19.047428140625,6.65980338125L17.170572140625,3.40921068125C17.000574140625,3.11483838125,16.607452140625,2.98796458125,16.296830140624998,3.13421318125L14.066852140625,4.18545268125C13.658730140625,3.88483098125,13.216236140625,3.62795828125,12.746240140625,3.42171068125L12.541867140625,1.10548344125C12.513742140625,0.76861186125,12.211245140625,0.62548828125,11.866874140625,0.62548828125L8.113161540625,0.62548828125C7.773165240625,0.62548828125,7.466918040625,0.76361190125,7.438168040625,1.10548344125L7.233795140625,3.49108478125C6.730675240625,3.71170778125,6.259429440625,3.95608018125,5.828183640625,4.2848267812500005L3.462582340625,3.15233798125C3.156335640625,3.00796438125,2.761339640625,3.11983848125,2.5888412406250003,3.41796038125L0.711984783625,6.66417838125C0.541986502625,6.95917468125,0.628860617025,7.36042118125,0.911357850625,7.55666878125L3.142585740625,9.10415368125C3.124460940625,9.30790138125,3.115086040625,9.51414968125,3.115086040625,9.72289748125C3.115086040625,9.85727118125,3.118836140625,9.99039458125,3.126335840625,10.12351898125L1.131355640625,11.50850528125C0.853233410625,11.70100328125,0.7607343306250001,12.10412328125,0.932607620625,12.40224528125L2.809463940625,15.65283828125C2.979462340625,15.94720928125,3.372583340625,16.074083281249997,3.683205640625,15.92783528125L5.608186240625,15.02034428125C6.097556640625,15.42534028125,6.644425840625,15.76408628125,7.233795140625,16.02220928125L7.438168040625,18.61718328125C7.466292340625,18.95467928125,7.768789740625,19.37530128125,8.113161540625,19.37530128125L11.866874140625,19.37530128125C12.206870140625,19.37530128125,12.513118140625,18.95905528125,12.541867140625,18.61718328125L12.746240140625,16.09158328125C13.335609140625,15.83346128125,13.881854140625,15.46033928125,14.371224140625,15.05534328125L16.296830140624998,15.94533528125C16.603078140625,16.089708281249997,16.998073140625,15.95970928125,17.170572140625,15.66158728125L19.047428140625,12.40662028125C19.217426140625,12.11224828125,19.129927140625,11.70600228125,18.848055140625,11.51037928125L16.853700140625,10.12351898125Z" /></g></g></svg>