<svg xmlns="http://www.w3.org/2000/svg" xmlns:xlink="http://www.w3.org/1999/xlink"  version="1.1" width="16" height="16" viewBox="0 0 16 16"><defs><clipPath id="master_svg0_124_01201"><rect x="0" y="0" width="16" height="16" rx="0"/></clipPath></defs><g clip-path="url(#master_svg0_124_01201)"><g><path d="M1.777560715,0L14.222003875,0C14.712924875,0,15.110892875,0.39796904,15.110892875,0.88888884L15.110892875,15.111111C15.110892875,15.602031,14.712924875,16,14.222003875,16L1.777560715,16C1.286640915,16,0.888671875,15.602031,0.888671875,15.111111L0.888671875,0.88888884C0.888671798706056,0.39796904,1.286640915,0,1.777560715,0ZM2.6664495749999997,2.6666665L2.6664495749999997,4.4444442L4.444227175,4.4444442L4.444227175,2.6666665L2.6664495749999997,2.6666665ZM2.6664495749999997,7.1111107L2.6664495749999997,8.8888884L4.444227175,8.8888884L4.444227175,7.1111107L2.6664495749999997,7.1111107ZM6.222004375,2.6666663L6.222004375,4.4444437L13.333114875,4.4444437L13.333114875,2.6666665L6.222004375,2.6666663ZM6.222004375,7.1111107L6.222004375,8.8888884L13.333114875,8.8888884L13.333114875,7.1111107L6.222004375,7.1111107Z"/></g></g></svg>