<svg xmlns="http://www.w3.org/2000/svg" xmlns:xlink="http://www.w3.org/1999/xlink" version="1.1" width="16" height="16" viewBox="0 0 16 16"><defs><clipPath id="master_svg0_124_01230"><rect x="0" y="0" width="16" height="16" rx="0"/></clipPath></defs><g clip-path="url(#master_svg0_124_01230)"><g><path d="M3.7111003,3.999327459375C3.7111003,6.208625359375,5.5316305,7.999469759375,7.7774649,7.999469759375C10.0232992,7.999469759375,11.84383,6.208625359375,11.84383,3.999327459375C11.84383,1.790600459375,10.0232992,-0.000244140625,7.7774649,-0.000244140625C5.5322013,-0.000244140625,3.7111001,1.790029359375,3.7111003,3.999327459375ZM1,14.832309859375C1,15.998041859375,3.3514466,15.999754859375,6.2526488,15.999754859375L9.6419525,15.999754859375C12.542584,15.999754859375,14.894601,15.956939859375,14.894601,14.832309859375L14.894601,14.499487859375C14.894601,11.645668859375,12.543154,9.333041159375,9.6419516,9.333041159375L6.2526488,9.333041159375C3.3514469,9.333041159375,1,11.645668859375,1,14.499487859375L1,14.832309859375Z" /></g></g></svg>