<svg xmlns="http://www.w3.org/2000/svg" xmlns:xlink="http://www.w3.org/1999/xlink" fill="none" version="1.1" width="16" height="16" viewBox="0 0 16 16"><defs><clipPath id="master_svg0_52_18274"><rect x="0" y="0" width="16" height="16" rx="0"/></clipPath></defs><g clip-path="url(#master_svg0_52_18274)"><g><path d="M15.857654900390624,6.4341636L10.163703900390624,0.17081849C9.935945500390625,-0.056939505,9.594308900390624,-0.056939505,9.366550400390626,0.17081849C9.138793000390624,0.3985765,9.138793000390624,0.51245552,9.138793000390624,0.74021351L9.138793000390624,4.0427046C4.469754200390625,4.0427046,0.028472900390625,7.9145908,0.028472900390625,12.583631C0.028472900390625,13.836299,0.597867910390625,15.430605,1.167262900390625,16C1.850536900390625,12.46975,5.380785900390625,9.7366543,9.138793000390624,9.7366543Q9.138793000390624,10.078291,9.138793000390624,13.153025C9.138793000390624,13.266904,9.138793000390624,13.380782,9.252672200390625,13.608541C9.480429600390625,13.836299,9.935945500390625,13.722421,10.049824900390625,13.608541L15.743774900390624,7.459075C15.971533900390625,7.2313166,15.971533900390625,7.0035586,15.971533900390625,6.8896794C15.971533900390625,6.7758007,15.971533900390625,6.5480423,15.857654900390624,6.4341636Z" fill="#0089FF" fill-opacity="1"/></g></g></svg>