<svg xmlns="http://www.w3.org/2000/svg" xmlns:xlink="http://www.w3.org/1999/xlink" version="1.1" width="16" height="16" viewBox="0 0 16 16"><defs><clipPath id="master_svg0_52_05846"><rect x="0" y="0" width="16" height="16" rx="0"/></clipPath></defs><g clip-path="url(#master_svg0_52_05846)"><g><path d="M8,13.913041C8.2881479,13.913041,8.5217381,14.146631,8.5217381,14.43478L8.5217381,15.478259C8.5217381,15.766408,8.2881479,15.999998,8,15.999998C7.7118506,15.999998,7.478261,15.766408,7.478261,15.478259L7.478261,14.43478C7.478261,14.146631,7.7118506,13.913041,8,13.913041ZM3.8191302,12.180868C4.0230393,12.384646,4.0230393,12.715176,3.8191302,12.918954L3.0810435,13.656692C2.8758557,13.850865,2.5533953,13.846457,2.3535919,13.646749C2.1537883,13.44704,2.1492281,13.12458,2.3433046,12.919302L3.0806956,12.181215C3.2844744,11.977305,3.6150038,11.977305,3.8187828,12.181215L3.8191302,12.180868ZM12.918955,12.180868L13.656693,12.918954C13.85086,13.124143,13.846447,13.446597,13.646743,13.646397C13.447035,13.846197,13.124583,13.850761,12.919302,13.656692L12.181216,12.919302C11.9774,12.715582,11.977321,12.385205,12.181042,12.181391C12.384764,11.977571,12.715139,11.977493,12.918955,12.181215L12.918955,12.180868ZM8,3.1304345C10.68939,3.1304345,12.869563,5.3106089,12.869563,8C12.869563,10.68939,10.689389,12.869563,8,12.869563C5.3106089,12.869563,3.130435,10.689389,3.130435,8C3.130435,5.3106089,5.3106089,3.1304345,8,3.1304345ZM1.5652173,7.478261C1.8533658,7.478261,2.0869563,7.7118506,2.0869563,8C2.0869563,8.2881479,1.8533658,8.5217381,1.5652173,8.5217381L0.52173913,8.5217381C0.23359054,8.5217381,0,8.2881479,0,8C0,7.7118506,0.23359054,7.478261,0.52173913,7.478261L1.5652173,7.478261ZM15.478261,7.478261C15.766409,7.478261,16,7.7118506,16,8C16,8.2881479,15.766409,8.5217381,15.478261,8.5217381L14.434782,8.5217381C14.146633,8.5217381,13.913043,8.2881479,13.913043,8C13.913043,7.7118506,14.146633,7.478261,14.434782,7.478261L15.478261,7.478261ZM3.0810435,2.3433042L3.8187823,3.0806954C4.0225997,3.2844164,4.0226769,3.6147914,3.8189564,3.8186083C3.6152351,4.0224252,3.2848601,4.0225029,3.0810432,3.8187823L2.3433042,3.0810432C2.1491344,2.875855,2.1535444,2.5533972,2.3532522,2.3535953C2.5529604,2.1537933,2.8754158,2.1492314,3.0806954,2.3433046L3.0810435,2.3433042ZM13.656693,2.3433042C13.860138,2.5470035,13.860138,2.8769963,13.656693,3.0806954L12.919302,3.8187823C12.715582,4.0225987,12.385207,4.0226765,12.181391,3.8189554C11.977573,3.6152346,11.977495,3.2848601,12.181216,3.0810432L12.918955,2.3433037C13.122695,2.1396267,13.452955,2.1396267,13.656693,2.3433042ZM8,3.9805535e-8C8.2881479,0,8.5217381,0.23359047,8.5217381,0.52173907L8.5217381,1.5652173C8.5217381,1.8533658,8.2881479,2.0869563,8,2.0869563C7.7118506,2.0869563,7.478261,1.8533658,7.478261,1.5652173L7.478261,0.52173907C7.478261,0.23359047,7.7118506,0,8,3.9805535e-8Z" /></g></g></svg>