<?xml version="1.0" encoding="utf-8"?>
<svg version="1.1" xmlns:xlink="http://www.w3.org/1999/xlink" width="19px" height="19px" xmlns="http://www.w3.org/2000/svg">
  <g transform="matrix(1 0 0 1 -1321 -149 )">
    <path d="M 19 9.5  C 19 14.74685  14.74685 19  9.5 19  C 4.25315000000001 19  0 14.74685  0 9.5  C 0 4.25315000000001  4.25315000000001 0  9.5 0  C 14.74685 0  19 4.25315000000001  19 9.5  Z M 9.5 17.1  C 13.697364098714 17.1  17.1 13.697364098714  17.1 9.5  C 17.1 5.30263590128597  13.697364098714 1.90000000000001  9.5 1.90000000000001  C 5.30263590128597 1.90000000000001  1.9 5.30263590128597  1.9 9.5  C 1.9 13.697364098714  5.30263590128597 17.1  9.5 17.1  Z M 6.8134 5.46915  L 9.5 8.1567  L 12.1866 5.46915  L 13.53085 6.8134  L 10.8433 9.5  L 13.53085 12.1866  L 12.1866 13.53085  L 9.5 10.8433  L 6.8134 13.53085  L 5.46915000000001 12.1866  L 8.1567 9.5  L 5.46915000000001 6.8134  L 6.8134 5.46915  Z " fill-rule="nonzero" fill="#2561ef" stroke="none" transform="matrix(1 0 0 1 1321 149 )" />
  </g>
</svg>