<?xml version="1.0" encoding="utf-8"?>
<svg version="1.1" xmlns:xlink="http://www.w3.org/1999/xlink" width="320px" height="32px" xmlns="http://www.w3.org/2000/svg">
  <g transform="matrix(1 0 0 1 -20 -164 )">
    <path d="M 21 168  A 3 3 0 0 1 24 165 L 336 165  A 3 3 0 0 1 339 168 L 339 192  A 3 3 0 0 1 336 195 L 24 195  A 3 3 0 0 1 21 192 L 21 168  Z " fill-rule="nonzero" fill="#28d094" stroke="none" fill-opacity="0.0588235294117647" />
    <path d="M 20.5 168  A 3.5 3.5 0 0 1 24 164.5 L 336 164.5  A 3.5 3.5 0 0 1 339.5 168 L 339.5 192  A 3.5 3.5 0 0 1 336 195.5 L 24 195.5  A 3.5 3.5 0 0 1 20.5 192 L 20.5 168  Z " stroke-width="1" stroke-dasharray="9,4" stroke="#28d094" fill="none" stroke-opacity="0.498039215686275" stroke-dashoffset="0.5" />
  </g>
</svg>