<?xml version="1.0" encoding="utf-8"?>
<svg version="1.1" xmlns:xlink="http://www.w3.org/1999/xlink" width="13px" height="16px" xmlns="http://www.w3.org/2000/svg">
  <g transform="matrix(1 0 0 1 -1292 -93 )">
    <path d="M 0.318181818181756 4  L 6.36363636363626 0  L 12.409090909091 4  L 12.409090909091 12  L 6.36363636363626 16  L 0.318181818181756 12  L 0.318181818181756 4  Z M 11.1363636363637 4.83854545454545  L 6.36363636363626 1.68072727272724  L 1.59090909090901 4.83854545454545  L 1.59090909090901 11.1614545454545  L 6.36363636363626 14.3192727272728  L 11.1363636363637 11.1614545454545  L 11.1363636363637 4.83854545454545  Z M 6.36363636363626 10.9090909090909  C 4.95782063679439 10.9090909090909  3.81818181818176 9.60664654496233  3.81818181818176 8  C 3.81818181818176 6.39335345503767  4.95782063679439 5.09090909090907  6.36363636363626 5.09090909090907  C 7.76945209047835 5.09090909090907  8.90909090909099 6.39335345503767  8.90909090909099 8  C 8.90909090909099 9.60664654496233  7.76945209047835 10.9090909090909  6.36363636363626 10.9090909090909  Z M 6.36363636363626 9.4545454545455  C 7.06654422705742 9.4545454545455  7.63636363636374 8.80332327248112  7.63636363636374 8  C 7.63636363636374 7.19667672751888  7.06654422705742 6.5454545454545  6.36363636363626 6.5454545454545  C 5.66072850021533 6.5454545454545  5.09090909090901 7.19667672751888  5.09090909090901 8  C 5.09090909090901 8.80332327248112  5.66072850021533 9.4545454545455  6.36363636363626 9.4545454545455  Z " fill-rule="nonzero" fill="#0033cc" stroke="none" transform="matrix(1 0 0 1 1292 93 )" />
  </g>
</svg>