<?xml version="1.0" encoding="utf-8"?>
<svg version="1.1" xmlns:xlink="http://www.w3.org/1999/xlink" width="255px" height="80px" xmlns="http://www.w3.org/2000/svg">
  <defs>
    <filter x="35px" y="187px" width="255px" height="80px" filterUnits="userSpaceOnUse" id="filter265">
      <feOffset dx="0" dy="0" in="SourceAlpha" result="shadowOffsetInner" />
      <feGaussianBlur stdDeviation="2.5" in="shadowOffsetInner" result="shadowGaussian" />
      <feComposite in2="shadowGaussian" operator="atop" in="SourceAlpha" result="shadowComposite" />
      <feColorMatrix type="matrix" values="0 0 0 0 0.949019607843137  0 0 0 0 0.949019607843137  0 0 0 0 0.949019607843137  0 0 0 1 0  " in="shadowComposite" />
    </filter>
    <g id="widget266">
      <path d="M 40.5 196  A 3.5 3.5 0 0 1 44 192.5 L 281 192.5  A 3.5 3.5 0 0 1 284.5 196 L 284.5 258  A 3.5 3.5 0 0 1 281 261.5 L 44 261.5  A 3.5 3.5 0 0 1 40.5 258 L 40.5 196  Z " fill-rule="nonzero" fill="#2561ef" stroke="none" fill-opacity="0.0784313725490196" />
      <path d="M 40.5 196  A 3.5 3.5 0 0 1 44 192.5 L 281 192.5  A 3.5 3.5 0 0 1 284.5 196 L 284.5 258  A 3.5 3.5 0 0 1 281 261.5 L 44 261.5  A 3.5 3.5 0 0 1 40.5 258 L 40.5 196  Z " stroke-width="1" stroke="#2561ef" fill="none" />
    </g>
  </defs>
  <g transform="matrix(1 0 0 1 -35 -187 )">
    <use xlink:href="#widget266" filter="url(#filter265)" />
    <use xlink:href="#widget266" />
  </g>
</svg>