<?xml version="1.0" encoding="utf-8"?>
<svg version="1.1" xmlns:xlink="http://www.w3.org/1999/xlink" width="14px" height="14px" xmlns="http://www.w3.org/2000/svg">
  <g transform="matrix(1 0 0 1 -20 -122 )">
    <path d="M 14 0.777777777777771  L 14 13.2222222222222  C 14 13.6517770276462  13.6517770276462 14  13.2222222222222 14  L 0.777777777777771 14  C 0.348222972353824 14  0 13.6517770276462  0 13.2222222222222  L 0 0.777777777777771  C 0 0.348222972353824  0.348222972353824 0  0.777777777777771 0  L 13.2222222222222 0  C 13.6517770276462 0  14 0.348222972353824  14 0.777777777777771  Z M 6.22222222222223 12.4444444444445  L 6.22222222222223 1.55555555555554  L 1.55555555555554 1.55555555555554  L 1.55555555555554 12.4444444444445  L 6.22222222222223 12.4444444444445  Z M 12.4444444444445 12.4444444444445  L 12.4444444444445 7.77777777777777  L 7.77777777777777 7.77777777777777  L 7.77777777777777 12.4444444444445  L 12.4444444444445 12.4444444444445  Z M 12.4444444444445 6.22222222222223  L 12.4444444444445 1.55555555555554  L 7.77777777777777 1.55555555555554  L 7.77777777777777 6.22222222222223  L 12.4444444444445 6.22222222222223  Z " fill-rule="nonzero" fill="#999999" stroke="none" transform="matrix(1 0 0 1 20 122 )" />
  </g>
</svg>