<?xml version="1.0" encoding="utf-8"?>
<svg version="1.1" xmlns:xlink="http://www.w3.org/1999/xlink" width="15px" height="15px" xmlns="http://www.w3.org/2000/svg">
  <g transform="matrix(1 0 0 1 -33 -83 )">
    <path d="M 10.9090909090909 14.3181818181819  L 0 14.3181818181819  C 0 11.3057195463775  2.4420831827411 8.86363636363637  5.45454545454544 8.86363636363637  C 8.46700772634983 8.86363636363637  10.9090909090909 11.3057195463775  10.9090909090909 14.3181818181819  Z M 9.5454545454545 4.09090909090912  C 9.5454545454545 6.35113636363644  7.7147727272727 8.18181818181824  5.45454545454544 8.18181818181824  C 3.19431818181818 8.18181818181824  1.36363636363637 6.35113636363644  1.36363636363637 4.09090909090912  C 1.36363636363637 1.8306818181818  3.19431818181818 0  5.45454545454544 0  C 7.7147727272727 0  9.5454545454545 1.8306818181818  9.5454545454545 4.09090909090912  Z M 12.2727272727273 12.2727272727274  L 12.2727272727273 10.909090909091  L 15 10.909090909091  L 15 12.2727272727274  L 12.2727272727273 12.2727272727274  Z M 10.2272727272727 8.86363636363637  L 10.2272727272727 7.5  L 15 7.5  L 15 8.86363636363637  L 10.2272727272727 8.86363636363637  Z M 11.5909090909091 5.4545454545455  L 11.5909090909091 4.09090909090912  L 15 4.09090909090912  L 15 5.4545454545455  L 11.5909090909091 5.4545454545455  Z " fill-rule="nonzero" fill="#ffffff" stroke="none" transform="matrix(1 0 0 1 33 83 )" />
  </g>
</svg>