<?xml version="1.0" encoding="utf-8"?>
<svg version="1.1" xmlns:xlink="http://www.w3.org/1999/xlink" width="12px" height="16px" xmlns="http://www.w3.org/2000/svg">
  <g transform="matrix(1 0 0 1 -34 -378 )">
    <path d="M 0 15.4736842105264  C 5.0422782422288E-05 12.5029304120419  2.21048227734354 9.99630068896954  5.15789473684211 9.6246315789474  L 5.15789473684211 14  L 6.63157894736841 14  L 6.63157894736841 9.6246315789474  C 9.53915789473687 9.98715789473681  11.7894736842105 12.4673684210526  11.7894736842105 15.4736842105264  L 0 15.4736842105264  Z M 10.3157894736842 4.42105263157896  C 10.3157894736842 6.86368421052634  8.33736842105262 8.84210526315792  5.89473684210526 8.84210526315792  C 3.4521052631579 8.84210526315792  1.47368421052632 6.86368421052634  1.47368421052632 4.42105263157896  C 1.47368421052632 1.97842105263157  3.4521052631579 0  5.89473684210526 0  C 8.33736842105262 0  10.3157894736842 1.97842105263157  10.3157894736842 4.42105263157896  Z " fill-rule="nonzero" fill="#ffffff" stroke="none" transform="matrix(1 0 0 1 34 378 )" />
  </g>
</svg>