<?xml version="1.0" encoding="utf-8"?>
<svg version="1.1" xmlns:xlink="http://www.w3.org/1999/xlink" width="14px" height="16px" xmlns="http://www.w3.org/2000/svg">
  <g transform="matrix(1 0 0 1 -33 -156 )">
    <path d="M 5.89473676193279 9.57744909261578  C 6.39189282660936 9.57744909261578  6.88705185723234 9.64034254502883  7.3684211428257 9.76463157894739  L 7.3684211428257 15.4736842105263  L 0 15.4736842105263  C 0 15.4731847852686  0 15.4726853599948  0 15.472185934721  C 0 12.2166126725606  2.63916354405035 9.57744909261578  5.89473676193279 9.57744909261578  Z M 10.315789523792 4.42105263157896  C 10.315789523792 6.86368421052634  8.33736849806837 8.84210526315792  5.89473695234244 8.84210526315792  C 3.45210540661662 8.84210526315792  1.47368438089291 6.86368421052634  1.47368438089291 4.42105263157896  C 1.47368438089291 1.97842105263157  3.45210540661662 0  5.89473695234244 0  C 8.33736849806837 0  10.315789523792 1.97842105263157  10.315789523792 4.42105263157896  Z M 8.10526323806721 11.7894736842105  L 10.7475789916036 11.7894736842105  L 9.39989479940675 10.4425263157895  L 10.4425263641735 9.3998947368421  L 13.5682105321885 12.5263157894737  L 10.4425263641735 15.6527368421052  L 9.39989479940675 14.6101052631579  L 10.7475789916036 13.2631578947368  L 8.10526323806721 13.2631578947368  L 8.10526323806721 11.7894736842105  Z " fill-rule="nonzero" fill="#ffffff" stroke="none" transform="matrix(1 0 0 1 33 156 )" />
  </g>
</svg>