<?xml version="1.0" encoding="utf-8"?>
<svg version="1.1" xmlns:xlink="http://www.w3.org/1999/xlink" width="14px" height="17px" xmlns="http://www.w3.org/2000/svg">
  <g transform="matrix(1 0 0 1 -33 -230 )">
    <path d="M 0 15.4736842105263  C 0 12.2181109483658  2.63916357994481 9.57894736842104  5.89473684210526 9.57894736842104  L 5.89473684210526 15.4736842105263  L 0 15.4736842105263  Z M 12.4806315789474 16.2436842105263  L 10.3157894736842 15.1052631578947  L 8.15021052631579 16.2436842105263  L 8.5635789473684 13.8327368421052  L 6.81210526315789 12.1247368421052  L 9.23336842105266 11.7725263157894  L 10.3157894736842 9.57894736842104  L 11.398947368421 11.7725263157894  L 13.8194736842105 12.1247368421052  L 12.068 13.8327368421052  L 12.4806315789474 16.2436842105263  Z M 10.3157894736842 4.42105263157896  C 10.3157894736842 6.86368421052629  8.33736842105264 8.84210526315786  5.89473684210526 8.84210526315786  C 3.45210526315788 8.84210526315786  1.4736842105263 6.86368421052629  1.4736842105263 4.42105263157896  C 1.4736842105263 1.97842105263157  3.45210526315788 0  5.89473684210526 0  C 8.33736842105264 0  10.3157894736842 1.97842105263157  10.3157894736842 4.42105263157896  Z " fill-rule="nonzero" fill="#ffffff" stroke="none" transform="matrix(1 0 0 1 33 230 )" />
  </g>
</svg>