<?xml version="1.0" encoding="utf-8"?>
<svg version="1.1" xmlns:xlink="http://www.w3.org/1999/xlink" width="14px" height="17px" xmlns="http://www.w3.org/2000/svg">
  <g transform="matrix(1 0 0 1 -33 -304 )">
    <path d="M 11.6666666666667 15.5555555555555  L 11.6666666666667 16.3333333333334  L 10.1111111111111 16.3333333333334  L 10.1111111111111 15.5555555555555  L 3.88888888888891 15.5555555555555  L 3.88888888888891 16.3333333333334  L 2.33333333333331 16.3333333333334  L 2.33333333333331 15.5555555555555  L 1.55555555555554 15.5555555555555  C 0.696111111111122 15.5555555555555  0 14.8594444444445  0 14  L 0 3.88888888888891  C 0 3.02944444444449  0.696111111111122 2.33333333333337  1.55555555555554 2.33333333333337  L 3.88888888888891 2.33333333333337  L 3.88888888888891 0.777777777777828  C 3.88888888888891 0.348444444444453  4.23733333333331 0  4.66666666666669 0  L 9.33333333333331 0  C 9.76266666666669 0  10.1111111111111 0.348444444444453  10.1111111111111 0.777777777777828  L 10.1111111111111 2.33333333333337  L 12.4444444444445 2.33333333333337  C 13.3038888888889 2.33333333333337  14 3.02944444444449  14 3.88888888888891  L 14 14  C 14 14.8594444444445  13.3038888888889 15.5555555555555  12.4444444444445 15.5555555555555  L 11.6666666666667 15.5555555555555  Z M 5.44444444444446 12.4444444444445  L 5.44444444444446 5.44444444444446  L 3.88888888888891 5.44444444444446  L 3.88888888888891 12.4444444444445  L 5.44444444444446 12.4444444444445  Z M 10.1111111111111 12.4444444444445  L 10.1111111111111 5.44444444444446  L 8.55555555555554 5.44444444444446  L 8.55555555555554 12.4444444444445  L 10.1111111111111 12.4444444444445  Z M 8.55555555555554 2.33333333333337  L 8.55555555555554 1.55555555555554  L 5.44444444444446 1.55555555555554  L 5.44444444444446 2.33333333333337  L 8.55555555555554 2.33333333333337  Z " fill-rule="nonzero" fill="#ffffff" stroke="none" transform="matrix(1 0 0 1 33 304 )" />
  </g>
</svg>