<?xml version="1.0" encoding="utf-8"?>
<svg version="1.1" xmlns:xlink="http://www.w3.org/1999/xlink" width="15px" height="18px" xmlns="http://www.w3.org/2000/svg">
  <g transform="matrix(1 0 0 1 -33 -155 )">
    <path d="M 11.6363636363637 7.08680792891323  L 8.31168831168827 7.08680792891323  L 8.31168831168827 3.1496924128503  L 6.64935064935071 3.1496924128503  L 6.64935064935071 8.66165413533827  L 11.6363636363637 8.66165413533827  L 11.6363636363637 7.08680792891323  Z M 14.961038961039 7.08686929978865  C 14.961038961039 8.9663925852783  14.1729276400866 10.7689367589961  12.7700779220779 12.0979685577581  L 7.48051948051943 17.1091291866029  L 2.19096103896106 12.0979685577581  C 0.788111320952339 10.7689367589961  0 8.9663925852783  0 7.08686929978865  C 0 3.1729333556699  3.34914265061639 6.13708751870945E-05  7.48051948051943 6.13708751870945E-05  C 11.6118963104226 6.13708751870945E-05  14.961038961039 3.1729333556699  14.961038961039 7.08686929978865  Z " fill-rule="nonzero" fill="#ffffff" stroke="none" transform="matrix(1 0 0 1 33 155 )" />
  </g>
</svg>