<?xml version="1.0" encoding="utf-8"?>
<svg version="1.1" xmlns:xlink="http://www.w3.org/1999/xlink" width="17px" height="18px" xmlns="http://www.w3.org/2000/svg">
  <g transform="matrix(1 0 0 1 -32 -81 )">
    <path d="M 4.85563507789658 10.9296690426672  C 4.85563507789658 9.59815026076694  5.29335217473823 8.30355362524551  6.10138095238096 7.24523809523816  L 3.77238095238096 4.9186666666667  L 1.76961904761907 6.92142857142858  L 0.624952380952323 5.776761904762  L 5.77676190476194 0.624952380952436  L 6.92142857142858 1.76961904761902  L 4.91785714285714 3.77319047619062  L 7.2460476190476 6.10138095238108  C 8.30376515202767 5.29499261730257  9.59701533196073 4.85824047123856  10.9270636493252 4.85824047123856  C 14.2802210590121 4.85824047123856  16.9984922207537 7.5765116329801  16.9984922207537 10.9296690426672  C 16.9984922207537 14.2828264523541  14.2802210590121 17.0010976140959  10.9270636493252 17.0010976140959  C 7.57390623963818 17.0010976140959  4.85563507789658 14.2828264523541  4.85563507789658 10.9296690426672  Z " fill-rule="nonzero" fill="#ffffff" stroke="none" transform="matrix(1 0 0 1 32 81 )" />
  </g>
</svg>