<?xml version="1.0" encoding="utf-8"?>
<svg version="1.1" xmlns:xlink="http://www.w3.org/1999/xlink" width="15px" height="18px" xmlns="http://www.w3.org/2000/svg">
  <g transform="matrix(1 0 0 1 -33 -229 )">
    <path d="M 14.4 7.20006235110463  C 14.4 9.10960580018218  13.6414428535834 10.9409406100078  12.2912000000001 12.2911999999999  L 7.2 17.3824  L 2.10879999999995 12.2911999999999  C 0.758557146416614 10.9409406100078  0 9.10960580018218  0 7.20006235110463  C 0 3.22361215232286  3.22354980121831 6.23511047024294E-05  7.2 6.23511047024294E-05  C 11.1764501987817 6.23511047024294E-05  14.4 3.22361215232286  14.4 7.20006235110463  Z M 7.2 10.4  C 8.96731119945854 10.4  10.4 8.96731119945855  10.4 7.20000000000005  C 10.4 5.43268880054143  8.96731119945854 4  7.2 4  C 5.43268880054147 4  4.00000000000001 5.43268880054143  4.00000000000001 7.20000000000005  C 4.00000000000001 8.96731119945855  5.43268880054147 10.4  7.2 10.4  Z M 7.2 8.80000000000007  C 6.31634440027074 8.80000000000007  5.59999999999995 8.08365559972924  5.59999999999995 7.20000000000005  C 5.59999999999995 6.31634440027074  6.31634440027074 5.59999999999991  7.2 5.59999999999991  C 8.08365559972927 5.59999999999991  8.80000000000005 6.31634440027074  8.80000000000005 7.20000000000005  C 8.80000000000005 8.08365559972924  8.08365559972927 8.80000000000007  7.2 8.80000000000007  Z " fill-rule="nonzero" fill="#ffffff" stroke="none" transform="matrix(1 0 0 1 33 229 )" />
  </g>
</svg>