<?xml version="1.0" encoding="utf-8"?>
<svg version="1.1" xmlns:xlink="http://www.w3.org/1999/xlink" width="14px" height="14px" xmlns="http://www.w3.org/2000/svg">
  <g transform="matrix(1 0 0 1 -33 -157 )">
    <path d="M 0.700000000000045 1.40000000000009  L 7.23869999999999 1.40000000000009  C 7.07918634413556 1.85033124264601  6.99767530190866 2.32457702984971  6.99767530190866 2.8023246980913  C 6.99767530190866 5.12192064738065  8.87807935261935 7.00232469809134  11.1976753019087 7.00232469809134  C 11.6754229701503 7.00232469809134  12.1496687573541 6.92081365586455  12.6 6.76129999999989  L 12.6 13.3  C 12.6 13.6865993248816  12.2865993248815 14  11.9 14  L 0.700000000000045 14  C 0.313400675118487 14  0 13.6865993248816  0 13.3  L 0 2.09999999999991  C 0 1.71340067511846  0.313400675118487 1.40000000000009  0.700000000000045 1.40000000000009  Z M 11.2 5.59999999999991  C 9.65360270047381 5.59999999999991  8.39999999999998 4.34639729952619  8.39999999999998 2.79999999999995  C 8.39999999999998 1.25360270047372  9.65360270047381 0  11.2 0  C 12.7463972995262 0  14 1.25360270047372  14 2.79999999999995  C 14 4.34639729952619  12.7463972995262 5.59999999999991  11.2 5.59999999999991  Z " fill-rule="nonzero" fill="#ffffff" stroke="none" transform="matrix(1 0 0 1 33 157 )" />
  </g>
</svg>