<?xml version="1.0" encoding="utf-8"?>
<svg version="1.1" xmlns:xlink="http://www.w3.org/1999/xlink" width="16px" height="15px" xmlns="http://www.w3.org/2000/svg">
  <g transform="matrix(1 0 0 1 -32 -83 )">
    <path d="M 0 0.79012345679007  C 0 0.353750321121424  0.353750321121375 0  0.790123456790148 0  L 15.0123456790124 0  C 15.4487188146811 0  15.8024691358025 0.353750321121424  15.8024691358025 0.79012345679007  L 15.8024691358025 13.4320987654321  C 15.8024691358025 13.8684719011007  15.4487188146811 14.2222222222222  15.0123456790124 14  L 0.790123456790148 14  C 0.353750321121375 14.2222222222222  0 13.8684719011007  0 13.4320987654321  L 0 0.79012345679007  Z M 11.0617283950617 7.90123456790116  L 8.6913580246914 7.90123456790116  L 8.6913580246914 7.11111111111109  L 11.0617283950617 7.11111111111109  L 11.0617283950617 5.53086419753072  L 9.01846913580246 5.53086419753072  L 10.6951111111111 3.85501234567892  L 9.57708641975316 2.73698765432096  L 7.90123456790126 4.41362962962967  L 6.22538271604935 2.73698765432096  L 5.10735802469137 3.85580246913582  L 6.78400000000005 5.53086419753072  L 4.74074074074078 5.53086419753072  L 4.74074074074078 7.11111111111109  L 7.11111111111111 7.11111111111109  L 7.11111111111111 7.90123456790116  L 4.74074074074078 7.90123456790116  L 4.74074074074078 9.48148148148152  L 7.11111111111111 9.48148148148152  L 7.11111111111111 11.0617283950617  L 8.6913580246914 11.0617283950617  L 8.6913580246914 9.48148148148152  L 11.0617283950617 9.48148148148152  L 11.0617283950617 7.90123456790116  Z " fill-rule="nonzero" fill="#ffffff" stroke="none" transform="matrix(1 0 0 1 32 83 )" />
  </g>
</svg>