<?xml version="1.0" encoding="utf-8"?>
<svg version="1.1" xmlns:xlink="http://www.w3.org/1999/xlink" width="17px" height="14px" xmlns="http://www.w3.org/2000/svg">
  <g transform="matrix(1 0 0 1 -32 -157 )">
    <path d="M 15.5555555555555 0.777777777777828  L 15.5555555555555 2.33333333333326  L 10.1111111111111 2.33333333333326  C 7.5337822785674 2.33333333333326  5.44444444444446 4.4226711674562  5.44444444444446 7  C 5.44444444444446 9.5773288325438  7.5337822785674 11.6666666666667  10.1111111111111 11.6666666666667  L 15.5555555555555 11.6666666666667  L 15.5555555555555 13.2222222222222  C 15.5555555555555 13.6517770276462  15.2073325832017 14  14.7777777777778 14  L 0.777777777777828 14  C 0.348222972353824 14  0 13.6517770276462  0 13.2222222222222  L 0 0.777777777777828  C 0 0.348222972353824  0.348222972353824 0  0.777777777777828 0  L 14.7777777777778 0  C 15.2073325832017 0  15.5555555555555 0.348222972353824  15.5555555555555 0.777777777777828  Z M 10.1111111111111 3.88888888888891  L 16.3333333333334 3.88888888888891  L 16.3333333333334 10.1111111111111  L 10.1111111111111 10.1111111111111  C 8.3928918894153 10.1111111111111  7 8.71821922169579  7 7  C 7 5.28178077830421  8.3928918894153 3.88888888888891  10.1111111111111 3.88888888888891  Z M 12.4444444444445 6.22222222222217  L 10.1111111111111 6.22222222222217  L 10.1111111111111 7.77777777777783  L 12.4444444444445 7.77777777777783  L 12.4444444444445 6.22222222222217  Z " fill-rule="nonzero" fill="#ffffff" stroke="none" transform="matrix(1 0 0 1 32 157 )" />
  </g>
</svg>