<?xml version="1.0" encoding="utf-8"?>
<svg version="1.1" xmlns:xlink="http://www.w3.org/1999/xlink" width="16px" height="14px" xmlns="http://www.w3.org/2000/svg">
  <g transform="matrix(1 0 0 1 -32 -231 )">
    <path d="M 13.3933333333333 14  L 0.777777777777828 14  C 0.348222972353824 14  0 13.6517770276462  0 13.2222222222222  L 0 0.777777777777828  C 0 0.348222972353824  0.348222972353824 0  0.777777777777828 0  L 6.54422222222223 0  L 8.09977777777777 1.55555555555566  L 14 1.55555555555566  C 14.4295548054239 1.55555555555566  14.7777777777778 1.90377852790948  14.7777777777778 2.33333333333348  L 14.7777777777778 4.66666666666652  L 1.55555555555554 4.66666666666652  L 1.55555555555554 12.4413333333332  L 3.11111111111109 6.22222222222217  L 15.9444444444445 6.22222222222217  L 14.1477777777778 13.4112222222222  C 14.0610873740342 13.757279714823  13.750083966407 13.9999906216001  13.3933333333333 14  Z " fill-rule="nonzero" fill="#ffffff" stroke="none" transform="matrix(1 0 0 1 32 231 )" />
  </g>
</svg>