<?xml version="1.0" encoding="utf-8"?>
<svg version="1.1" xmlns:xlink="http://www.w3.org/1999/xlink" width="18px" height="18px" xmlns="http://www.w3.org/2000/svg">
  <g transform="matrix(1 0 0 1 -31 -303 )">
    <path d="M 18 9  C 18 13.9707000000001  13.9707 18  9 18  C 4.02929999999998 18  0 13.9707000000001  0 9  C 0 4.02929999999992  4.02929999999998 0  9 0  C 13.9707 0  18 4.02929999999992  18 9  Z M 12.6 9.89999999999986  L 9.90000000000003 9.89999999999986  L 9.90000000000003 9  L 12.6 9  L 12.6 7.20000000000005  L 10.2726 7.20000000000005  L 12.1824 5.29109999999991  L 10.9089 4.01760000000013  L 9 5.92740000000003  L 7.09109999999998 4.01760000000013  L 5.81759999999997 5.29199999999992  L 7.72740000000005 7.20000000000005  L 5.40000000000003 7.20000000000005  L 5.40000000000003 9  L 8.09999999999997 9  L 8.09999999999997 9.89999999999986  L 5.40000000000003 9.89999999999986  L 5.40000000000003 11.7  L 8.09999999999997 11.7  L 8.09999999999997 13.5  L 9.90000000000003 13.5  L 9.90000000000003 11.7  L 12.6 11.7  L 12.6 9.89999999999986  Z " fill-rule="nonzero" fill="#ffffff" stroke="none" transform="matrix(1 0 0 1 31 303 )" />
  </g>
</svg>