<?xml version="1.0" encoding="utf-8"?>
<svg version="1.1" xmlns:xlink="http://www.w3.org/1999/xlink" width="24px" height="24px" xmlns="http://www.w3.org/2000/svg">
  <g transform="matrix(1 0 0 1 -670 -238 )">
    <path d="M 0 1.33333333333334  C 0 0.596953666892261  0.596953666892261 0  1.33333333333331 0  L 22.6666666666667 0  C 23.4030463331077 0  24 0.596953666892261  24 1.33333333333334  L 24 22.6666666666667  C 24 23.4030463331077  23.4030463331077 24  22.6666666666667 24  L 1.33333333333331 24  C 0.596953666892261 24  0 23.4030463331077  0 22.6666666666667  L 0 1.33333333333334  Z M 10.6666666666667 5.33333333333334  L 10.6666666666667 10.6666666666667  L 5.33333333333331 10.6666666666667  L 5.33333333333331 13.3333333333333  L 10.6666666666667 13.3333333333333  L 10.6666666666667 18.6666666666667  L 13.3333333333333 18.6666666666667  L 13.3333333333333 13.3333333333333  L 18.6666666666667 13.3333333333333  L 18.6666666666667 10.6666666666667  L 13.3333333333333 10.6666666666667  L 13.3333333333333 5.33333333333334  L 10.6666666666667 5.33333333333334  Z " fill-rule="nonzero" fill="#2561ef" stroke="none" transform="matrix(1 0 0 1 670 238 )" />
  </g>
</svg>