<?xml version="1.0" encoding="utf-8"?>
<svg version="1.1" xmlns:xlink="http://www.w3.org/1999/xlink" width="20px" height="19px" xmlns="http://www.w3.org/2000/svg">
  <g transform="matrix(1 0 0 1 -178 -18 )">
    <path d="M 13.6842105263158 0  L 16.8421052631579 0  C 18.5863157894737 0  20 1.41368421052633  20 3.15789473684211  C 20 4.90210526315789  18.5863157894737 6.31578947368422  16.8421052631579 6.31578947368422  L 13.6842105263158 6.31578947368422  C 12.3094736842105 6.31578947368422  11.14 5.43789473684211  10.7063157894737 4.21052631578948  L 9.4736842105263 4.21052631578948  C 8.31578947368422 4.21052631578948  7.36842105263159 5.15789473684211  7.36842105263159 6.31578947368422  L 7.36842105263159 6.4957894736842  C 8.59578947368422 6.92947368421054  9.4736842105263 8.09894736842105  9.4736842105263 9.4736842105263  C 9.4736842105263 10.8484210526316  8.59578947368422 12.0178947368421  7.36842105263159 12.4515789473684  L 7.36842105263159 12.6315789473684  C 7.36842105263159 13.7894736842105  8.31578947368422 14.7368421052632  9.4736842105263 14.7368421052632  L 10.7052631578947 14.7368421052632  C 11.138947368421 13.5105263157895  12.3094736842105 12.6315789473684  13.6842105263158 12.6315789473684  L 16.8421052631579 12.6315789473684  C 18.5863157894737 12.6315789473684  20 14.0452631578947  20 15.7894736842105  C 20 17.5336842105263  18.5863157894737 18.9473684210526  16.8421052631579 18.9473684210526  L 13.6842105263158 18.9473684210526  C 12.3094736842105 18.9473684210526  11.14 18.0694736842105  10.7063157894737 16.8421052631579  L 9.4736842105263 16.8421052631579  C 7.14736842105262 16.8421052631579  5.26315789473685 14.9578947368421  5.26315789473685 12.6315789473684  L 3.15789473684211 12.6315789473684  C 1.41368421052633 12.6315789473684  0 11.2178947368421  0 9.4736842105263  C 0 7.72947368421052  1.41368421052633 6.31578947368422  3.15789473684211 6.31578947368422  L 5.26315789473685 6.31578947368422  C 5.26315789473685 3.98947368421054  7.14736842105262 2.10526315789474  9.4736842105263 2.10526315789474  L 10.7052631578947 2.10526315789474  C 11.138947368421 0.878947368421052  12.3094736842105 0  13.6842105263158 0  Z M 17.8947368421053 15.7894736842105  C 17.8947368421053 15.2084210526316  17.4231578947368 14.7368421052632  16.8421052631579 14.7368421052632  L 13.6842105263158 14.7368421052632  C 13.1031578947369 14.7368421052632  12.6315789473684 15.2084210526316  12.6315789473684 15.7894736842105  C 12.6315789473684 16.3705263157895  13.1031578947369 16.8421052631579  13.6842105263158 16.8421052631579  L 16.8421052631579 16.8421052631579  C 17.4231578947368 16.8421052631579  17.8947368421053 16.3705263157895  17.8947368421053 15.7894736842105  Z M 7.36842105263159 9.4736842105263  C 7.36842105263159 8.89263157894737  6.89684210526315 8.42105263157896  6.31578947368422 8.42105263157896  L 3.15789473684211 8.42105263157896  C 2.57684210526315 8.42105263157896  2.10526315789474 8.89263157894737  2.10526315789474 9.4736842105263  C 2.10526315789474 10.0547368421053  2.57684210526315 10.5263157894737  3.15789473684211 10.5263157894737  L 6.31578947368422 10.5263157894737  C 6.89684210526315 10.5263157894737  7.36842105263159 10.0547368421053  7.36842105263159 9.4736842105263  Z M 17.8947368421053 3.15789473684211  C 17.8947368421053 2.57684210526315  17.4231578947368 2.10526315789474  16.8421052631579 2.10526315789474  L 13.6842105263158 2.10526315789474  C 13.1031578947369 2.10526315789474  12.6315789473684 2.57684210526315  12.6315789473684 3.15789473684211  C 12.6315789473684 3.73894736842107  13.1031578947369 4.21052631578948  13.6842105263158 4.21052631578948  L 16.8421052631579 4.21052631578948  C 17.4231578947368 4.21052631578948  17.8947368421053 3.73894736842107  17.8947368421053 3.15789473684211  Z " fill-rule="nonzero" fill="#fa746b" stroke="none" transform="matrix(1 0 0 1 178 18 )" />
  </g>
</svg>