<?xml version="1.0" encoding="utf-8"?>
<svg version="1.1" xmlns:xlink="http://www.w3.org/1999/xlink" width="120px" height="36px" xmlns="http://www.w3.org/2000/svg">
  <g transform="matrix(1 0 0 1 -40 -132 )">
    <path d="M 41 136  A 3 3 0 0 1 44 133 L 156 133  A 3 3 0 0 1 159 136 L 159 164  A 3 3 0 0 1 156 167 L 44 167  A 3 3 0 0 1 41 164 L 41 136  Z " fill-rule="nonzero" fill="#ffffff" stroke="none" />
    <path d="M 40.5 136  A 3.5 3.5 0 0 1 44 132.5 L 156 132.5  A 3.5 3.5 0 0 1 159.5 136 L 159.5 164  A 3.5 3.5 0 0 1 156 167.5 L 44 167.5  A 3.5 3.5 0 0 1 40.5 164 L 40.5 136  Z " stroke-width="1" stroke-dasharray="9,4" stroke="#e4e4e4" fill="none" stroke-dashoffset="0.5" />
  </g>
</svg>