<?xml version="1.0" encoding="utf-8"?>
<svg version="1.1" xmlns:xlink="http://www.w3.org/1999/xlink" width="20px" height="23px" xmlns="http://www.w3.org/2000/svg">
  <g transform="matrix(1 0 0 1 -30 -18 )">
    <path d="M 8.41797577151625 13.8398934789985  C 9.12793923148564 13.8398934789985  9.83505082801179 13.9307776667928  10.5224699863098 14.1103815439219  L 10.5224699863098 22  L 0 22  C 0 22.3595267527015  0 22.3588050581748  0 22.3580833636481  C 0 17.6536169941932  3.76885612846273 13.8398934789985  8.41797577151625 13.8398934789985  Z M 14.731457872068 6.38864241348716  C 14.731457872068 9.91836734693877  11.9061747537528 12.7772848269743  8.41797604343077 12.7772848269743  C 4.92977733310872 12.7772848269743  2.10449421479358 9.91836734693877  2.10449421479358 6.38864241348716  C 2.10449421479358 2.8589174800355  4.92977733310872 0  8.41797604343077 0  C 11.9061747537528 0  14.731457872068 2.8589174800355  14.731457872068 6.38864241348716  Z M 11.5747169577494 17.036379769299  L 14.731457872068 17.036379769299  L 14.731457872068 13.8420585625555  L 16.835951814947 13.8420585625555  L 16.835951814947 17.036379769299  L 19.9926927292656 17.036379769299  L 19.9926927292656 19.1659272404614  L 16.835951814947 19.1659272404614  L 16.835951814947 22.360248447205  L 14.731457872068 22.360248447205  L 14.731457872068 19.1659272404614  L 11.5747169577494 19.1659272404614  L 11.5747169577494 17.036379769299  Z " fill-rule="nonzero" fill="#28d094" stroke="none" transform="matrix(1 0 0 1 30 18 )" />
  </g>
</svg>