<?xml version="1.0" encoding="utf-8"?>
<svg version="1.1" xmlns:xlink="http://www.w3.org/1999/xlink" width="20px" height="23px" xmlns="http://www.w3.org/2000/svg">
  <g transform="matrix(1 0 0 1 -109 -18 )">
    <path d="M 8.42105251704677 13.6820701323082  C 9.13127546658487 13.6820701323082  9.83864551033196 13.7719179214697  10.5263159183224 13.9494736842105  L 10.5263159183224 22  L 0 22  C 0 22.1045496932409  0 22.103836228564  0 22.1031227638872  C 0 17.4523038179437  3.77023363435762 13.6820701323082  8.42105251704677 13.6820701323082  Z M 14.7368421768458 6.31578947368421  C 14.7368421768458 9.80526315789474  11.9105264258119 12.6315789473684  8.42105278906067 12.6315789473684  C 4.93157915230941 12.6315789473684  2.10526340127558 9.80526315789474  2.10526340127558 6.31578947368421  C 2.10526340127558 2.82631578947368  4.93157915230941 0  8.42105278906067 0  C 11.9105264258119 0  14.7368421768458 2.82631578947368  14.7368421768458 6.31578947368421  Z M 11.5789474829532 16.8421052631579  L 15.3536842737194 16.8421052631579  L 13.4284211420096 14.9178947368421  L 14.9178948059623 13.4284210526316  L 19.3831579031263 17.8947368421053  L 14.9178948059623 22.361052631579  L 13.4284211420096 20.8715789473684  L 15.3536842737194 18.9473684210526  L 11.5789474829532 18.9473684210526  L 11.5789474829532 16.8421052631579  Z " fill-rule="nonzero" fill="#fddb78" stroke="none" transform="matrix(1 0 0 1 109 18 )" />
  </g>
</svg>