<?xml version="1.0" encoding="utf-8"?>
<svg version="1.1" xmlns:xlink="http://www.w3.org/1999/xlink" width="16px" height="16px" xmlns="http://www.w3.org/2000/svg">
  <g transform="matrix(1 0 0 1 -490 -135 )">
    <path d="M 12 0.800000000000011  L 12 3.19999999999999  L 16 3.19999999999999  L 16 4.80000000000001  L 14.4 4.80000000000001  L 14.4 15.2  C 14.4 15.6418277998646  14.0418277998647 16  13.6 16  L 2.39999999999998 16  C 1.95817220013538 16  1.60000000000002 15.6418277998646  1.60000000000002 15.2  L 1.60000000000002 4.80000000000001  L 0 4.80000000000001  L 0 3.19999999999999  L 4 3.19999999999999  L 4 0.800000000000011  C 4 0.358172200135357  4.35817220013536 0  4.80000000000001 0  L 11.2 0  C 11.6418277998646 0  12 0.358172200135357  12 0.800000000000011  Z M 12.8 14.4  L 12.8 4.80000000000001  L 3.19999999999999 4.80000000000001  L 3.19999999999999 14.4  L 12.8 14.4  Z M 5.60000000000002 12  L 5.60000000000002 7.19999999999999  L 7.20000000000005 7.19999999999999  L 7.20000000000005 12  L 5.60000000000002 12  Z M 8.79999999999995 12  L 8.79999999999995 7.19999999999999  L 10.4 7.19999999999999  L 10.4 12  L 8.79999999999995 12  Z M 10.4 1.59999999999999  L 5.60000000000002 1.59999999999999  L 5.60000000000002 3.19999999999999  L 10.4 3.19999999999999  L 10.4 1.59999999999999  Z " fill-rule="nonzero" fill="#cccccc" stroke="none" transform="matrix(1 0 0 1 490 135 )" />
  </g>
</svg>