<?xml version="1.0" encoding="utf-8"?>
<svg version="1.1" xmlns:xlink="http://www.w3.org/1999/xlink" width="509px" height="190px" xmlns="http://www.w3.org/2000/svg">
  <g transform="matrix(1 0 0 1 -19 -105 )">
    <path d="M 20 113  A 7 7 0 0 1 27 106 L 520 106  A 7 7 0 0 1 527 113 L 527 287  A 7 7 0 0 1 520 294 L 27 294  A 7 7 0 0 1 20 287 L 20 113  Z " fill-rule="nonzero" fill="#2561ef" stroke="none" fill-opacity="0.0392156862745098" />
    <path d="M 19.5 113  A 7.5 7.5 0 0 1 27 105.5 L 520 105.5  A 7.5 7.5 0 0 1 527.5 113 L 527.5 287  A 7.5 7.5 0 0 1 520 294.5 L 27 294.5  A 7.5 7.5 0 0 1 19.5 287 L 19.5 113  Z " stroke-width="1" stroke-dasharray="9,4" stroke="#f2f2f2" fill="none" stroke-dashoffset="0.5" />
  </g>
</svg>