<?xml version="1.0" encoding="utf-8"?>
<svg version="1.1" xmlns:xlink="http://www.w3.org/1999/xlink" width="16px" height="16px" xmlns="http://www.w3.org/2000/svg">
  <g transform="matrix(1 0 0 1 -498 -322 )">
    <path d="M 4 7.19999999999999  L 7.19999999999999 7.19999999999999  L 7.19999999999999 4  L 8.80000000000001 4  L 8.80000000000001 7.19999999999999  L 12 7.19999999999999  L 12 8.80000000000001  L 8.80000000000001 8.80000000000001  L 8.80000000000001 12  L 7.19999999999999 12  L 7.19999999999999 8.80000000000001  L 4 8.80000000000001  L 4 7.19999999999999  Z M 16 8  C 16 12.4184  12.4184 16  8 16  C 3.58159999999998 16  0 12.4184  0 8  C 0 3.58159999999998  3.58159999999998 0  8 0  C 12.4184 0  16 3.58159999999998  16 8  Z M 8 14.4  C 11.5346223989171 14.4  14.4 11.5346223989171  14.4 8  C 14.4 4.46537760108293  11.5346223989171 1.60000000000002  8 1.60000000000002  C 4.46537760108293 1.60000000000002  1.60000000000002 4.46537760108293  1.60000000000002 8  C 1.60000000000002 11.5346223989171  4.46537760108293 14.4  8 14.4  Z " fill-rule="nonzero" fill="#2561ef" stroke="none" transform="matrix(1 0 0 1 498 322 )" />
  </g>
</svg>