<?xml version="1.0" encoding="utf-8"?>
<svg version="1.1" xmlns:xlink="http://www.w3.org/1999/xlink" width="14px" height="14px" xmlns="http://www.w3.org/2000/svg">
  <g transform="matrix(1 0 0 1 -20 -213 )">
    <path d="M 0 10.5  L 11.2 10.5  L 11.2 11.9  C 11.2 12.2865993248816  11.5134006751184 12.6  11.9 12.6  C 12.2865993248816 12.6  12.6 12.2865993248816  12.6 11.9  L 12.6 1.40000000000001  L 2.8 1.40000000000001  L 2.8 9.09999999999999  L 1.4 9.09999999999999  L 1.4 0.700000000000003  C 1.4 0.31340067511843  1.71340067511844 0  2.1 0  L 13.3 0  C 13.6865993248816 0  14 0.31340067511843  14 0.700000000000003  L 14 11.9  C 14 13.0597979746447  13.0597979746446 14  11.9 14  L 2.1 14  C 0.940202025355354 14  0 13.0597979746447  0 11.9  L 0 10.5  Z " fill-rule="nonzero" fill="#999999" stroke="none" transform="matrix(1 0 0 1 20 213 )" />
  </g>
</svg>