<?xml version="1.0" encoding="utf-8"?>
<svg version="1.1" xmlns:xlink="http://www.w3.org/1999/xlink" width="20px" height="20px" xmlns="http://www.w3.org/2000/svg">
  <g transform="matrix(1 0 0 1 -1076 -768 )">
    <path d="M 1086 768  C 1091.6 768  1096 772.4  1096 778  C 1096 783.6  1091.6 788  1086 788  C 1080.4 788  1076 783.6  1076 778  C 1076 772.4  1080.4 768  1086 768  Z " fill-rule="nonzero" fill="#fddb78" stroke="none" />
    <path d="M 1086 768.5  C 1091.32 768.5  1095.5 772.68  1095.5 778  C 1095.5 783.32  1091.32 787.5  1086 787.5  C 1080.68 787.5  1076.5 783.32  1076.5 778  C 1076.5 772.68  1080.68 768.5  1086 768.5  Z " stroke-width="1" stroke="#ffffff" fill="none" />
  </g>
</svg>