<?xml version="1.0" encoding="utf-8"?>
<svg version="1.1" xmlns:xlink="http://www.w3.org/1999/xlink" width="15px" height="17px" xmlns="http://www.w3.org/2000/svg">
  <g transform="matrix(1 0 0 1 -56 -298 )">
    <path d="M 6.36257301287981 10.3375640999662  C 6.89918590808634 10.3375640999662  7.43364327447307 10.4054490962216  7.95321647162136 10.5396023391813  L 7.95321647162136 16.7017543859649  L 0 16.7017543859649  C 0 16.7012153237821  0 16.7006762615817  0 16.7001371993815  C 0 13.1861851068908  2.84862096818131 10.3375640999662  6.36257301287981 10.3375640999662  Z M 11.1345029780613 4.77192982456143  C 11.1345029780613 7.40842105263158  8.99906441061344 9.54385964912279  6.36257321840141 9.54385964912279  C 3.72608202618931 9.54385964912279  1.59064345874155 7.40842105263158  1.59064345874155 4.77192982456143  C 1.59064345874155 2.13543859649121  3.72608202618931 0  6.36257321840141 0  C 8.99906441061344 0  11.1345029780613 2.13543859649121  11.1345029780613 4.77192982456143  Z M 8.74853809823131 12.7251461988304  L 11.6005614512547 12.7251461988304  L 10.1459181961851 11.271298245614  L 11.2712982978381 10.145918128655  L 14.6450526379176 13.5204678362573  L 11.2712982978381 16.8950175438596  L 10.1459181961851 15.7696374269006  L 11.6005614512547 14.3157894736842  L 8.74853809823131 14.3157894736842  L 8.74853809823131 12.7251461988304  Z " fill-rule="nonzero" fill="#ffc71c" stroke="none" transform="matrix(1 0 0 1 56 298 )" />
  </g>
</svg>