<?xml version="1.0" encoding="utf-8"?>
<svg version="1.1" xmlns:xlink="http://www.w3.org/1999/xlink" width="14px" height="14px" xmlns="http://www.w3.org/2000/svg">
  <g transform="matrix(1 0 0 1 -225 -150 )">
    <path d="M 0 6.00000000000006  C 0 2.68800000000002  2.68799999999996 0  5.99999999999997 0  C 9.31199999999998 0  12 2.68800000000002  12 6.00000000000006  C 12 9.31200000000001  9.31199999999998 12  5.99999999999997 12  C 2.68799999999996 12  0 9.31200000000001  0 6.00000000000006  Z M 1.33333333333334 6.00000000000006  C 1.33333333333334 8.578  3.42133333333337 10.6666666666667  5.99999999999997 10.6666666666667  C 8.578 10.6666666666667  10.6666666666667 8.578  10.6666666666667 6.00000000000006  C 10.6666666666667 3.42133333333328  8.578 1.33333333333334  5.99999999999997 1.33333333333334  C 3.42133333333337 1.33333333333334  1.33333333333334 3.42133333333328  1.33333333333334 6.00000000000006  Z M 10.714 11.6566666666667  L 11.6566666666667 10.714  L 13.5426666666667 12.5993333333333  L 12.5993333333334 13.5426666666667  L 10.714 11.6566666666667  Z " fill-rule="nonzero" fill="#333333" stroke="none" transform="matrix(1 0 0 1 225 150 )" />
  </g>
</svg>