<?xml version="1.0" encoding="utf-8"?>
<svg version="1.1" xmlns:xlink="http://www.w3.org/1999/xlink" width="15px" height="18px" xmlns="http://www.w3.org/2000/svg">
  <g transform="matrix(1 0 0 1 -56 -343 )">
    <path d="M 0 16.578947368421  C 0 13.0908331589634  2.82767526422657 10.2631578947368  6.31578947368422 10.2631578947368  L 6.31578947368422 16.578947368421  L 0 16.578947368421  Z M 13.3721052631579 17.403947368421  L 11.0526315789473 16.1842105263158  L 8.73236842105263 17.403947368421  L 9.17526315789473 14.8207894736842  L 7.29868421052629 12.9907894736842  L 9.8928947368421 12.6134210526316  L 11.0526315789473 10.2631578947368  L 12.2131578947369 12.6134210526316  L 14.8065789473684 12.9907894736842  L 12.93 14.8207894736842  L 13.3721052631579 17.403947368421  Z M 11.0526315789473 4.73684210526318  C 11.0526315789473 7.35394736842102  8.93289473684212 9.4736842105263  6.31578947368422 9.4736842105263  C 3.69868421052632 9.4736842105263  1.57894736842104 7.35394736842102  1.57894736842104 4.73684210526318  C 1.57894736842104 2.11973684210528  3.69868421052632 0  6.31578947368422 0  C 8.93289473684212 0  11.0526315789473 2.11973684210528  11.0526315789473 4.73684210526318  Z " fill-rule="nonzero" fill="#6c76f4" stroke="none" transform="matrix(1 0 0 1 56 343 )" />
  </g>
</svg>