<?xml version="1.0" encoding="utf-8"?>
<svg version="1.1" xmlns:xlink="http://www.w3.org/1999/xlink" width="16px" height="18px" xmlns="http://www.w3.org/2000/svg">
  <g transform="matrix(1 0 0 1 -56 -251 )">
    <path d="M 0.882666666666694 0  L 11.5555555555555 0  L 16 4.4444444444444  L 16 16.8959999999999  C 15.9995094295898 17.3831361703496  15.6044697506974 17.777778024792  15.1173333333333 17.7777777777777  L 0.882666666666694 17.7777777777777  C 0.396938261216917 17.7743930461216  0.00387412871100423 17.381724748593  0 16.8959999999999  L 0 0.881777777777756  C 0 0.394666666666637  0.395555555555575 0  0.882666666666694 0  Z M 8 8.4444444444444  C 9.22729944406842 8.4444444444444  10.2222222222222 7.44952166629059  10.2222222222222 6.22222222222217  C 10.2222222222222 4.99492277815375  9.22729944406842 4  8 4  C 6.77270055593158 4  5.77777777777777 4.99492277815375  5.77777777777777 6.22222222222217  C 5.77777777777777 7.44952166629059  6.77270055593158 8.4444444444444  8 8.4444444444444  Z M 8 9.77085361857729  C 5.96018648283592 9.77085361857729  4.24711494796856 11.3057586972722  4.024 13.3333333333333  L 11.976 13.3333333333333  C 11.7528850520314 11.3057586972722  10.0398135171641 9.77085361857729  8 9.77085361857729  Z " fill-rule="nonzero" fill="#fa746b" stroke="none" transform="matrix(1 0 0 1 56 251 )" />
  </g>
</svg>