<?xml version="1.0" encoding="utf-8"?>
<svg version="1.1" xmlns:xlink="http://www.w3.org/1999/xlink" width="16px" height="17px" xmlns="http://www.w3.org/2000/svg">
  <g transform="matrix(1 0 0 1 -97 -16 )">
    <path d="M 1.41638095238095 1.43009523809524  L 10.9935238095238 0.0624761904761897  C 11.0114409488134 0.0599059110128639  11.0295184925382 0.0586158691091203  11.0476190510058 0.0586158691091203  C 11.2580132414175 0.0586158691091203  11.4285714319582 0.22917405964977  11.4285714319582 0.439568250061502  L 11.4285714285714 16.3222857142857  C 11.4285395568589 16.532657363518  11.2579907036376 16.7031803802148  11.047619051991 16.7031803802148  C 11.0297753455059 16.7031803802148  11.011953687062 16.7019266905413  10.9942857142857 16.6994285714286  L 1.41561904761905 15.3318095238095  C 1.04012566146255 15.2783306811306  0.761146496707951 14.9568063818209  1 14.5775238095238  L 1 2.18438095238095  C 0.761146496707951 1.80509838008387  1.04012566146257 1.48357408077413  1.41561904761905 1.43009523809524  Z M 10 1.75695238095238  L 2.28571428571429 2.84571428571429  L 2.28571428571429 13.9161904761905  L 10 15.0049523809524  L 10 1.75695238095238  Z M 12.1904761904762 15.2380952380952  L 12.1904761904762 13.7142857142857  L 14.4761904761905 13.7142857142857  L 14.4761904761905 3.04761904761905  L 12.1904761904762 3.04761904761905  L 12.1904761904762 1.52380952380952  L 15.2380952380952 1.52380952380952  C 15.6588836189187 1.52380952380952  16 1.86492590489082  16 2.28571428571428  L 16 14.4761904761905  C 16 14.8969788570139  15.6588836189187 15.2380952380952  15.2380952380952 15.2380952380952  L 12.1904761904762 15.2380952380952  Z M 9.14285714285714 5.33333333333334  L 7.00952380952381 8.38095238095238  L 9.14285714285714 11.4285714285714  L 7.31428571428572 11.4285714285714  L 6.0952380952381 9.68685714285714  L 4.87619047619047 11.4285714285714  L 3.04761904761905 11.4285714285714  L 5.18095238095238 8.38095238095238  L 3.04761904761905 5.33333333333334  L 4.87619047619047 5.33333333333334  L 6.0952380952381 7.07504761904762  L 7.31428571428572 5.33333333333334  L 9.14285714285714 5.33333333333334  Z " fill-rule="nonzero" fill="#28d094" stroke="none" transform="matrix(1 0 0 1 97 16 )" />
  </g>
</svg>