<?xml version="1.0" encoding="utf-8"?>
<svg version="1.1" xmlns:xlink="http://www.w3.org/1999/xlink" width="16px" height="14px" xmlns="http://www.w3.org/2000/svg">
  <g transform="matrix(1 0 0 1 -56 -207 )">
    <path d="M 14.7777777777778 14  L 4.66666666666666 14  L 4.66666666666666 6.22222222222223  L 15.5555555555556 6.22222222222223  L 15.5555555555556 13.2222222222222  C 15.5555555555556 13.6517770276462  15.2073325832017 14  14.7777777777778 14  Z M 3.11111111111111 5.44444444444446  L 3.11111111111111 14  L 0.777777777777779 14  C 0.348222972353831 14  0 13.6517770276462  0 13.2222222222222  L 0 0.777777777777771  C 0 0.348222972353824  0.348222972353831 0  0.777777777777779 0  L 6.54422222222222 0  L 8.09977777777777 1.55555555555554  L 14.7777777777778 1.55555555555554  C 15.2073325832017 1.55555555555554  15.5555555555556 1.9037785279094  15.5555555555556 2.33333333333334  L 15.5555555555556 4.66666666666666  L 3.88888888888889 4.66666666666666  C 3.45933408346494 4.66666666666666  3.11111111111111 5.01488963902048  3.11111111111111 5.44444444444446  Z " fill-rule="nonzero" fill="#28d094" stroke="none" transform="matrix(1 0 0 1 56 207 )" />
  </g>
</svg>