<?xml version="1.0" encoding="utf-8"?>
<svg version="1.1" xmlns:xlink="http://www.w3.org/1999/xlink" width="15px" height="15px" xmlns="http://www.w3.org/2000/svg">
  <g transform="matrix(1 0 0 1 -69 -17 )">
    <path d="M 14.1176468695734 5.87450980392155  L 14.1176468695734 14.1176470588235  C 14.1176468695734 14.5508115684947  13.7664976631689 14.9019607843137  13.333333165111 15  L 0.784313893712507 15  C 0.351149395654673 14.9019607843137  0 14.5508115684947  0 14.1176470588235  L 0 5.87450980392155  C -0.00016784782592083 5.63230768474  0.111573601175095 5.40361403946145  0.302745279172612 5.25490196078433  L 6.57725491487188 0.374901960784335  C 6.86049694905248 0.154568391427325  7.25715010977107 0.154568391427325  7.54039214395167 0.374901960784335  L 13.8149017796509 5.25490196078433  C 14.0060734576485 5.40361403946145  14.1178149066495 5.63230768474  14.1176468695734 5.87450980392155  Z M 7.8431372338742 8.62745098039215  L 6.27450982494939 8.62745098039215  L 6.27450982494939 13.3333333333334  L 7.8431372338742 13.3333333333334  L 7.8431372338742 8.62745098039215  Z " fill-rule="nonzero" fill="#6c76f4" stroke="none" transform="matrix(1 0 0 1 69 17 )" />
  </g>
</svg>