<?xml version="1.0" encoding="utf-8"?>
<svg version="1.1" xmlns:xlink="http://www.w3.org/1999/xlink" width="22px" height="22px" xmlns="http://www.w3.org/2000/svg">
  <g transform="matrix(1 0 0 1 -229 -34 )">
    <path d="M 5.5 0  L 7.69999999999999 0  L 7.69999999999999 2.19999999999998  L 14.3 2.19999999999998  L 14.3 0  L 16.5 0  L 16.5 2.19999999999998  L 20.9 2.19999999999998  C 21.5075132248139 2.19999999999998  22 2.69248677518612  22 3.30000000000002  L 22 20.9  C 22 21.5075132248139  21.5075132248139 22  20.9 22  L 1.09999999999999 22  C 0.492486775186137 22  0 21.5075132248139  0 20.9  L 0 3.30000000000002  C 0 2.69248677518612  0.492486775186137 2.19999999999998  1.09999999999999 2.19999999999998  L 5.5 2.19999999999998  L 5.5 0  Z M 19.8 19.8  L 19.8 8  L 2.19999999999999 8  L 2.19999999999999 19.8  L 19.8 19.8  Z M 14.3407 10.0496  L 14.3396 10.0496  L 15.895 11.605  L 10.45 17.05  L 6.56039999999999 13.1604  L 8.118 11.605  L 10.4511 13.9392  L 14.3407 10.0496  Z " fill-rule="nonzero" fill="#2561ef" stroke="none" transform="matrix(1 0 0 1 229 34 )" />
  </g>
</svg>