<?xml version="1.0" encoding="utf-8"?>
<svg version="1.1" xmlns:xlink="http://www.w3.org/1999/xlink" width="24px" height="24px" xmlns="http://www.w3.org/2000/svg">
  <g transform="matrix(1 0 0 1 -318 -34 )">
    <path d="M 24 12  C 24 18.6276  18.6276 24  12 24  C 5.37240000000003 24  0 18.6276  0 12  C 0 5.37240000000003  5.37240000000003 0  12 0  C 18.6276 0  24 5.37240000000003  24 12  Z M 16.8 13.2  L 13.2 13.2  L 13.2 12  L 16.8 12  L 16.8 9.60000000000002  L 13.6968 9.60000000000002  L 16.2432 7.0548  L 14.5452 5.35680000000002  L 12 7.90320000000003  L 9.45479999999998 5.35680000000002  L 7.7568 7.05599999999998  L 10.3032 9.60000000000002  L 7.19999999999999 9.60000000000002  L 7.19999999999999 12  L 10.8 12  L 10.8 13.2  L 7.19999999999999 13.2  L 7.19999999999999 15.6  L 10.8 15.6  L 10.8 18  L 13.2 18  L 13.2 15.6  L 16.8 15.6  L 16.8 13.2  Z " fill-rule="nonzero" fill="#fa746b" stroke="none" transform="matrix(1 0 0 1 318 34 )" />
  </g>
</svg>