<?xml version="1.0" encoding="utf-8"?>
<svg version="1.1" xmlns:xlink="http://www.w3.org/1999/xlink" width="24px" height="20px" xmlns="http://www.w3.org/2000/svg">
  <g transform="matrix(1 0 0 1 -408 -34 )">
    <path d="M 5.21739130434781 8.42191304347824  C 6.48690042911755 8.60376681929921  7.68571155097652 9.11821159201287  8.69217391304346 9.91304347826087  L 10.9565217391304 9.91304347826087  C 13.5498588252924 9.91304347826087  15.6521739130435 12.0153585660119  15.6521739130435 14.6086956521739  L 8.34678260869566 14.6086956521739  L 8.3478260869565 15.6521739130435  L 16.6956521739131 15.6521739130435  L 16.6956521739131 14.6086956521739  C 16.692361980129 13.4983962455962  16.3715724472547 12.4122014390238  15.7711304347826 11.4782608695652  L 18.7826086956522 11.4782608695652  C 20.7957985996568 11.4777054999558  22.6296875446773 12.6354595704283  23.4949565217391 14.4532173913043  C 21.0271304347826 17.7099130434783  17.031652173913 19.8260869565217  12.5217391304348 19.8260869565217  C 9.64069565217392 19.8260869565217  7.19999999999999 19.2104347826087  5.21739130434781 18.1304347826087  L 5.21739130434781 8.42191304347824  Z M 1.04347826086956 7.30434782608694  L 3.13043478260869 7.30434782608694  C 3.65945199610621 7.30441761177798  4.10471368573735 7.70035524717002  4.1666086956522 8.22573913043476  L 4.17391304347825 8.3478260869565  L 4.17391304347825 17.7391304347826  C 4.17391304347825 18.3154275650409  3.70673191286693 18.7826086956522  3.13043478260869 18.7826086956522  L 1.04347826086956 18.7826086956522  C 0.467181130611323 18.7826086956522  0 18.3154275650409  0 17.7391304347826  L 0 8.3478260869565  C 0 7.77152895669832  0.467181130611323 7.30434782608694  1.04347826086956 7.30434782608694  Z M 11.3428833397786 0.871054969036493  C 12.0388380903972 0.871054969036493  12.7059404724565 1.14914527631919  13.1958260869565 1.64347826086959  L 13.5652173913044 2.01391304347828  L 13.9346086956522 1.64452173913043  C 14.4244540033548 1.15050897557381  15.0913330324516 0.87262247021323  15.7870319874854 0.87262247021323  C 17.227774813131 0.87262247021323  18.3957276396593 2.04057529674157  18.3957276396593 3.48131812238711  C 18.3957276396593 4.17727287300579  18.1176373323765 4.84437525506513  17.6233043478261 5.33426086956524  L 13.5652173913044 9.39130434782606  L 9.50608695652176 5.3321739130435  C 9.0120741929652 4.84232860534092  8.73418768760467 4.17544957624409  8.73418768760467 3.47975062121043  C 8.73418768760467 2.03900779556483  9.90214051413301 0.871054969036493  11.3428833397786 0.871054969036493  Z " fill-rule="nonzero" fill="#fddb78" stroke="none" transform="matrix(1 0 0 1 408 34 )" />
  </g>
</svg>