<?xml version="1.0" encoding="utf-8"?>
<svg version="1.1" xmlns:xlink="http://www.w3.org/1999/xlink" width="23px" height="22px" xmlns="http://www.w3.org/2000/svg">
  <g transform="matrix(1 0 0 1 -49 -124 )">
    <path d="M 1.09316770186335 0  L 18.583850931677 0  C 19.1872795031056 0  19.6770186335404 0.489739130434785  19.6770186335404 1.09316770186335  L 19.6770186335404 5.20019875776399  L 9.83960248447205 15.0387080745342  L 9.83304347826088 19.6715527950311  L 14.4746335403727 19.6781118012422  L 19.6770186335404 14.4757267080745  L 19.6770186335404 20.7701863354037  C 19.6770186335404 21.3736149068323  19.1872795031056 21.8633540372671  18.583850931677 21.8633540372671  L 1.09316770186335 21.8633540372671  C 0.489739130434785 21.8633540372671  0 21.3736149068323  0 20.7701863354037  L 0 1.09316770186335  C 0 0.489739130434785  0.489739130434785 0  1.09316770186335 0  Z M 12.0248447204969 15.9449440993789  L 20.5275031055901 7.4422857142857  L 22.0732422360249 8.98802484472051  L 13.5705838509317 17.4906832298137  L 12.0226583850932 17.4884968944099  L 12.0248447204969 15.9449440993789  Z M 9.83850931677018 13.1180124223603  L 9.83850931677018 10.9316770186336  L 4.37267080745343 10.9316770186336  L 4.37267080745343 13.1180124223603  L 9.83850931677018 13.1180124223603  Z M 13.1180124223603 8.74534161490683  L 13.1180124223603 6.55900621118013  L 4.37267080745343 6.55900621118013  L 4.37267080745343 8.74534161490683  L 13.1180124223603 8.74534161490683  Z " fill-rule="nonzero" fill="#fddb78" stroke="none" transform="matrix(1 0 0 1 49 124 )" />
  </g>
</svg>