<?xml version="1.0" encoding="utf-8"?>
<svg version="1.1" xmlns:xlink="http://www.w3.org/1999/xlink" width="23px" height="22px" xmlns="http://www.w3.org/2000/svg">
  <g transform="matrix(1 0 0 1 -139 -124 )">
    <path d="M 16 22  L 0 22  C 0 17.5817220013537  3.58172200135365 14  8 14  C 12.4182779986463 14  16 17.5817220013537  16 22  Z M 14 7  C 14 10.315  11.315 13  8 13  C 4.685 13  2 10.315  2 7  C 2 3.685  4.685 1  8 1  C 11.315 1  14 3.685  14 7  Z M 15.57 4.404  L 17.246 3.184  C 17.7454365823155 4.39415882967492  18.0016452361493 5.69083286552359  18 7  C 18.0016452361493 8.30916713447641  17.7454365823155 9.60584117032508  17.246 10.816  L 15.569 9.596  C 15.8551589657545 8.7604353853085  16.0008005105668 7.88320696226255  16 7  C 16.0011223853477 6.11684905550684  15.8558190043148 5.23962213187572  15.57 4.404  Z M 18.903 1.98  L 20.548 0.783999999999999  C 21.5062017454129 2.71582741322606  22.0032277354769 4.84359156903712  22 7  C 22 9.233  21.477 11.344  20.548 13.216  L 18.903 12.02  C 19.6282087718064 10.4459610182695  20.0025205420195 8.73306668238128  20 7  C 20 5.208  19.607 3.507  18.903 1.98  Z " fill-rule="nonzero" fill="#fa746b" stroke="none" transform="matrix(1 0 0 1 139 124 )" />
  </g>
</svg>