<?xml version="1.0" encoding="utf-8"?>
<svg version="1.1" xmlns:xlink="http://www.w3.org/1999/xlink" width="22px" height="21px" xmlns="http://www.w3.org/2000/svg">
  <g transform="matrix(1 0 0 1 -319 -124 )">
    <path d="M 20.9 16.5  L 12.1 16.5  L 12.1 18.7  L 16.5 18.7  L 16.5 21  L 5.5 21  L 5.5 18.7  L 9.90000000000003 18.7  L 9.90000000000003 16.5  L 1.09999999999997 16.5  C 0.492486775186137 16.5  0 16.0075132248139  0 15.4  L 0 1.09999999999998  C 0 0.492486775186137  0.492486775186137 0  1.09999999999997 0  L 20.9 0  C 21.5075132248139 0  22 0.492486775186137  22 1.09999999999998  L 22 15.4  C 22 16.0075132248139  21.5075132248139 16.5  20.9 16.5  Z M 14.3 8.25  L 8.80000000000001 4.95000000000002  L 8.80000000000001 11.55  L 14.3 8.25  Z " fill-rule="nonzero" fill="#6c76f4" stroke="none" transform="matrix(1 0 0 1 319 124 )" />
  </g>
</svg>