<?xml version="1.0" encoding="utf-8"?>
<svg version="1.1" xmlns:xlink="http://www.w3.org/1999/xlink" width="22px" height="24px" xmlns="http://www.w3.org/2000/svg">
  <g transform="matrix(1 0 0 1 -409 -124 )">
    <path d="M 18.7 22  L 18.7 21  L 3.30000000000001 21  L 3.30000000000001 22  C 3.30000000000001 22.6075132248139  2.80751322481387 23.1  2.19999999999999 23.1  L 1.10000000000002 23.1  C 0.492486775186137 23.1  0 22.6075132248139  0 22  L 0 12.1  L 2.65870000000001 7.66810000000001  C 3.05629630701651 7.00544692319474  3.7724180621305 6.59999256505148  4.54520000000002 7  L 17.4548 7  C 18.2275819378696 6.59999256505148  18.9437036929835 7.00544692319474  19.3413 7.66810000000001  L 22 12.1  L 22 22  C 22 22.6075132248139  21.5075132248139 23.1  20.9 23.1  L 19.8 23.1  C 19.1924867751861 23.1  18.7 22.6075132248139  18.7 22  Z M 4.54520000000002 9  L 2.5652 12  L 19.4348 12  L 17.4548 9  L 4.54520000000002 9  Z M 4.94999999999999 17.6  C 5.86126983722079 17.6  6.60000000000002 16.8612698372208  6.60000000000002 15.95  C 6.60000000000002 15.0387301627792  5.86126983722079 14.3  4.94999999999999 14.3  C 4.03873016277919 14.3  3.30000000000001 15.0387301627792  3.30000000000001 15.95  C 3.30000000000001 16.8612698372208  4.03873016277919 17.6  4.94999999999999 17.6  Z M 17.05 17.6  C 17.9612698372208 17.6  18.7 16.8612698372208  18.7 15.95  C 18.7 15.0387301627792  17.9612698372208 14.3  17.05 14.3  C 16.1387301627792 14.3  15.4 15.0387301627792  15.4 15.95  C 15.4 16.8612698372208  16.1387301627792 17.6  17.05 17.6  Z M 3.78289999999998 1.5818  L 3.78399999999999 1.584  L 4.94999999999999 0.415800000000004  L 6.11599999999999 1.5818  C 6.42554280402567 1.89124933621035  6.59944999999999 2.3110088064611  6.59944999999999 2.74870235131309  C 6.59944999999999 3.65997218853389  5.86071983722081 4.39870235131309  4.94945000000001 4.39870235131309  C 4.03818016277921 4.39870235131309  3.29944999999998 3.65997218853389  3.29944999999998 2.74870235131309  C 3.29944999999998 2.3110088064611  3.47335719597436 1.89124933621035  3.78289999999998 1.5818  Z M 9.8329 1.5818  L 9.834 1.584  L 11 0.415800000000004  L 12.166 1.5818  C 12.4755428040257 1.89124933621035  12.64945 2.31100880646109  12.64945 2.74870235131309  C 12.64945 3.65997218853389  11.9107198372208 4.39870235131309  10.99945 4.39870235131309  C 10.0881801627792 4.39870235131309  9.34944999999999 3.65997218853389  9.34944999999999 2.74870235131309  C 9.34944999999999 2.31100880646109  9.52335719597431 1.89124933621035  9.8329 1.5818  Z M 15.8829 1.5829  L 15.884 1.584  L 17.05 0.416899999999998  L 18.216 1.5829  C 18.5255428040256 1.89234933621036  18.69945 2.3121088064611  18.69945 2.74980235131308  C 18.69945 3.66107218853389  17.9607198372208 4.39980235131307  17.04945 4.39980235131307  C 16.1381801627792 4.39980235131307  15.39945 3.66107218853389  15.39945 2.74980235131308  C 15.39945 2.3121088064611  15.5733571959743 1.89234933621036  15.8829 1.5829  Z " fill-rule="nonzero" fill="#2561ef" stroke="none" transform="matrix(1 0 0 1 409 124 )" />
  </g>
</svg>