<?xml version="1.0" encoding="utf-8"?>
<svg version="1.1" xmlns:xlink="http://www.w3.org/1999/xlink" width="20px" height="23px" xmlns="http://www.w3.org/2000/svg">
  <g transform="matrix(1 0 0 1 -50 -214 )">
    <path d="M 20 21.1111111111111  C 20 21.7247608331454  19.5025386109231 22.2222222222222  18.8888888888889 22  L 1.11111111111111 22  C 0.497461389076904 22.2222222222222  0 21.7247608331454  0 21.1111111111111  L 0 1.11111111111111  C 0 0.497461389076904  0.497461389076904 0  1.11111111111111 0  L 18.8888888888889 0  C 19.5025386109231 0  20 0.497461389076904  20 1.11111111111111  L 20 21.1111111111111  Z M 8.88888888888889 4.44444444444446  L 4.44444444444446 4.44444444444446  L 4.44444444444446 8.88888888888889  L 8.88888888888889 8.88888888888889  L 8.88888888888889 4.44444444444446  Z M 15.5555555555555 11  L 4.44444444444446 11  L 4.44444444444446 13  L 15.5555555555555 13  L 15.5555555555555 11  Z M 15.5555555555555 15.5555555555555  L 4.44444444444446 15.5555555555555  L 4.44444444444446 17.7777777777778  L 15.5555555555555 17.7777777777778  L 15.5555555555555 15.5555555555555  Z M 15.5555555555555 5.55555555555554  L 11.1111111111111 5.55555555555554  L 11.1111111111111 7.77777777777777  L 15.5555555555555 7.77777777777777  L 15.5555555555555 5.55555555555554  Z " fill-rule="nonzero" fill="#28d094" stroke="none" transform="matrix(1 0 0 1 50 214 )" />
  </g>
</svg>