<?xml version="1.0" encoding="utf-8"?>
<svg version="1.1" xmlns:xlink="http://www.w3.org/1999/xlink" width="23px" height="22px" xmlns="http://www.w3.org/2000/svg">
  <g transform="matrix(1 0 0 1 -139 -214 )">
    <path d="M 15.3654285714286 14.6666666666667  L 18.8571428571429 12.047619047619  L 18.8571428571429 21.4761904761905  L 15.3654285714286 18.8571428571429  L 12.5714285714286 18.8571428571429  L 12.5714285714286 14.6666666666667  L 15.3654285714286 14.6666666666667  Z M 1.04761904761904 0  L 19.9047619047619 0  C 20.4833459283942 0  20.9523809523809 0.469035023986777  20.9523809523809 1.04761904761904  L 20.9523809523809 10.4761904761905  L 18.8571428571429 10.4761904761905  L 18.8571428571429 4.43876190476192  L 10.5516190476191 11.8779047619048  L 2 4.41571428571427  L 2 16.7619047619048  L 10.4761904761905 16.7619047619048  L 10.4761904761905 18.8571428571429  L 1.04761904761904 18.8571428571429  C 0.469035023986777 18.8571428571429  0 18.3881078331561  0 17.8095238095238  L 0 1.04761904761904  C 0 0.469035023986777  0.469035023986777 0  1.04761904761904 0  Z M 19.9047619047619 18.8571428571429  L 19.9047619047619 14.6666666666667  C 19.9078872893563 14.6666526803978  19.911012701332 14.6666456872371  19.9141381172209 14.6666456872371  C 21.0713061644855 14.6666456872371  22.009376212459 15.6047157352106  22.009376212459 16.7618837824752  C 22.009376212459 17.8617105867477  21.1589930116329 18.7743394880726  20.0619047619047 18.8519047619048  L 19.9047619047619 18.8571428571429  Z M 10.5400952380952 9.07447619047619  L 18.3333333333333 2  L 2.63057142857141 2  L 10.5400952380952 9.07447619047619  Z " fill-rule="nonzero" fill="#2561ef" stroke="none" transform="matrix(1 0 0 1 139 214 )" />
  </g>
</svg>