<?xml version="1.0" encoding="utf-8"?>
<svg version="1.1" xmlns:xlink="http://www.w3.org/1999/xlink" width="20px" height="23px" xmlns="http://www.w3.org/2000/svg">
  <g transform="matrix(1 0 0 1 -230 -214 )">
    <path d="M 1.12222222222223 4.44444444444446  L 4.44444444444446 4.44444444444446  L 4.44444444444446 1.11111111111111  C 4.44444444444446 0.497461389076904  4.94190583352133 0  5.55555555555554 0  L 18.8888888888889 0  C 19.5025386109231 0  20 0.497461389076904  20 1.11111111111111  L 20 16.6666666666667  C 20 17.2803163887009  19.5025386109231 17.7777777777778  18.8888888888889 17.7777777777778  L 15.5555555555555 17.7777777777778  L 15.5555555555555 21.1111111111111  C 15.5555555555555 21.7244444444445  15.0555555555555 22.2222222222222  14.4366666666667 22  L 1.11888888888888 22  C 1.11666651321747 22.2222355444641  1.11444410260722 22.22224220563  1.11222168700547 22.22224220563  C 0.498384383915607 22.22224220563  0.000602195202901612 21.7249481188139  0 21.1111111111111  L 0.0033333333333303 5.55555555555554  C 0.0033333333333303 4.94222222222223  0.50333333333333 4.44444444444446  1.12222222222223 4.44444444444446  Z M 6.66666666666666 2.22222222222223  L 6.66666666666666 4.44444444444446  L 15.5555555555555 4.44444444444446  L 15.5555555555555 15.5555555555556  L 17.7777777777778 15.5555555555556  L 17.7777777777778 2.22222222222223  L 6.66666666666666 2.22222222222223  Z M 11.1111111111111 10  L 4.44444444444446 10  L 4.44444444444446 12.2222222222222  L 11.1111111111111 12.2222222222222  L 11.1111111111111 10  Z M 11.1111111111111 14.4444444444445  L 4.44444444444446 14.4444444444445  L 4.44444444444446 16.6666666666667  L 11.1111111111111 16.6666666666667  L 11.1111111111111 14.4444444444445  Z " fill-rule="nonzero" fill="#fa746b" stroke="none" transform="matrix(1 0 0 1 230 214 )" />
  </g>
</svg>