<?xml version="1.0" encoding="utf-8"?>
<svg version="1.1" xmlns:xlink="http://www.w3.org/1999/xlink" width="23px" height="17px" xmlns="http://www.w3.org/2000/svg">
  <g transform="matrix(1 0 0 1 -409 -218 )">
    <path d="M 11.5 14.6363636363636  C 17.8511363636364 14.6363636363636  23 11.8282727272727  23 8.36363636363637  L 23 10.4545454545455  C 23 13.9191818181818  17.8511363636364 16.7272727272727  11.5 16.7272727272727  C 5.26177272727273 16.7272727272727  0.184000000000026 14.0185  0.00522727272726797 10.6395909090909  L 0 10.4545454545455  L 0 8.36363636363637  C 0 11.8282727272727  5.14886363636361 14.6363636363636  11.5 14.6363636363636  Z M 0 6.27272727272725  C 0 2.80809090909094  5.14886363636361 0  11.5 0  C 17.8511363636364 0  23 2.80809090909094  23 6.27272727272725  C 23 9.73736363636363  17.8511363636364 12.5454545454546  11.5 12.5454545454546  C 5.14886363636361 12.5454545454546  0 9.73736363636363  0 6.27272727272725  Z " fill-rule="nonzero" fill="#6c76f4" stroke="none" transform="matrix(1 0 0 1 409 218 )" />
  </g>
</svg>