<?xml version="1.0" encoding="utf-8"?>
<svg version="1.1" xmlns:xlink="http://www.w3.org/1999/xlink" width="22px" height="22px" xmlns="http://www.w3.org/2000/svg">
  <g transform="matrix(1 0 0 1 -49 -304 )">
    <path d="M 0.888800000000003 14.8896  L 3.9996 11.7777  L 6.0104 13.7896  L 7.568 12.232  L 5.555 10.2223  L 7.1104 8.6669  L 9.1223 10.6777  L 10.6777 9.1223  L 8.668 7.11040000000003  L 10.2234 5.55500000000001  L 12.232 7.56799999999998  L 13.7885 6.01150000000001  L 11.7766 4.00069999999999  L 14.8885 0.889900000000011  C 15.3180498366344 0.46047986783384  16.0143501633656 0.46047986783384  16.4439 0.889900000000011  L 21.1101 5.55610000000001  C 21.5395201321661 5.98564983663442  21.5395201321661 6.68195016336563  21.1101 7.11149999999998  L 7.1104 21.1112  C 6.68085016336561 21.5406201321662  5.9845498366344 21.5406201321662  5.555 21.1112  L 0.888800000000003 16.445  C 0.459379867833853 16.0154501633656  0.459379867833853 15.3191498366344  0.888800000000003 14.8896  Z M 16.2338 20.9  L 13.3331 17.9993  L 18.0004 13.3331  L 20.9 16.2327  L 20.9 20.9  L 16.2338 20.9  Z M 8.668 3.99849999999998  L 3.9996 8.66579999999999  L 0.887700000000002 5.55500000000001  C 0.681145252666902 5.34867491714351  0.56508467794265 5.06870017290896  0.56508467794265 4.77674999999999  C 0.56508467794265 4.48479982709102  0.681145252666902 4.20482508285647  0.887700000000002 3.99849999999998  L 3.9996 0.887699999999995  C 4.42914983663439 0.458279867833824  5.12545016336561 0.458279867833824  5.555 0.887699999999995  L 8.668 3.99849999999998  Z " fill-rule="nonzero" fill="#ff6262" stroke="none" transform="matrix(1 0 0 1 49 304 )" />
  </g>
</svg>