<?xml version="1.0" encoding="utf-8"?>
<svg version="1.1" xmlns:xlink="http://www.w3.org/1999/xlink" width="14px" height="13px" xmlns="http://www.w3.org/2000/svg">
  <g transform="matrix(1 0 0 1 -678 -365 )">
    <path d="M 0 0.680555555555543  C 0 0.304695100809568  0.304695100809568 0  0.680555555555657 0  L 12.9305555555555 0  C 13.3064160103015 0  13.6111111111111 0.304695100809568  13.6111111111111 0.680555555555543  L 13.6111111111111 11.5694444444445  C 13.6111111111111 11.9453048991904  13.3064160103015 12.25  12.9305555555555 12  L 0.680555555555657 12  C 0.304695100809568 12.25  0 11.9453048991904  0 11.5694444444445  L 0 0.680555555555543  Z M 12.25 10.8888888888889  L 12.25 2.88419444444446  L 6.85455555555552 7.71613888888885  L 1.36111111111109 2.86922222222222  L 1.36111111111109 10.8888888888889  L 12.25 10.8888888888889  Z M 11.9110833333333 1.36111111111109  L 1.70887500000003 1.36111111111109  L 6.84706944444451 5.89497222222224  L 11.9110833333333 1.36111111111109  Z " fill-rule="nonzero" fill="#999999" stroke="none" transform="matrix(1 0 0 1 678 365 )" />
  </g>
</svg>