<?xml version="1.0" encoding="utf-8"?>
<svg version="1.1" xmlns:xlink="http://www.w3.org/1999/xlink" width="13px" height="15px" xmlns="http://www.w3.org/2000/svg">
  <g transform="matrix(1 0 0 1 -20 -491 )">
    <path d="M 0.287291666666647 13.79875  C 1.55750000000001 12.0852083333333  3.89229166666668 10.9375  6.5625 10.9375  C 9.23270833333332 10.9375  11.5682291666667 12.0859375  12.8384375 13.7994791666667  L 11.4953125 14.4345833333333  C 10.4613541666667 13.2095833333333  8.63843750000001 12.3958333333333  6.5625 12.3958333333333  C 4.48656249999999 12.3958333333333  2.66364583333331 13.2095833333333  1.62968750000001 14.4345833333333  L 0.287291666666647 13.79875  Z M 6.40427083333332 0.00364583333331225  L 6.5625 0  C 8.57603815042475 0  10.2083333333334 1.63229518290855  10.2083333333334 3.64583333333336  L 10.2083333333334 5.83333333333334  C 10.2082205589047 7.78525243304175  8.67080912495855 9.39080754752242  6.72072916666668 9.47552083333333  L 6.5625 9.47916666666664  C 4.54896184957525 9.47916666666664  2.91666666666664 7.84687148375809  2.91666666666664 5.83333333333334  L 2.91666666666664 3.6458333333333  C 2.91677944109527 1.69391423362494  4.45419087504145 0.0883591191442257  6.40427083333332 0.00364583333331225  Z M 8.74999999999998 3.6458333333333  C 8.74999999999998 2.43771044307845  7.77062289025485 1.45833333333332  6.5625 1.45833333333332  C 5.40417674243932 1.45826880845663  4.44660079608513 2.36117180428439  4.37864583333333 3.51750000000001  L 4.37500000000002 3.64583333333336  L 4.37500000000002 5.83333333333334  C 4.37499932276063 5.83403605659857  4.37499898414089 5.83473878015019  4.37499898414089 5.83544150374177  C 4.37499898414089 7.04356439399662  5.35437609388607 8.02294150374181  6.56249898414092 8.02294150374181  C 7.72159022417016 8.02294150374181  8.67947120409864 7.11882662623605  8.74635416666667 5.96166666666669  L 8.74999999999998 5.83333333333334  L 8.74999999999998 3.6458333333333  Z " fill-rule="nonzero" fill="#999999" stroke="none" transform="matrix(1 0 0 1 20 491 )" />
  </g>
</svg>