<?xml version="1.0" encoding="utf-8"?>
<svg version="1.1" xmlns:xlink="http://www.w3.org/1999/xlink" width="19px" height="18px" xmlns="http://www.w3.org/2000/svg">
  <g transform="matrix(1 0 0 1 -57 -581 )">
    <path d="M 14.4642857142858 6.80672268907557  L 14.4642857142858 5.10504201680669  L 18.7184873949581 5.10504201680669  L 18.7184873949581 6.80672268907557  L 14.4642857142858 6.80672268907557  Z M 12.7626050420168 11.060924369748  L 12.7626050420168 9.35924369747892  L 18.7184873949581 9.35924369747892  L 18.7184873949581 11.060924369748  L 12.7626050420168 11.060924369748  Z M 15.3151260504202 15.3151260504202  L 15.3151260504202 13.6134453781513  L 18.7184873949581 13.6134453781513  L 18.7184873949581 15.3151260504202  L 15.3151260504202 15.3151260504202  Z M 1.70168067226894 17.8676470588235  L 0 17.8676470588235  C 0 14.1083979213198  3.04747355157193 11.060924369748  6.80672268907563 11.060924369748  C 10.5659718265794 11.060924369748  13.6134453781513 14.1083979213198  13.6134453781513 17.8676470588235  L 11.9117647058824 17.8676470588235  C 11.9117647058824 15.0482102056958  9.62615954220348 12.7626050420168  6.80672268907563 12.7626050420168  C 3.98728583594783 12.7626050420168  1.70168067226894 15.0482102056958  1.70168067226894 17.8676470588235  Z M 11.9117647058824 5.10504201680669  C 11.9117647058824 7.9255777310924  9.62725840336139 10.2100840336135  6.80672268907563 10.2100840336135  C 3.98618697478997 10.2100840336135  1.70168067226894 7.9255777310924  1.70168067226894 5.10504201680669  C 1.70168067226894 2.28450630252109  3.98618697478997 0  6.80672268907563 0  C 9.62725840336139 0  11.9117647058824 2.28450630252109  11.9117647058824 5.10504201680669  Z M 3.40336134453784 5.10504201680669  C 3.40336134453784 6.98539915966387  4.92636554621853 8.50840336134456  6.80672268907563 8.50840336134456  C 8.68707983193281 8.50840336134456  10.2100840336135 6.98539915966387  10.2100840336135 5.10504201680669  C 10.2100840336135 3.22468487394951  8.68707983193281 1.70168067226888  6.80672268907563 1.70168067226888  C 4.92636554621853 1.70168067226888  3.40336134453784 3.22468487394951  3.40336134453784 5.10504201680669  Z " fill-rule="nonzero" fill="#3dd4a7" stroke="none" transform="matrix(1 0 0 1 57 581 )" />
  </g>
</svg>