<?xml version="1.0" encoding="utf-8"?>
<svg version="1.1" xmlns:xlink="http://www.w3.org/1999/xlink" width="20px" height="20px" xmlns="http://www.w3.org/2000/svg">
  <g transform="matrix(1 0 0 1 -56 -798 )">
    <path d="M 15.5718181818182 12.1672727272727  L 16.7045454545455 12.8209090909091  C 17.080461074176 11.9277240648047  17.2741056736617 10.9684258921669  17.2741056736617 9.99935827639433  C 17.2741056736617 5.98223983694322  14.0175877494763 2.72572191275799  10.0004693100253 2.72572191275799  C 8.7343381120654 2.72572191275799  7.49013664687988 3.05622468404528  6.39090909090909 3.68454545454546  L 5.48909090909092 2.10545454545456  C 8.29671805313637 0.500788849670926  11.7455917235201 0.509097720187754  14.5454545454545 2.12727272727267  C 18.6272727272728 4.48363636363638  20.190909090909 9.52909090909088  18.2881818181818 13.7363636363636  L 19.5081818181819 14.4400000000001  L 15.7218181818182 16.4527272727274  L 15.5718181818182 12.1672727272727  Z M 3.29454545454547 7.18000000000006  L 3.29545454545452 7.17909090909086  C 2.91953892582404 8.07227593519531  2.72589432633835 9.03157410783308  2.72589432633835 10.0006417236057  C 2.72589432633835 14.0177601630568  5.98241225052368 17.274278087242  9.99953068997469 17.274278087242  C 11.2656618879346 17.274278087242  12.5098633531201 16.9437753159547  13.6090909090909 16.3154545454545  L 14.5109090909091 17.8945454545454  C 11.7032819468636 19.4992111503291  8.25440827647994 19.4909022798122  5.45454545454548 17.8727272727273  C 1.37272727272722 15.5163636363636  -0.190909090909045 10.4709090909091  1.71181818181822 6.26363636363635  L 0.490909090909085 5.56090909090915  L 4.27727272727276 3.54818181818183  L 4.42727272727274 7.83363636363629  L 3.29454545454547 7.18000000000006  Z M 11.2863636363636 12.570909090909  L 8.71272727272731 10  L 6.14181818181818 12.570909090909  L 4.85636363636365 11.2854545454546  L 8.7136363636364 7.42909090909097  L 11.2854545454546 10  L 13.8572727272727 7.42909090909097  L 15.1427272727273 8.71454545454537  L 11.2854545454546 12.570909090909  Z " fill-rule="nonzero" fill="#ffffff" stroke="none" transform="matrix(1 0 0 1 56 798 )" />
  </g>
</svg>