<?xml version="1.0" encoding="utf-8"?>
<svg version="1.1" xmlns:xlink="http://www.w3.org/1999/xlink" width="18px" height="18px" xmlns="http://www.w3.org/2000/svg">
  <g transform="matrix(1 0 0 1 -197 -471 )">
    <path d="M 13.0182857142857 6.14657142857141  L 2.54142857142858 2.65371428571427  L 5.58085714285716 13.2908571428571  L 8.18657142857143 8.07942857142859  L 13.0182857142857 6.14657142857141  Z M 0.770571428571429 0.257142857142867  L 16.89 5.62971428571427  C 17.0653553905542 5.68783680567827  17.1837329376855 5.85178447869771  17.1837329376855 6.03652142769113  C 17.1837329376855 6.21189543893439  17.0768844591028 6.36957376090294  16.914 6.43457142857142  L 9.42857142857142 9.42857142857144  L 5.63571428571427 17.0142857142857  C 5.56313826835731 17.1595357193041  5.41470918502222 17.2512976147526  5.25233664346041 17.2512976147526  C 5.06102940945186 17.2512976147526  4.89288989146544 17.1245041834773  4.84028571428573 16.9405714285714  L 0.222857142857151 0.780857142857144  C 0.211975583840996 0.742663279132273  0.206455582955385 0.703142294107579  0.206455582955385 0.663428574150146  C 0.206455582955385 0.426735109936942  0.398333547313626 0.234857145578701  0.63502701152683 0.234857145578701  C 0.68140046557437 0.234857145578701  0.727466536696994 0.242383563712565  0.771428571428572 0.257142857142867  Z " fill-rule="nonzero" fill="#fa746b" stroke="none" transform="matrix(1 0 0 1 197 471 )" />
  </g>
</svg>