<?xml version="1.0" encoding="utf-8"?>
<svg version="1.1" xmlns:xlink="http://www.w3.org/1999/xlink" width="18px" height="22px" xmlns="http://www.w3.org/2000/svg">
  <g transform="matrix(1 0 0 1 -126 -468 )">
    <path d="M 9 18.9  L 13.95 13.95  C 15.2626001648054 12.637265889568  16 10.8568967475909  16 9.00050507627293  C 16 5.13451182745737  12.8659932488156 2.00050507627293  9 2.00050507627293  C 5.13400675118444 2.00050507627293  2 5.13451182745737  2 9.00050507627293  C 2 10.8568967475909  2.73739983519464 12.637265889568  4.05 13.95  L 9 18.9  Z M 15.364 15.364  L 9 21.728  L 2.636 15.364  C 0.948196433020826 13.6761757625098  0 11.3870072502276  0 9.00007793888076  C 0 4.02951519040363  4.02943725152286 7.793888076435E-05  9 7.793888076435E-05  C 13.9705627484771 7.793888076435E-05  18 4.02951519040363  18 9.00007793888076  C 18 11.3870072502276  17.0518035669792 13.6761757625098  15.364 15.364  Z M 10 4  L 10 9  L 14 9  L 14 11  L 8 11  L 8 4  L 10 4  Z " fill-rule="nonzero" fill="#2561ef" stroke="none" transform="matrix(1 0 0 1 126 468 )" />
  </g>
</svg>