<?xml version="1.0" encoding="utf-8"?>
<svg version="1.1" xmlns:xlink="http://www.w3.org/1999/xlink" width="22px" height="18px" xmlns="http://www.w3.org/2000/svg">
  <g transform="matrix(1 0 0 1 -269 -470 )">
    <path d="M 0.94736842105263 6.63157894736844  L 3.78947368421052 6.63157894736844  C 4.31269081562917 6.63157894736844  4.73684210526315 7.05573023700242  4.73684210526315 7.57894736842104  C 6.22529213792126 7.57675458036664  7.67082408924949 8.07751622632327  8.83894736842106 9  L 10.8947368421053 9  C 12.1566315789474 9  13.2915789473684 9.54852631578945  14.0712631578947 10.4201052631579  L 17.0526315789474 10.421052631579  C 18.8803960970569 10.4205484144336  20.5453742181939 11.471667241573  21.3309473684211 13.122  C 19.0904210526316 16.0787368421053  15.4629473684211 18  11.3684210526316 18  C 8.72526315789474 18  6.48947368421054 17.4287368421053  4.68000000000001 16.4292631578948  C 4.54421844729328 16.8039815000224  4.18803359753883 17.0533108948505  3.78947368421052 17.0526315789473  L 0.94736842105263 17.0526315789473  C 0.424151289633983 17.0526315789473  0 16.6284802893134  0 16.1052631578947  L 0 7.57894736842104  C 0 7.05573023700242  0.424151289633983 6.63157894736844  0.94736842105263 6.63157894736844  Z M 4.73778947368422 9.4736842105263  L 4.73684210526315 14.2304210526316  L 4.77947368421053 14.2616842105263  C 6.47999999999999 15.4553684210526  8.69494736842105 16.1052631578947  11.3684210526316 16.1052631578947  C 14.2143157894737 16.1052631578947  16.8622105263158 15.0101052631579  18.7910526315789 13.14  L 18.9170526315789 13.014  L 18.8033684210526 12.9192631578948  C 18.3560216666645 12.5688971514803  17.8137544659591 12.3609675492622  17.2468421052631 12.3224210526316  L 17.0526315789474 12.3157894736842  L 15.0517894736842 12.3148421052632  C 15.120947368421 12.6198947368421  15.1578947368421 12.9372631578947  15.1578947368421 13.2631578947368  L 15.1578947368421 14.2105263157895  L 6.63157894736841 14.2105263157895  L 6.63157894736841 12.3157894736842  L 13.0642105263158 12.3148421052632  L 13.032 12.2409473684211  C 12.6623335293686 11.4684910015607  11.9046166897979 10.9556195652164  11.0501052631579 10.8994736842105  L 10.8947368421053 10.8947368421053  L 8.11894736842106 10.8947368421053  C 7.2295949401306 9.98511943489905  6.01088098851295 9.472767717571  4.73873684210525 9.4736842105263  Z M 2.84210526315789 15.1578947368421  L 2.84210526315789 8.5263157894737  L 1.89473684210526 8.5263157894737  L 1.89473684210526 15.1578947368421  L 2.84210526315789 15.1578947368421  Z M 10.298144084799 0.790826221888381  C 10.9299977399658 0.790826221888381  11.5356564815723 1.04330294823711  11.9804210526316 1.4921052631579  L 12.3157894736842 1.8284210526316  L 12.6511578947368 1.49305263157896  C 13.0958858714668 1.04454104361309  13.7013418320942 0.792249347956727  14.3329632517959 0.792249347956727  C 15.6410060803425 0.792249347956727  16.7013843044275 1.85262757204168  16.7013843044275 3.16067040058829  C 16.7013843044275 3.79252405575528  16.4489075780787 4.39818279736176  16.0001052631579 4.84294736842105  L 12.3157894736842 8.5263157894737  L 8.63052631578947 4.84105263157892  C 8.18201472782368 4.39632465484902  7.92972303216737 3.79086869422162  7.92972303216737 3.15924727451994  C 7.92972303216737 1.85120444597334  8.99010125625236 0.790826221888381  10.298144084799 0.790826221888381  Z M 9.97200000000001 2.83263157894737  C 9.80998220775342 2.99375115667908  9.78607495741574 3.2475664644308  9.91515789473684 3.43610526315791  L 9.9701052631579 3.50147368421051  L 12.3157894736842 5.84526315789475  L 14.6614736842105 3.50147368421051  C 14.8234038486891 3.33973170429977  14.8465300377085 3.08534362508567  14.7164210526316 2.89705263157896  L 14.6614736842105 2.83073684210524  C 14.4994907990676 2.66910677888802  14.2451220279961 2.6463810422876  14.057052631579 2.77673684210527  L 13.9907368421053 2.8316842105263  L 12.3148421052632 4.50663157894735  L 10.6408421052631 2.82978947368423  L 10.5764210526316 2.77673684210527  C 10.3881300591248 2.64662785702831  10.1337419799108 2.66975404604779  9.97200000000001 2.8316842105263  Z " fill-rule="nonzero" fill="#fddb78" stroke="none" transform="matrix(1 0 0 1 269 470 )" />
  </g>
</svg>