<?xml version="1.0" encoding="utf-8"?>
<svg version="1.1" xmlns:xlink="http://www.w3.org/1999/xlink" width="20px" height="19px" xmlns="http://www.w3.org/2000/svg">
  <g transform="matrix(1 0 0 1 -270 -579 )">
    <path d="M 0.0936222910216884 14.4015922158337  L 3.59586023883242 5.73197700132678  L 3.31403803626716 5.03458646616545  C 3.26808396492731 4.92085795037389  3.24446172500598 4.7993437527723  3.24446172500598 4.67668181092867  C 3.24446172500598 4.28708660248736  3.48104024198688 3.93652243314273  3.8423352498894 3.79074745687751  L 12.7001503759399 0.212083149049079  C 13.1889813083417 0.0148761525570649  13.7451685385941 0.250860280996193  13.9430340557275 0.739425033171159  L 19.3119858469703 14.0261477222468  C 19.3579399183102 14.1398762380383  19.3815621582316 14.2613904356399  19.3815621582316 14.3840523774835  C 19.3815621582316 14.7736475859248  19.1449836412506 15.1242117552694  18.7836886333481 15.2699867315347  L 9.92587350729764 18.8486510393631  C 9.81214499150622 18.8946051107029  9.69063079390463 18.9182273506243  9.56796885206097 18.9182273506243  C 9.17837364361964 18.9182273506243  8.82780947427494 18.6816488336434  8.68203449800973 18.3203538257408  L 8.59796550199025 18.1130473241928  L 8.59796550199025 18.1512605042017  L 4.77664750110569 18.1512605042017  C 4.24903358707019 18.1512605042017  3.8213180008845 17.7235449180162  3.8213180008845 17.1959310039805  L 3.8213180008845 16.9379920389208  L 0.62096417514374 15.6454312251216  C 0.131875287085279 15.4475666431711  -0.104219792630659 14.8906902051454  0.0936222910216884 14.4015922158337  Z M 5.73197700132681 11.0178151260504  L 5.73197700132681 16.2406015037594  L 7.84229986731538 16.2406015037594  L 5.73197700132681 11.0178151260504  Z M 3.8213180008845 14.9107828394516  L 3.8213180008845 10.2755241043786  L 2.22305174701455 14.2315435647944  L 3.8213180008845 14.9107828394516  Z M 12.5301017249005 2.34151260504208  L 5.44346749226003 5.20367978770457  L 10.095922158337 16.7192215833701  L 17.1825563909774 13.8560990712075  L 12.5301017249005 2.34151260504208  Z M 8.28843874391862 7.14586466165417  C 8.17474528495342 7.19177107716087  8.0532794344295 7.21536795698856  7.93066784608578 7.21536795698856  C 7.40292033074161 7.21536795698856  6.97509643929629 6.78754406554324  6.97509643929629 6.25979655019901  C 6.97509643929629 5.87019090002124  7.21162918719148 5.5195988177386  7.572896948253 5.37372843874394  C 7.68672855276986 5.32770487896622  7.80836195232132 5.30404620061481  7.9311455108359 5.30404620061481  C 8.45899185355671 5.30404620061481  8.88689586042011 5.73195020747818  8.88689586042011 6.25979655019901  C 8.88689586042011 6.64931371851156  8.65051216441003 6.99986004265494  8.28939407341881 7.14586466165417  Z " fill-rule="nonzero" fill="#ffffff" stroke="none" transform="matrix(1 0 0 1 270 579 )" />
  </g>
</svg>