<?xml version="1.0" encoding="utf-8"?>
<svg version="1.1" xmlns:xlink="http://www.w3.org/1999/xlink" width="18px" height="17px" xmlns="http://www.w3.org/2000/svg">
  <g transform="matrix(1 0 0 1 -129 -689 )">
    <path d="M 0.899999999999977 3.60000000000002  L 3.60000000000002 3.60000000000002  L 3.60000000000002 0.899999999999977  C 3.60000000000002 0.402943725152227  4.00294372515231 0  4.5 0  L 10.2726 0  L 12.0726 1.79999999999995  L 17.1 1.79999999999995  C 17.5970562748477 1.79999999999995  18 2.2029437251523  18 2.70000000000005  L 18 11.7  C 18 12.1970562748477  17.5970562748477 12.6  17.1 12.6  L 14.4 12.6  L 14.4 15.3  C 14.4 15.7970562748477  13.9970562748477 16.1999999999999  13.5 16  L 0.899999999999977 16  C 0.402943725152284 16.1999999999999  0 15.7970562748477  0 15.3  L 0 4.5  C 0 4.00294372515225  0.402943725152284 3.60000000000002  0.899999999999977 3.60000000000002  Z M 3.60000000000002 12.6  L 3.60000000000002 5.39999999999998  L 1.79999999999995 5.39999999999998  L 1.79999999999995 14.4  L 12.6 14.4  L 12.6 12.6  L 3.60000000000002 12.6  Z M 9.52739999999994 1.79999999999995  L 5.39999999999998 1.79999999999995  L 5.39999999999998 10.8  L 16.2 10.8  L 16.2 3.60000000000002  L 11.3274 3.60000000000002  L 9.52739999999994 1.79999999999995  Z " fill-rule="nonzero" fill="#2561ef" stroke="none" transform="matrix(1 0 0 1 129 689 )" />
  </g>
</svg>