<?xml version="1.0" encoding="utf-8"?>
<svg version="1.1" xmlns:xlink="http://www.w3.org/1999/xlink" width="22px" height="16px" xmlns="http://www.w3.org/2000/svg">
  <g transform="matrix(1 0 0 1 -269 -686 )">
    <path d="M 0 5.94041252864781  C 0 2.65932467532457  4.87608861726505 0  10.890756302521 0  C 16.905423987777 0  21.7815126050421 2.65932467532457  21.7815126050421 5.94041252864781  L 21.7815126050421 9.90068754774632  C 21.7815126050421 13.1817754010694  16.905423987777 15.8411000763942  10.890756302521 15.8411000763942  C 4.98301604278083 15.8411000763942  0.174252100840391 13.2758319327731  0.00495034377388492 10.0759297173415  L 0 9.90068754774632  L 0 5.94041252864781  Z M 19.8023651642474 9.35614973262034  C 17.8321283422461 10.8828357524828  14.5748021390375 11.8808250572956  10.890756302521 11.8808250572956  C 7.20770053475943 11.8808250572956  3.95037433155085 10.8838258212375  1.98013750954925 9.35614973262034  L 1.98013750954925 9.90068754774632  C 1.98013750954925 11.7639969442324  5.82457448433919 13.8609625668449  10.890756302521 13.8609625668449  C 15.8510007639419 13.8609625668449  19.6409839572192 11.8511229946523  19.7964247517189 10.0175156608097  L 19.8013750954928 9.90068754774632  L 19.8023651642474 9.35614973262034  Z M 19.8013750954928 5.94041252864781  C 19.8013750954928 4.07710313216194  15.9569381207028 1.98013750954931  10.890756302521 1.98013750954931  C 5.82457448433919 1.98013750954931  1.98013750954925 4.07710313216194  1.98013750954925 5.94041252864781  C 1.98013750954925 7.80372192513369  5.82457448433919 9.90068754774632  10.890756302521 9.90068754774632  C 15.9569381207028 9.90068754774632  19.8013750954928 7.80372192513369  19.8013750954928 5.94041252864781  Z " fill-rule="nonzero" fill="#fddb78" stroke="none" transform="matrix(1 0 0 1 269 686 )" />
  </g>
</svg>