<?xml version="1.0" encoding="utf-8"?>
<svg version="1.1" xmlns:xlink="http://www.w3.org/1999/xlink" width="16px" height="18px" xmlns="http://www.w3.org/2000/svg">
  <g transform="matrix(1 0 0 1 -357 -211 )">
    <path d="M 6.45378142482912 10.6105850005655  C 6.99808674413902 10.6105850005655  7.54020563480901 10.6802628778745  8.06722698950421 10.8179591836735  L 8.06722698950421 17.1428571428571  L 0 17.1428571428571  C 0 17.1423038437378  0 17.1417505446007  0 17.1411972454635  C 0 13.5344396955481  2.88945636515473 10.6105850005655  6.45378142482912 10.6105850005655  Z M 11.2941177019188 4.89795918367349  C 11.2941177019188 7.60408163265305  9.12806731121049 9.79591836734693  6.4537816332969 9.79591836734693  C 3.77949595538337 9.79591836734693  1.61344556467509 7.60408163265305  1.61344556467509 4.89795918367349  C 1.61344556467509 2.19183673469388  3.77949595538337 0  6.4537816332969 0  C 9.12806731121049 0  11.2941177019188 2.19183673469388  11.2941177019188 4.89795918367349  Z M 8.87394966760786 13.0612244897959  L 11.2941177019188 13.0612244897959  L 11.2941177019188 10.6122448979592  L 12.907563058126 10.6122448979592  L 12.907563058126 13.0612244897959  L 15.327731092437 13.0612244897959  L 15.327731092437 14.6938775510204  L 12.907563058126 14.6938775510204  L 12.907563058126 17.1428571428571  L 11.2941177019188 17.1428571428571  L 11.2941177019188 14.6938775510204  L 8.87394966760786 14.6938775510204  L 8.87394966760786 13.0612244897959  Z " fill-rule="nonzero" fill="#ffffff" stroke="none" transform="matrix(1 0 0 1 357 211 )" />
  </g>
</svg>