<?xml version="1.0" encoding="utf-8"?>
<svg version="1.1" xmlns:xlink="http://www.w3.org/1999/xlink" width="16px" height="18px" xmlns="http://www.w3.org/2000/svg">
  <g transform="matrix(1 0 0 1 -1026 -211 )">
    <path d="M 6.73684201363744 10.9456561058466  C 7.30502037326789 10.9456561058466  7.87091640826554 11.0175343371758  8.42105273465791 11.1595789473685  L 8.42105273465791 17.6842105263158  L 0 17.6842105263158  C 0 17.6836397545927  0 17.6830689828512  0 17.6824982111098  C 0 13.961843054355  3.01618690748614 10.9456561058466  6.73684201363744 10.9456561058466  Z M 11.7894737414765 5.0526315789474  C 11.7894737414765 7.84421052631581  9.52842114064958 10.1052631578947  6.73684223124849 10.1052631578947  C 3.94526332184762 10.1052631578947  1.68421072102046 7.84421052631581  1.68421072102046 5.0526315789474  C 1.68421072102046 2.26105263157893  3.94526332184762 0  6.73684223124849 0  C 9.52842114064958 0  11.7894737414765 2.26105263157893  11.7894737414765 5.0526315789474  Z M 9.26315798636256 13.4736842105263  L 12.2829474189756 13.4736842105263  L 10.7427369136077 11.9343157894737  L 11.9343158447698 10.7427368421053  L 15.5065263225011 14.3157894736842  L 11.9343158447698 17.8888421052631  L 10.7427369136077 16.6972631578947  L 12.2829474189756 15.1578947368421  L 9.26315798636256 15.1578947368421  L 9.26315798636256 13.4736842105263  Z " fill-rule="nonzero" fill="#ffffff" stroke="none" transform="matrix(1 0 0 1 1026 211 )" />
  </g>
</svg>