<?xml version="1.0" encoding="utf-8"?>
<svg version="1.1" xmlns:xlink="http://www.w3.org/1999/xlink" width="9px" height="5px" xmlns="http://www.w3.org/2000/svg">
  <g transform="matrix(1 0 0 1 -347 -16 )">
    <path d="M 8.1787109375 0.153935185185183  C 8.28179253472229 0.256558641975303  8.33333333333337 0.378086419753082  8.33333333333337 0.518518518518519  C 8.33333333333337 0.658950617283949  8.28179253472229 0.780478395061724  8.1787109375 0.883101851851848  L 4.53287760416674 4.51273148148149  C 4.42979600694446 4.61535493827161  4.30772569444446 4.66666666666667  4.16666666666674 4.66666666666667  C 4.02560763888891 4.66666666666667  3.90353732638891 4.61535493827161  3.80045572916663 4.51273148148149  L 0.154622395833371 0.883101851851848  C 0.0515407986111427 0.780478395061724  0 0.658950617283949  0 0.518518518518519  C 0 0.378086419753082  0.0515407986111427 0.256558641975303  0.154622395833371 0.153935185185183  C 0.257703993055543 0.0513117283950635  0.379774305555543 0  0.520833333333371 0  L 7.8125 0  C 7.95355902777777 0  8.07562934027777 0.0513117283950635  8.1787109375 0.153935185185183  Z " fill-rule="nonzero" fill="#cccccc" stroke="none" transform="matrix(1 0 0 1 347 16 )" />
  </g>
</svg>