<?xml version="1.0" encoding="utf-8"?>
<svg version="1.1" xmlns:xlink="http://www.w3.org/1999/xlink" width="32px" height="41px" xmlns="http://www.w3.org/2000/svg">
  <g transform="matrix(1 0 0 1 -508 -217 )">
    <path d="M 4 40.2051282051282  L 0 40.2051282051282  C 0 31.7462028060104  7.16344400270739 24.8888888888889  16 24.8888888888889  C 24.8365559972926 24.8888888888889  32 31.7462028060104  32 40.2051282051282  L 28 40.2051282051282  C 28 33.8609341557898  22.6274169979696 28.7179487179487  16 28.7179487179487  C 9.37258300203058 28.7179487179487  4 33.8609341557898  4 40.2051282051282  Z M 28 11.4871794871795  C 28 17.8338461538461  22.63 22.974358974359  16 22.974358974359  C 9.36999999999999 22.974358974359  4 17.8338461538461  4 11.4871794871795  C 4 5.14051282051281  9.36999999999999 0  16 0  C 22.63 0  28 5.14051282051281  28 11.4871794871795  Z M 8 11.4871794871795  C 8 15.7182905982905  11.58 19.1452991452991  16 19.1452991452991  C 20.42 19.1452991452991  24 15.7182905982905  24 11.4871794871795  C 24 7.25606837606833  20.42 3.82905982905982  16 3.82905982905982  C 11.58 3.82905982905982  8 7.25606837606841  8 11.4871794871795  Z " fill-rule="nonzero" fill="#2561ef" stroke="none" transform="matrix(1 0 0 1 508 217 )" />
  </g>
</svg>