<?xml version="1.0" encoding="utf-8"?>
<svg version="1.1" xmlns:xlink="http://www.w3.org/1999/xlink" width="217px" height="72px" xmlns="http://www.w3.org/2000/svg">
  <g transform="matrix(1 0 0 1 -20 -198 )">
    <path d="M 21 202  A 3 3 0 0 1 24 199 L 233 199  A 3 3 0 0 1 236 202 L 236 266  A 3 3 0 0 1 233 269 L 24 269  A 3 3 0 0 1 21 266 L 21 202  Z " fill-rule="nonzero" fill="#1a6be8" stroke="none" fill-opacity="0.0784313725490196" />
    <path d="M 20.5 202  A 3.5 3.5 0 0 1 24 198.5 L 233 198.5  A 3.5 3.5 0 0 1 236.5 202 L 236.5 266  A 3.5 3.5 0 0 1 233 269.5 L 24 269.5  A 3.5 3.5 0 0 1 20.5 266 L 20.5 202  Z " stroke-width="1" stroke-dasharray="9,4" stroke="#2561ef" fill="none" stroke-dashoffset="0.5" />
  </g>
</svg>