<?xml version="1.0" encoding="utf-8"?>
<svg version="1.1" xmlns:xlink="http://www.w3.org/1999/xlink" width="18px" height="18px" xmlns="http://www.w3.org/2000/svg">
  <g transform="matrix(1 0 0 1 -36 -225 )">
    <path d="M 13 16.3636363636364  L 13 1.63636363636363  L 16.3636363636364 1.63636363636363  C 16.815505704407 1.63636363636363  17.1818181818182 2.00267611377481  17 2.45454545454547  L 17 15.5454545454545  C 17.1818181818182 15.9973238862252  16.815505704407 16.3636363636364  16.3636363636364 16.3636363636364  L 13 16.3636363636364  Z M 1.521 1.53572727272729  L 11.8055454545455 0.067090909090922  C 11.8247860188962 0.0643307794399561  11.844198835737 0.0629454503501279  11.8636363672733 0.0629454503501279  C 12.0895710376586 0.0629454503501279  12.2727272763642 0.246101689055706  12.2727272763642 0.472036359441034  C 12.2727272763642 0.472054542652671  12.2727272751519 0.472072725879428  12 0.472090909090923  L 12 17.5279090909091  C 12.2726930468541 17.7538195551415  12.0895468351563 17.9369380219352  11.8636363683313 17.9369380219352  C 11.844474660799 17.9369380219352  11.8253366298564 17.9355917301835  11.8063636363636 17.9329090909091  L 1.52018181818182 16.4642727272727  C 1.11695312509332 16.4068437428051  0.817367544760238 16.061570489569  1 15.6542727272727  L 1 2.34572727272726  C 0.817367544760238 1.93842951043098  1.11695312509332 1.59315625719495  1.52018181818182 1.53572727272729  Z M 9.81818181818181 5.72727272727272  L 8.18181818181818 5.72727272727272  L 8.18181818181818 9.80918181818183  L 6.54545454545455 8.18181818181819  L 4.91727272727272 9.81818181818181  L 4.90909090909091 5.72727272727272  L 3.27272727272727 5.72727272727272  L 3.27272727272727 12.2727272727273  L 4.90909090909091 12.2727272727273  L 6.54545454545455 10.6363636363636  L 8.18181818181818 12.2727272727273  L 9.81818181818181 12.2727272727273  L 9.81818181818181 5.72727272727272  Z " fill-rule="nonzero" fill="#2561ef" stroke="none" transform="matrix(1 0 0 1 36 225 )" />
  </g>
</svg>