<svg xmlns="http://www.w3.org/2000/svg" xmlns:xlink="http://www.w3.org/1999/xlink" fill="none" version="1.1" width="20" height="20" viewBox="0 0 20 20"><defs><clipPath id="master_svg0_52_05857"><rect x="0" y="0" width="20" height="20" rx="0"/></clipPath></defs><g clip-path="url(#master_svg0_52_05857)"><g><path d="M16.355822494140625,15.17066990625C14.775822494140625,17.14150390625,12.454156494140625,18.33316990625,9.935823394140625,18.33316990625C5.954989894140625,18.33316990625,2.535823284140625,15.35983790625,1.666656494140625,11.23650450625L3.320823094140625,10.83317090625C4.015823094140625,14.12900490625,6.751656494140625,16.50817090625,9.935824394140624,16.50817090625C12.007491494140625,16.50817090625,13.911657494140625,15.49983890625,15.177490494140624,13.84483890625L13.333323494140625,11.77067090625L18.333322494140624,11.77067090625L18.333322494140624,17.39567090625L16.355822494140625,15.17066990625ZM3.644156494140625,4.82900400625C5.224156094140625,2.85817070625,7.545823594140625,1.66650390625,10.064157494140625,1.66650390625C14.044991494140625,1.66650390625,17.464156494140624,4.63983750625,18.333324494140626,8.763170706250001L16.679156494140624,9.16650390625C15.984156494140626,5.87067030625,13.248324494140626,3.49150370625,10.064157494140625,3.49150370625C7.992490294140625,3.49150370625,6.088323094140625,4.49983690625,4.8224901941406255,6.15483710625L6.666656494140625,8.22900390625L1.666656494140625,8.22900390625L1.666656494140625,2.60400372625L3.644156494140625,4.82900400625Z" fill="#4E5969" fill-opacity="1"/></g></g></svg>