<svg xmlns="http://www.w3.org/2000/svg" xmlns:xlink="http://www.w3.org/1999/xlink" fill="none" version="1.1" width="16" height="16" viewBox="0 0 16 16"><defs><clipPath id="master_svg0_210_18256"><rect x="0" y="0" width="16" height="16" rx="0"/></clipPath></defs><g clip-path="url(#master_svg0_210_18256)"><g><path d="M14.1173011171875,4.0107155C14.1173011171875,4.0107155,10.2744570171875,0.16785735,10.2744570171875,0.16785735C10.1673012171875,0.06071423,10.0226793171875,0,9.8709011171875,0C9.8709011171875,0,2.2851718071875,0,2.2851718071875,0C1.9691024671875,0,1.7137451171875,0.25535735,1.7137451171875,0.57142669C1.7137451171875,0.57142669,1.7137451171875,15.428577,1.7137451171875,15.428577C1.7137451171875,15.744623,1.9691024671875,16,2.2851718071875,16C2.2851718071875,16,13.7137461171875,16,13.7137461171875,16C14.0298351171875,16,14.2851681171875,15.744623,14.2851681171875,15.428577C14.2851681171875,15.428577,14.2851681171875,4.4160714,14.2851681171875,4.4160714C14.2851681171875,4.2642846,14.2244561171875,4.1178579,14.1173011171875,4.0107155C14.1173011171875,4.0107155,14.1173011171875,4.0107155,14.1173011171875,4.0107155ZM12.9673011171875,4.6785784C12.9673011171875,4.6785784,9.6065903171875,4.6785784,9.6065903171875,4.6785784C9.6065903171875,4.6785784,9.6065903171875,1.3178577,9.6065903171875,1.3178577C9.6065903171875,1.3178577,12.9673011171875,4.6785784,12.9673011171875,4.6785784C12.9673011171875,4.6785784,12.9673011171875,4.6785784,12.9673011171875,4.6785784ZM12.9994791171875,14.714268C12.9994791171875,14.714268,2.9994607171875,14.714268,2.9994607171875,14.714268C2.9994607171875,14.714268,2.9994607171875,1.2857156,2.9994607171875,1.2857156C2.9994607171875,1.2857156,8.3923235171875,1.2857156,8.3923235171875,1.2857156C8.3923235171875,1.2857156,8.3923235171875,5.1428447,8.3923235171875,5.1428447C8.3923235171875,5.3417783,8.471345917187499,5.5325336,8.6119675171875,5.6732006C8.7526340171875,5.8138227,8.9433904171875,5.8928447,9.1423235171875,5.8928447C9.1423235171875,5.8928447,12.9994791171875,5.8928447,12.9994791171875,5.8928447C12.9994791171875,5.8928447,12.9994791171875,14.714268,12.9994791171875,14.714268C12.9994791171875,14.714268,12.9994791171875,14.714268,12.9994791171875,14.714268ZM7.8565898171875,9.8928442C7.8565898171875,9.8928442,4.5708875171875,9.8928442,4.5708875171875,9.8928442C4.4923186171875,9.8928442,4.4280298171875,9.9571562,4.4280298171875,10.035734C4.4280298171875,10.035734,4.4280298171875,10.892844,4.4280298171875,10.892844C4.4280298171875,10.971423,4.4923186171875,11.035734,4.5708875171875,11.035734C4.5708875171875,11.035734,7.8565898171875,11.035734,7.8565898171875,11.035734C7.9351678171875,11.035734,7.9994793171875,10.971423,7.9994793171875,10.892844C7.9994793171875,10.892844,7.9994793171875,10.035734,7.9994793171875,10.035734C7.9994793171875,9.9571562,7.9351678171875,9.8928442,7.8565898171875,9.8928442C7.8565898171875,9.8928442,7.8565898171875,9.8928442,7.8565898171875,9.8928442ZM4.4280298171875,7.6071563C4.4280298171875,7.6071563,4.4280298171875,8.4642668,4.4280298171875,8.4642668C4.4280298171875,8.5428448,4.4923186171875,8.6071568,4.5708875171875,8.6071568C4.5708875171875,8.6071568,11.4280119171875,8.6071568,11.4280119171875,8.6071568C11.5065899171875,8.6071568,11.5709019171875,8.5428448,11.5709019171875,8.4642668C11.5709019171875,8.4642668,11.5709019171875,7.6071563,11.5709019171875,7.6071563C11.5709019171875,7.5285783,11.5065899171875,7.4642668,11.4280119171875,7.4642668C11.4280119171875,7.4642668,4.5708875171875,7.4642668,4.5708875171875,7.4642668C4.4923186171875,7.4642668,4.4280298171875,7.5285783,4.4280298171875,7.6071563C4.4280298171875,7.6071563,4.4280298171875,7.6071563,4.4280298171875,7.6071563Z" fill="#4E5969" fill-opacity="1"/></g></g></svg>