<?xml version="1.0" standalone="no"?><!DOCTYPE svg PUBLIC "-//W3C//DTD SVG 1.1//EN" "http://www.w3.org/Graphics/SVG/1.1/DTD/svg11.dtd"><svg t="1743759113650" class="icon" viewBox="0 0 1024 1024" version="1.1" xmlns="http://www.w3.org/2000/svg" p-id="20406" xmlns:xlink="http://www.w3.org/1999/xlink" width="200" height="200"><path d="M41.984 988.16c19.968 20.48 53.76 20.48 76.288 0l192-194.56v156.672c0 23.04 16.896 40.448 39.424 40.448h28.16c22.528 0 39.424-14.336 39.424-34.816v-308.224c0-11.776-3.072-20.48-8.704-29.184-5.632-5.632-16.896-11.776-28.16-11.776h-19.968l-278.528-1.536c-22.528 0-39.424 20.48-39.424 40.448v29.184c3.072 26.112 22.528 40.448 45.056 40.448h146.944l-188.928 194.56c-26.112 20.48-26.112 55.296-3.584 78.336zM991.232 35.84c-19.968-20.48-53.76-20.48-76.288 0l-192 194.56V76.288c0-23.04-16.896-40.448-39.424-40.448H655.36c-22.528 0-39.424 14.336-39.424 34.816v305.152c0 11.776 3.072 20.48 8.704 29.184 5.632 5.632 16.896 11.776 28.16 11.776h19.968l279.552 3.072c22.528 0 39.424-20.48 39.424-40.448v-29.184c-3.072-26.112-22.528-40.448-45.056-40.448h-146.944l192-194.56c18.944-21.504 18.944-56.32-0.512-79.36zM41.472 35.84c-19.968 23.04-19.968 57.856 0 78.336l192 194.56H86.528c-22.528 0-42.496 14.336-45.056 40.448v29.184c0 20.48 16.896 40.448 39.424 40.448l279.552-3.072h19.968c11.264 0 22.528-5.632 28.16-11.776 5.632-8.704 8.704-17.408 8.704-29.184V70.656c0-20.48-16.896-34.816-39.424-34.816h-28.16c-22.528 0-39.424 17.408-39.424 40.448V230.4L117.76 35.84C94.72 15.36 60.928 15.36 41.472 35.84zM801.792 715.264h146.944c22.528 0 42.496-14.336 45.056-40.448v-29.184c0-23.04-19.968-40.448-39.424-40.448l-279.552 3.072H655.36c-11.264 0-19.968 3.072-28.16 11.776-5.632 5.632-8.704 17.408-8.704 29.184V957.44c0 23.04 16.896 34.816 39.424 34.816h28.16c22.528 0 39.424-17.408 39.424-40.448V793.6l192 194.56c19.968 20.48 53.76 20.48 76.288 0 19.968-20.48 19.968-55.296 0-78.336l-192-194.56z" fill="#1877F2" p-id="20407"></path></svg>