<?xml version="1.0" standalone="no"?><!DOCTYPE svg PUBLIC "-//W3C//DTD SVG 1.1//EN" "http://www.w3.org/Graphics/SVG/1.1/DTD/svg11.dtd"><svg t="1743759309578" class="icon" viewBox="0 0 1024 1024" version="1.1" xmlns="http://www.w3.org/2000/svg" p-id="20784" xmlns:xlink="http://www.w3.org/1999/xlink" width="200" height="200"><path d="M642.048 380.416c18.944 19.456 52.224 19.456 73.728 0l186.368-183.808v148.48c0 22.016 16.384 38.4 38.4 38.4h27.136c22.016 0 38.4-13.824 38.4-32.768v-291.84c0-10.752-2.56-19.456-8.192-27.648-5.632-5.632-16.384-10.752-27.136-10.752h-18.944L680.96 17.92c-22.016 0-38.4 19.456-38.4 38.4v27.648c2.56 24.576 22.016 38.4 44.032 38.4h142.336l-183.296 183.808c-25.6 18.944-25.6 52.224-3.584 74.24zM381.952 643.584c-18.944-19.456-52.224-19.456-73.728 0l-186.368 183.808v-145.408c0-22.016-16.384-38.4-38.4-38.4H56.32c-22.016 0-38.4 13.824-38.4 32.768v288.256c0 10.752 2.56 19.456 8.192 27.648 5.632 5.632 16.384 10.752 27.136 10.752h18.944l270.848 2.56c22.016 0 38.4-19.456 38.4-38.4v-27.648c-2.56-24.576-22.016-38.4-44.032-38.4H196.096l186.368-183.808c18.432-18.432 18.432-51.712-0.512-73.728zM641.024 643.584c-18.944 22.016-18.944 54.784 0 74.24l186.368 183.808h-142.336c-22.016 0-40.96 13.824-44.032 38.4v27.648c0 19.456 16.384 38.4 38.4 38.4l270.848-2.56h18.944c10.752 0 22.016-5.632 27.136-10.752 5.632-8.192 8.192-16.384 8.192-27.648v-288.256c0-19.456-16.384-32.768-38.4-32.768h-27.136c-22.016 0-38.4 16.384-38.4 38.4v145.408l-186.368-183.808c-20.992-19.456-53.76-19.456-73.216-0.512zM198.656 122.368h142.336c22.016 0 40.96-13.824 44.032-38.4V56.32c0-22.016-18.944-38.4-38.4-38.4l-271.36 2.56H56.32c-11.264 0-19.456 3.072-27.648 11.264C23.552 37.376 20.48 48.128 20.48 58.88v291.328c0 22.016 16.384 32.768 38.4 32.768h27.136c22.016 0 38.4-16.384 38.4-38.4v-148.48l186.368 183.808c18.944 19.456 52.224 19.456 73.728 0 18.944-19.456 18.944-52.224 0-74.24L198.656 122.368z" fill="#1877F2" p-id="20785"></path></svg>