<?xml version="1.0" standalone="no"?><!DOCTYPE svg PUBLIC "-//W3C//DTD SVG 1.1//EN" "http://www.w3.org/Graphics/SVG/1.1/DTD/svg11.dtd"><svg t="1743759989882" class="icon" viewBox="0 0 1024 1024" version="1.1" xmlns="http://www.w3.org/2000/svg" p-id="26456" xmlns:xlink="http://www.w3.org/1999/xlink" width="200" height="200"><path d="M391.8002 37.85015c0-20.971029-16.879121-37.85015-37.338662-37.85015H41.942058C21.482517 0 4.603397 17.390609 4.603397 37.85015v360.087912c0 20.971029 16.879121 37.85015 37.338661 37.85015s37.338661-17.390609 37.338661-37.85015V75.188811h275.180819c21.482517 0 37.338661-16.367632 37.338662-37.338661zM1022.977023 398.44955V37.85015c0-20.971029-16.879121-37.85015-37.338661-37.85015h-312.519481c-21.482517 0-37.338661 16.367632-37.338661 37.338661s16.879121 37.85015 37.338661 37.85015h275.180819v323.260739c0 20.971029 16.879121 37.85015 37.338662 37.85015s37.338661-17.390609 37.338661-37.85015zM635.268731 986.14985c0 20.971029 16.879121 37.85015 37.338662 37.85015h312.51948c20.45954 0 37.338661-17.390609 37.338661-37.85015v-360.5994c0-20.971029-16.879121-37.85015-37.338661-37.85015s-37.338661 17.390609-37.338661 37.85015v322.74925h-274.669331c-21.482517 0-37.85015 16.879121-37.85015 37.85015zM354.973027 624.527473H37.338661c-20.45954 0-37.338661 17.390609-37.338661 37.850149v319.168832c0 20.971029 16.879121 37.85015 37.338661 37.850149h317.634366c20.45954 0 37.338661-17.390609 37.338661-37.850149v-319.168832c0-20.971029-16.879121-37.85015-37.338661-37.850149z m-37.338661 319.168831H75.188811v-243.98002h242.445555v243.98002z" fill="#1877f2" p-id="26457"></path><path d="M591.792208 636.803197c6.137862 7.672328 15.344655 11.764236 24.551448 11.764236 6.649351 0 13.81019-2.045954 19.436564-6.649351l194.365634-156.003996c7.160839-5.626374 11.764236-14.833167 11.764236-24.03996 0-9.206793-4.091908-17.902098-11.252747-24.03996l-194.365635-161.118881c-13.298701-11.252747-33.246753-9.206793-43.988012 4.091908-11.252747 13.298701-9.206793 33.758242 4.091908 44.4995L709.434565 419.932068H339.116883c-17.902098 0-32.735265 14.833167-32.735265 33.246753v14.321679c0 18.413586 14.321678 33.246753 32.735265 33.246753h373.898102l-116.107892 93.602397c-13.298701 11.252747-15.344655 30.177822-5.114885 42.453547z" fill="#1877f2" p-id="26458"></path></svg>