<?xml version="1.0" standalone="no"?><!DOCTYPE svg PUBLIC "-//W3C//DTD SVG 1.1//EN" "http://www.w3.org/Graphics/SVG/1.1/DTD/svg11.dtd"><svg t="1743762151221" class="icon" viewBox="0 0 1024 1024" version="1.1" xmlns="http://www.w3.org/2000/svg" p-id="29939" xmlns:xlink="http://www.w3.org/1999/xlink" width="200" height="200"><path d="M450.092279 1007.024345H165.898447a77.162068 77.162068 0 0 1-77.162069-77.162068V77.162068A77.162068 77.162068 0 0 1 165.898447 0h497.517273a29.677719 29.677719 0 0 1 22.080222 9.853003l213.20473 236.946904a29.677719 29.677719 0 0 1 7.597496 19.824716v213.20473a29.677719 29.677719 0 0 1-59.355437 0v-201.808486L650.120102 59.355437H165.898447a17.806631 17.806631 0 0 0-17.806632 17.806631v852.937631a17.806631 17.806631 0 0 0 17.806632 17.806631h284.312543a29.677719 29.677719 0 0 1 0 59.355437z" fill="#DC1E14" p-id="29940"></path><path d="M876.561094 296.302342H639.61419a29.677719 29.677719 0 0 1-29.677719-29.677719V29.677719a29.677719 29.677719 0 0 1 59.355437 0v207.269186h207.269186a29.677719 29.677719 0 0 1 0 59.355437z" fill="#DC1E14" p-id="29941"></path><path d="M714.283329 1024a23.742175 23.742175 0 0 1-6.766519-1.009042 177.413401 177.413401 0 0 1-77.162069-46.950151 23.742175 23.742175 0 0 1-1.009042-31.755159 22.020867 22.020867 0 0 0 5.045212-14.364016 22.317644 22.317644 0 0 0-22.258289-22.258289H609.877116a23.742175 23.742175 0 0 1-25.582194-18.875029 178.066311 178.066311 0 0 1 4.511014-89.033155 23.742175 23.742175 0 0 1 22.970554-16.619523h0.296777a22.317644 22.317644 0 0 0 22.317644-21.961511 22.020867 22.020867 0 0 0-2.018085-9.674937 23.742175 23.742175 0 0 1 5.104568-27.897055 177.650823 177.650823 0 0 1 73.244609-40.955251 23.742175 23.742175 0 0 1 27.481568 11.871087 22.317644 22.317644 0 0 0 39.708787 0 23.742175 23.742175 0 0 1 27.481567-11.871087 177.650823 177.650823 0 0 1 73.24461 40.955251 23.742175 23.742175 0 0 1 5.045212 27.897055 22.020867 22.020867 0 0 0-2.255507 9.853003 22.317644 22.317644 0 0 0 22.258289 22.258289h0.296777a23.742175 23.742175 0 0 1 22.970554 16.619522 178.066311 178.066311 0 0 1 4.511014 89.033156 23.742175 23.742175 0 0 1-25.582194 18.875029h-2.255506a22.317644 22.317644 0 0 0-22.258289 22.258289 21.961512 21.961512 0 0 0 5.223278 14.364016 23.742175 23.742175 0 0 1-1.009042 31.755158 177.413401 177.413401 0 0 1-77.162068 46.950151 23.742175 23.742175 0 0 1-29.677719-15.551124 22.317644 22.317644 0 0 0-42.439137 0 23.742175 23.742175 0 0 1-22.020868 16.085323z m43.804313-79.47693a69.564572 69.564572 0 0 1 54.36958 26.591236 130.047763 130.047763 0 0 0 25.938326-16.025968 69.742639 69.742639 0 0 1 48.79017-92.713193q0.296777-4.451658 0.296777-8.903316a130.581962 130.581962 0 0 0-2.374218-24.751217 69.920705 69.920705 0 0 1-50.274055-79.536286 130.581962 130.581962 0 0 0-27.303501-15.491769 69.861349 69.861349 0 0 1-99.479712 0 130.581962 130.581962 0 0 0-27.303501 15.491769 69.920705 69.920705 0 0 1-49.917923 79.476931 130.581962 130.581962 0 0 0-2.374218 24.751217q0 4.451658 0.296778 8.903315a69.742639 69.742639 0 0 1 48.790169 92.713193 130.107118 130.107118 0 0 0 25.938326 16.025968 69.564572 69.564572 0 0 1 54.607002-26.53188z" fill="#DC1E14" p-id="29942"></path><path d="M758.087642 915.913749a62.679342 62.679342 0 1 1 62.679342-62.679341 62.738697 62.738697 0 0 1-62.679342 62.679341z m0-77.874333a15.194992 15.194992 0 1 0 15.194992 15.194992 15.194992 15.194992 0 0 0-15.194992-15.194992z" fill="#DC1E14" p-id="29943"></path><path d="M531.943427 384.801298h-237.421748a29.677719 29.677719 0 0 1-29.677719-29.677718 29.677719 29.677719 0 0 1 29.677719-29.677719h237.421748a29.677719 29.677719 0 0 1 29.677718 29.677719 29.677719 29.677719 0 0 1-29.677718 29.677718z" fill="#DC1E14" p-id="29944"></path><path d="M624.65662 562.86761H294.521679a29.677719 29.677719 0 0 1-29.677719-29.677719 29.677719 29.677719 0 0 1 29.677719-29.677718h330.134941a29.677719 29.677719 0 0 1 29.677718 29.677718 29.677719 29.677719 0 0 1-29.677718 29.677719z" fill="#DC1E14" p-id="29945"></path></svg>