<?xml version="1.0" standalone="no"?><!DOCTYPE svg PUBLIC "-//W3C//DTD SVG 1.1//EN" "http://www.w3.org/Graphics/SVG/1.1/DTD/svg11.dtd"><svg t="1743760587943" class="icon" viewBox="0 0 1024 1024" version="1.1" xmlns="http://www.w3.org/2000/svg" p-id="27774" xmlns:xlink="http://www.w3.org/1999/xlink" width="200" height="200"><path d="M633.6 1017.6c131.2-80 172.8-224 137.6-355.2-25.6-99.2-99.2-150.4-192-176-44.8-12.8-92.8-12.8-137.6-16-16 0-22.4 3.2-22.4 22.4V672c-12.8-3.2-16-9.6-22.4-16C294.4 553.6 195.2 454.4 96 352c-6.4-6.4-19.2-12.8-6.4-25.6C198.4 217.6 307.2 112 419.2 0v140.8c0 22.4 3.2 28.8 28.8 28.8 86.4 3.2 169.6 16 249.6 51.2 153.6 67.2 227.2 188.8 233.6 352 9.6 195.2-102.4 374.4-272 441.6-3.2 0-6.4 3.2-9.6 3.2-9.6 6.4-16 9.6-16 0z" fill="#eebe77" p-id="27775"></path></svg>