<?xml version="1.0" standalone="no"?><!DOCTYPE svg PUBLIC "-//W3C//DTD SVG 1.1//EN" "http://www.w3.org/Graphics/SVG/1.1/DTD/svg11.dtd"><svg t="1743759627501" class="icon" viewBox="0 0 1024 1024" version="1.1" xmlns="http://www.w3.org/2000/svg" p-id="23735" xmlns:xlink="http://www.w3.org/1999/xlink" width="200" height="200"><path d="M121.941333 194.133333c0-41.258667 33.450667-74.666667 74.666667-74.666666h192a32 32 0 1 1 0 64h-192a10.666667 10.666667 0 0 0-10.666667 10.666666v192a32 32 0 0 1-64 0v-192zM121.941333 829.866667c0 41.258667 33.450667 74.666667 74.666667 74.666666h192a32 32 0 0 0 0-64h-192a10.666667 10.666667 0 0 1-10.666667-10.666666v-192a32 32 0 0 0-64 0v192z" fill="#1877f2" p-id="23736"></path><path d="M860.885333 164.864a32 32 0 0 1 0 45.226667L208.341333 862.634667a32 32 0 0 1-45.226666-45.226667L815.658667 164.864a32 32 0 0 1 45.226666 0z" fill="#1877f2" p-id="23737"></path><path d="M902.058667 194.133333a74.666667 74.666667 0 0 0-74.666667-74.666666h-192a32 32 0 0 0 0 64h192a10.666667 10.666667 0 0 1 10.666667 10.666666v192a32 32 0 0 0 64 0v-192zM902.058667 829.866667a74.666667 74.666667 0 0 1-74.666667 74.666666h-192a32 32 0 0 1 0-64h192a10.666667 10.666667 0 0 0 10.666667-10.666666v-192a32 32 0 0 1 64 0v192z" fill="#1877f2" p-id="23738"></path></svg>