<?xml version="1.0" standalone="no"?><!DOCTYPE svg PUBLIC "-//W3C//DTD SVG 1.1//EN" "http://www.w3.org/Graphics/SVG/1.1/DTD/svg11.dtd"><svg t="1743759551960" class="icon" viewBox="0 0 1066 1024" version="1.1" xmlns="http://www.w3.org/2000/svg" p-id="23539" xmlns:xlink="http://www.w3.org/1999/xlink" width="208.203125" height="200"><path d="M141.824 202.88c0-41.258667 33.408-74.666667 74.666667-74.666667h192a32 32 0 1 1 0 64h-192a10.666667 10.666667 0 0 0-10.666667 10.666667v192a32 32 0 0 1-64 0v-192zM450.346667 670.72a74.666667 74.666667 0 0 0-74.666667-74.666667h-192a32 32 0 0 0 0 64h192a10.666667 10.666667 0 0 1 10.666667 10.666667v192a32 32 0 0 0 64 0v-192z" fill="#1877F2" p-id="23540"></path><path d="M431.317333 618.922667a32 32 0 0 0-45.226666-0.384l-234.666667 230.570666a32 32 0 0 0 44.8 45.653334l234.666667-230.570667a32 32 0 0 0 0.426666-45.226667zM613.376 361.472c0 41.216 33.408 74.666667 74.666667 74.666667h192a32 32 0 1 0 0-64h-192a10.666667 10.666667 0 0 1-10.666667-10.666667v-192a32 32 0 0 0-64 0v192z" fill="#1877F2" p-id="23541"></path><path d="M632.405333 413.226667a32 32 0 0 0 45.269334 0.426666l234.666666-230.613333a32 32 0 0 0-44.842666-45.653333l-234.666667 230.570666a32 32 0 0 0-0.426667 45.269334zM921.898667 829.269333a74.666667 74.666667 0 0 1-74.666667 74.666667h-192a32 32 0 0 1 0-64h192a10.666667 10.666667 0 0 0 10.666667-10.666667v-192a32 32 0 0 1 64 0v192z" fill="#1877F2" p-id="23542"></path></svg>